M48
; DRILL file {KiCad 9.0.7} date 2026-02-16T22:08:26-0500
; FORMAT={-:-/ absolute / metric / decimal}
; #@! TF.CreationDate,2026-02-16T22:08:26-05:00
; #@! TF.GenerationSoftware,Kicad,Pcbnew,9.0.7
; #@! TF.FileFunction,Plated,1,2,PTH
FMAT,2
METRIC
; #@! TA.AperFunction,Plated,PTH,ViaDrill
T1C0.400
; #@! TA.AperFunction,Plated,PTH,ComponentDrill
T2C0.500
; #@! TA.AperFunction,Plated,PTH,ComponentDrill
T3C0.762
; #@! TA.AperFunction,Plated,PTH,ComponentDrill
T4C0.800
; #@! TA.AperFunction,Plated,PTH,ComponentDrill
T5C3.000
; #@! TA.AperFunction,Plated,PTH,ComponentDrill
T6C3.200
%
G90
G05
T1
X137.16Y-108.204
X143.205Y-108.204
X146.05Y-80.899
X148.59Y-84.074
X149.86Y-103.53
X155.905Y-68.834
X155.905Y-73.152
X157.48Y-111.709
X158.801Y-80.315
X159.156Y-87.427
X159.512Y-74.524
X159.512Y-107.594
X162.56Y-95.809
X162.56Y-106.07
X164.948Y-87.376
X166.37Y-84.328
X167.037Y-111.379
X167.945Y-102.87
X170.282Y-104.343
X176.911Y-90.932
X177.089Y-104.902
X177.952Y-72.796
X177.952Y-78.384
X181.813Y-79.197
X182.626Y-96.393
X186.233Y-80.315
X194.183Y-92.964
X194.183Y-95.575
X194.97Y-109.017
X196.647Y-68.224
X198.374Y-69.139
X198.374Y-71.679
X198.425Y-74.219
X201.066Y-108.966
X201.168Y-76.454
X204.013Y-76.251
X204.013Y-77.521
X204.064Y-105.512
X204.064Y-106.782
T2
X120.79Y-64.77
X120.79Y-118.11
X121.493Y-63.073
X121.493Y-66.467
X121.493Y-116.413
X121.493Y-119.807
X123.19Y-62.37
X123.19Y-67.17
X123.19Y-115.71
X123.19Y-120.51
X124.887Y-63.073
X124.887Y-66.467
X124.887Y-116.413
X124.887Y-119.807
X125.59Y-64.77
X125.59Y-118.11
X204.61Y-64.77
X204.61Y-118.11
X205.313Y-63.073
X205.313Y-66.467
X205.313Y-116.413
X205.313Y-119.807
X207.01Y-62.37
X207.01Y-67.17
X207.01Y-115.71
X207.01Y-120.51
X208.707Y-63.073
X208.707Y-66.467
X208.707Y-116.413
X208.707Y-119.807
X209.41Y-64.77
X209.41Y-118.11
T4
X128.632Y-74.952
X138.792Y-74.952
T5
X133.458Y-90.778
T6
X123.19Y-64.77
X123.19Y-118.11
X207.01Y-64.77
X207.01Y-118.11
T3
G00X134.577Y-79.778
M15
G01X132.339Y-79.778
M16
G05
G00X134.577Y-101.778
M15
G01X132.339Y-101.778
M16
G05
M30
