%TF.GenerationSoftware,KiCad,Pcbnew,9.0.7*%
%TF.CreationDate,2026-02-16T22:08:23-05:00*%
%TF.ProjectId,Microphone_V3,4d696372-6f70-4686-9f6e-655f56332e6b,rev?*%
%TF.SameCoordinates,Original*%
%TF.FileFunction,Paste,Top*%
%TF.FilePolarity,Positive*%
%FSLAX46Y46*%
G04 Gerber Fmt 4.6, Leading zero omitted, Abs format (unit mm)*
G04 Created by KiCad (PCBNEW 9.0.7) date 2026-02-16 22:08:23*
%MOMM*%
%LPD*%
G01*
G04 APERTURE LIST*
G04 Aperture macros list*
%AMRoundRect*
0 Rectangle with rounded corners*
0 $1 Rounding radius*
0 $2 $3 $4 $5 $6 $7 $8 $9 X,Y pos of 4 corners*
0 Add a 4 corners polygon primitive as box body*
4,1,4,$2,$3,$4,$5,$6,$7,$8,$9,$2,$3,0*
0 Add four circle primitives for the rounded corners*
1,1,$1+$1,$2,$3*
1,1,$1+$1,$4,$5*
1,1,$1+$1,$6,$7*
1,1,$1+$1,$8,$9*
0 Add four rect primitives between the rounded corners*
20,1,$1+$1,$2,$3,$4,$5,0*
20,1,$1+$1,$4,$5,$6,$7,0*
20,1,$1+$1,$6,$7,$8,$9,0*
20,1,$1+$1,$8,$9,$2,$3,0*%
G04 Aperture macros list end*
%ADD10RoundRect,0.200000X0.200000X0.275000X-0.200000X0.275000X-0.200000X-0.275000X0.200000X-0.275000X0*%
%ADD11R,4.699000X3.429000*%
%ADD12RoundRect,0.200000X-0.200000X-0.275000X0.200000X-0.275000X0.200000X0.275000X-0.200000X0.275000X0*%
%ADD13RoundRect,0.237500X0.300000X0.237500X-0.300000X0.237500X-0.300000X-0.237500X0.300000X-0.237500X0*%
%ADD14RoundRect,0.237500X0.237500X-0.300000X0.237500X0.300000X-0.237500X0.300000X-0.237500X-0.300000X0*%
%ADD15RoundRect,0.200000X-0.275000X0.200000X-0.275000X-0.200000X0.275000X-0.200000X0.275000X0.200000X0*%
%ADD16RoundRect,0.237500X-0.237500X0.300000X-0.237500X-0.300000X0.237500X-0.300000X0.237500X0.300000X0*%
%ADD17RoundRect,0.250000X-0.337500X-0.475000X0.337500X-0.475000X0.337500X0.475000X-0.337500X0.475000X0*%
%ADD18RoundRect,0.250000X0.475000X-0.337500X0.475000X0.337500X-0.475000X0.337500X-0.475000X-0.337500X0*%
%ADD19RoundRect,0.200000X0.275000X-0.200000X0.275000X0.200000X-0.275000X0.200000X-0.275000X-0.200000X0*%
%ADD20RoundRect,0.250000X-0.400000X-0.700000X0.400000X-0.700000X0.400000X0.700000X-0.400000X0.700000X0*%
%ADD21RoundRect,0.250000X-0.750000X-0.700000X0.750000X-0.700000X0.750000X0.700000X-0.750000X0.700000X0*%
%ADD22RoundRect,0.150000X0.587500X0.150000X-0.587500X0.150000X-0.587500X-0.150000X0.587500X-0.150000X0*%
%ADD23RoundRect,0.237500X-0.300000X-0.237500X0.300000X-0.237500X0.300000X0.237500X-0.300000X0.237500X0*%
%ADD24RoundRect,0.150000X-0.512500X-0.150000X0.512500X-0.150000X0.512500X0.150000X-0.512500X0.150000X0*%
%ADD25R,1.600000X1.000000*%
%ADD26RoundRect,0.237500X0.237500X-0.287500X0.237500X0.287500X-0.237500X0.287500X-0.237500X-0.287500X0*%
%ADD27RoundRect,0.250000X1.000000X-1.950000X1.000000X1.950000X-1.000000X1.950000X-1.000000X-1.950000X0*%
%ADD28RoundRect,0.175000X0.425000X-0.175000X0.425000X0.175000X-0.425000X0.175000X-0.425000X-0.175000X0*%
%ADD29RoundRect,0.190000X-0.410000X0.190000X-0.410000X-0.190000X0.410000X-0.190000X0.410000X0.190000X0*%
%ADD30RoundRect,0.200000X-0.400000X0.200000X-0.400000X-0.200000X0.400000X-0.200000X0.400000X0.200000X0*%
%ADD31RoundRect,0.175000X-0.425000X0.175000X-0.425000X-0.175000X0.425000X-0.175000X0.425000X0.175000X0*%
%ADD32RoundRect,0.190000X0.410000X-0.190000X0.410000X0.190000X-0.410000X0.190000X-0.410000X-0.190000X0*%
%ADD33RoundRect,0.200000X0.400000X-0.200000X0.400000X0.200000X-0.400000X0.200000X-0.400000X-0.200000X0*%
%ADD34RoundRect,0.250000X0.425000X-0.650000X0.425000X0.650000X-0.425000X0.650000X-0.425000X-0.650000X0*%
%ADD35RoundRect,0.250000X0.500000X-0.650000X0.500000X0.650000X-0.500000X0.650000X-0.500000X-0.650000X0*%
%ADD36RoundRect,0.150000X0.700000X-0.150000X0.700000X0.150000X-0.700000X0.150000X-0.700000X-0.150000X0*%
%ADD37RoundRect,0.250000X1.100000X-0.250000X1.100000X0.250000X-1.100000X0.250000X-1.100000X-0.250000X0*%
%ADD38RoundRect,0.150000X-0.825000X-0.150000X0.825000X-0.150000X0.825000X0.150000X-0.825000X0.150000X0*%
%ADD39RoundRect,0.150000X0.150000X-0.725000X0.150000X0.725000X-0.150000X0.725000X-0.150000X-0.725000X0*%
%ADD40RoundRect,0.150000X0.150000X-0.512500X0.150000X0.512500X-0.150000X0.512500X-0.150000X-0.512500X0*%
%ADD41RoundRect,0.250000X0.625000X-0.400000X0.625000X0.400000X-0.625000X0.400000X-0.625000X-0.400000X0*%
G04 APERTURE END LIST*
D10*
%TO.C,R1*%
X201251000Y-90896000D03*
X199601000Y-90896000D03*
%TD*%
D11*
%TO.C,TP14*%
X190500000Y-64516000D03*
%TD*%
D12*
%TO.C,R12*%
X150305000Y-73660000D03*
X151955000Y-73660000D03*
%TD*%
D13*
%TO.C,C19*%
X201522500Y-74168000D03*
X199797500Y-74168000D03*
%TD*%
D11*
%TO.C,TP16*%
X195072000Y-87376000D03*
%TD*%
%TO.C,TP7*%
X174244000Y-74168000D03*
%TD*%
D14*
%TO.C,C8*%
X162560000Y-77570500D03*
X162560000Y-75845500D03*
%TD*%
D15*
%TO.C,R6*%
X146050000Y-71565000D03*
X146050000Y-73215000D03*
%TD*%
D16*
%TO.C,C3*%
X148590000Y-80925500D03*
X148590000Y-82650500D03*
%TD*%
D17*
%TO.C,C9*%
X165078500Y-106299000D03*
X167153500Y-106299000D03*
%TD*%
D18*
%TO.C,C15*%
X157512000Y-114929500D03*
X157512000Y-112854500D03*
%TD*%
D12*
%TO.C,R19*%
X184595000Y-79248000D03*
X186245000Y-79248000D03*
%TD*%
D19*
%TO.C,R8*%
X147828000Y-69405000D03*
X147828000Y-67755000D03*
%TD*%
D10*
%TO.C,R10*%
X187789000Y-86360000D03*
X186139000Y-86360000D03*
%TD*%
D20*
%TO.C,RV1*%
X168282000Y-74158000D03*
D21*
X167132000Y-79258000D03*
D20*
X165982000Y-74158000D03*
%TD*%
D18*
%TO.C,C14*%
X166624000Y-102891500D03*
X166624000Y-100816500D03*
%TD*%
D11*
%TO.C,TP4*%
X140208000Y-108204000D03*
%TD*%
%TO.C,TP2*%
X153670000Y-78740000D03*
%TD*%
D10*
%TO.C,R2*%
X201251000Y-92674000D03*
X199601000Y-92674000D03*
%TD*%
D18*
%TO.C,C4*%
X184424000Y-96003500D03*
X184424000Y-93928500D03*
%TD*%
D22*
%TO.C,Q1*%
X143237500Y-75850000D03*
X143237500Y-73950000D03*
X141362500Y-74900000D03*
%TD*%
D23*
%TO.C,C6*%
X178969500Y-79248000D03*
X180694500Y-79248000D03*
%TD*%
D24*
%TO.C,U1*%
X187330500Y-93762000D03*
X187330500Y-94712000D03*
X187330500Y-95662000D03*
X189605500Y-95662000D03*
X189605500Y-93762000D03*
%TD*%
D25*
%TO.C,SW1*%
X181000000Y-90972000D03*
X181000000Y-93472000D03*
X181000000Y-95972000D03*
X178600000Y-90972000D03*
X178600000Y-93472000D03*
X178600000Y-95972000D03*
%TD*%
D19*
%TO.C,R22*%
X201168000Y-79057000D03*
X201168000Y-77407000D03*
%TD*%
D11*
%TO.C,TP8*%
X167672000Y-96112000D03*
%TD*%
D15*
%TO.C,R7*%
X146050000Y-77915000D03*
X146050000Y-79565000D03*
%TD*%
D23*
%TO.C,C11*%
X179477500Y-74168000D03*
X181202500Y-74168000D03*
%TD*%
D11*
%TO.C,TP15*%
X195900000Y-101216000D03*
%TD*%
%TO.C,TP9*%
X140208000Y-114554000D03*
%TD*%
D26*
%TO.C,D1*%
X186202000Y-90283000D03*
X186202000Y-88533000D03*
%TD*%
D19*
%TO.C,R5*%
X144780000Y-69405000D03*
X144780000Y-67755000D03*
%TD*%
D11*
%TO.C,TP5*%
X180372000Y-110082000D03*
%TD*%
D13*
%TO.C,C20*%
X201522500Y-71658000D03*
X199797500Y-71658000D03*
%TD*%
D12*
%TO.C,R20*%
X190564000Y-78994000D03*
X192214000Y-78994000D03*
%TD*%
D11*
%TO.C,TP13*%
X192532000Y-74168000D03*
%TD*%
D12*
%TO.C,R11*%
X150305000Y-69850000D03*
X151955000Y-69850000D03*
%TD*%
D11*
%TO.C,TP3*%
X161036000Y-68072000D03*
%TD*%
D10*
%TO.C,R18*%
X182181000Y-83820000D03*
X180531000Y-83820000D03*
%TD*%
D27*
%TO.C,C17*%
X149892000Y-113782000D03*
X149892000Y-106382000D03*
%TD*%
D23*
%TO.C,C7*%
X167793500Y-84328000D03*
X169518500Y-84328000D03*
%TD*%
%TO.C,C12*%
X184557500Y-74168000D03*
X186282500Y-74168000D03*
%TD*%
D15*
%TO.C,R16*%
X160052000Y-110527000D03*
X160052000Y-112177000D03*
%TD*%
D27*
%TO.C,C16*%
X159512000Y-104792000D03*
X159512000Y-97392000D03*
%TD*%
D12*
%TO.C,R14*%
X159703000Y-80264000D03*
X161353000Y-80264000D03*
%TD*%
D17*
%TO.C,C18*%
X195558500Y-79248000D03*
X197633500Y-79248000D03*
%TD*%
D15*
%TO.C,R13*%
X159512000Y-71819000D03*
X159512000Y-73469000D03*
%TD*%
D28*
%TO.C,J1*%
X204349500Y-91995000D03*
D29*
X204349500Y-89975000D03*
D30*
X204349500Y-88745000D03*
D31*
X204349500Y-90995000D03*
D32*
X204349500Y-93015000D03*
D33*
X204349500Y-94245000D03*
D34*
X204404500Y-96620000D03*
D35*
X207984500Y-96620000D03*
D34*
X204404500Y-86370000D03*
D35*
X207984500Y-86370000D03*
%TD*%
D11*
%TO.C,TP12*%
X198068000Y-109004000D03*
%TD*%
D23*
%TO.C,C5*%
X155093500Y-71628000D03*
X156818500Y-71628000D03*
%TD*%
D36*
%TO.C,J3*%
X205650000Y-78765000D03*
X205650000Y-77515000D03*
X205650000Y-76265000D03*
X205650000Y-75015000D03*
D37*
X208850000Y-80615000D03*
X208850000Y-73165000D03*
%TD*%
D38*
%TO.C,U2*%
X171769000Y-79883000D03*
X171769000Y-81153000D03*
X171769000Y-82423000D03*
X171769000Y-83693000D03*
X176719000Y-83693000D03*
X176719000Y-82423000D03*
X176719000Y-81153000D03*
X176719000Y-79883000D03*
%TD*%
D15*
%TO.C,R9*%
X148590000Y-76645000D03*
X148590000Y-78295000D03*
%TD*%
D39*
%TO.C,U3*%
X164497000Y-113927000D03*
X165767000Y-113927000D03*
X167037000Y-113927000D03*
X168307000Y-113927000D03*
X168307000Y-108777000D03*
X167037000Y-108777000D03*
X165767000Y-108777000D03*
X164497000Y-108777000D03*
%TD*%
D40*
%TO.C,U4*%
X170246000Y-102991500D03*
X171196000Y-102991500D03*
X172146000Y-102991500D03*
X172146000Y-100716500D03*
X170246000Y-100716500D03*
%TD*%
D10*
%TO.C,R17*%
X174937000Y-97992000D03*
X173287000Y-97992000D03*
%TD*%
D11*
%TO.C,TP1*%
X139700000Y-68580000D03*
%TD*%
%TO.C,TP6*%
X181312000Y-103592000D03*
%TD*%
%TO.C,TP11*%
X162052000Y-87376000D03*
%TD*%
D13*
%TO.C,C13*%
X168534500Y-116432000D03*
X166809500Y-116432000D03*
%TD*%
D36*
%TO.C,J2*%
X205650000Y-107975000D03*
X205650000Y-106725000D03*
X205650000Y-105475000D03*
X205650000Y-104225000D03*
D37*
X208850000Y-109825000D03*
X208850000Y-102375000D03*
%TD*%
D11*
%TO.C,TP10*%
X172212000Y-90424000D03*
%TD*%
D41*
%TO.C,R23*%
X196596000Y-67082000D03*
X196596000Y-63982000D03*
%TD*%
D12*
%TO.C,R4*%
X189675000Y-90932000D03*
X191325000Y-90932000D03*
%TD*%
D25*
%TO.C,SW2*%
X187268000Y-110704000D03*
X187268000Y-108204000D03*
X187268000Y-105704000D03*
X189668000Y-110704000D03*
X189668000Y-108204000D03*
X189668000Y-105704000D03*
%TD*%
D18*
%TO.C,C10*%
X175768000Y-104923500D03*
X175768000Y-102848500D03*
%TD*%
D13*
%TO.C,C21*%
X201522500Y-69148000D03*
X199797500Y-69148000D03*
%TD*%
D18*
%TO.C,C1*%
X196088000Y-96033500D03*
X196088000Y-93958500D03*
%TD*%
D12*
%TO.C,R21*%
X190564000Y-82296000D03*
X192214000Y-82296000D03*
%TD*%
D14*
%TO.C,C2*%
X192532000Y-95574500D03*
X192532000Y-93849500D03*
%TD*%
M02*
