%TF.GenerationSoftware,KiCad,Pcbnew,9.0.7*%
%TF.CreationDate,2026-02-16T22:08:23-05:00*%
%TF.ProjectId,Microphone_V3,4d696372-6f70-4686-9f6e-655f56332e6b,rev?*%
%TF.SameCoordinates,Original*%
%TF.FileFunction,Copper,L1,Top*%
%TF.FilePolarity,Positive*%
%FSLAX46Y46*%
G04 Gerber Fmt 4.6, Leading zero omitted, Abs format (unit mm)*
G04 Created by KiCad (PCBNEW 9.0.7) date 2026-02-16 22:08:23*
%MOMM*%
%LPD*%
G01*
G04 APERTURE LIST*
G04 Aperture macros list*
%AMRoundRect*
0 Rectangle with rounded corners*
0 $1 Rounding radius*
0 $2 $3 $4 $5 $6 $7 $8 $9 X,Y pos of 4 corners*
0 Add a 4 corners polygon primitive as box body*
4,1,4,$2,$3,$4,$5,$6,$7,$8,$9,$2,$3,0*
0 Add four circle primitives for the rounded corners*
1,1,$1+$1,$2,$3*
1,1,$1+$1,$4,$5*
1,1,$1+$1,$6,$7*
1,1,$1+$1,$8,$9*
0 Add four rect primitives between the rounded corners*
20,1,$1+$1,$2,$3,$4,$5,0*
20,1,$1+$1,$4,$5,$6,$7,0*
20,1,$1+$1,$6,$7,$8,$9,0*
20,1,$1+$1,$8,$9,$2,$3,0*%
G04 Aperture macros list end*
%TA.AperFunction,ComponentPad*%
%ADD10C,6.000000*%
%TD*%
%TA.AperFunction,ComponentPad*%
%ADD11O,4.000000X1.524000*%
%TD*%
%TA.AperFunction,SMDPad,CuDef*%
%ADD12RoundRect,0.200000X0.200000X0.275000X-0.200000X0.275000X-0.200000X-0.275000X0.200000X-0.275000X0*%
%TD*%
%TA.AperFunction,SMDPad,CuDef*%
%ADD13R,4.699000X3.429000*%
%TD*%
%TA.AperFunction,SMDPad,CuDef*%
%ADD14RoundRect,0.200000X-0.200000X-0.275000X0.200000X-0.275000X0.200000X0.275000X-0.200000X0.275000X0*%
%TD*%
%TA.AperFunction,SMDPad,CuDef*%
%ADD15RoundRect,0.237500X0.300000X0.237500X-0.300000X0.237500X-0.300000X-0.237500X0.300000X-0.237500X0*%
%TD*%
%TA.AperFunction,SMDPad,CuDef*%
%ADD16RoundRect,0.237500X0.237500X-0.300000X0.237500X0.300000X-0.237500X0.300000X-0.237500X-0.300000X0*%
%TD*%
%TA.AperFunction,SMDPad,CuDef*%
%ADD17RoundRect,0.200000X-0.275000X0.200000X-0.275000X-0.200000X0.275000X-0.200000X0.275000X0.200000X0*%
%TD*%
%TA.AperFunction,SMDPad,CuDef*%
%ADD18RoundRect,0.237500X-0.237500X0.300000X-0.237500X-0.300000X0.237500X-0.300000X0.237500X0.300000X0*%
%TD*%
%TA.AperFunction,SMDPad,CuDef*%
%ADD19RoundRect,0.250000X-0.337500X-0.475000X0.337500X-0.475000X0.337500X0.475000X-0.337500X0.475000X0*%
%TD*%
%TA.AperFunction,SMDPad,CuDef*%
%ADD20RoundRect,0.250000X0.475000X-0.337500X0.475000X0.337500X-0.475000X0.337500X-0.475000X-0.337500X0*%
%TD*%
%TA.AperFunction,SMDPad,CuDef*%
%ADD21RoundRect,0.200000X0.275000X-0.200000X0.275000X0.200000X-0.275000X0.200000X-0.275000X-0.200000X0*%
%TD*%
%TA.AperFunction,SMDPad,CuDef*%
%ADD22RoundRect,0.250000X-0.400000X-0.700000X0.400000X-0.700000X0.400000X0.700000X-0.400000X0.700000X0*%
%TD*%
%TA.AperFunction,SMDPad,CuDef*%
%ADD23RoundRect,0.250000X-0.750000X-0.700000X0.750000X-0.700000X0.750000X0.700000X-0.750000X0.700000X0*%
%TD*%
%TA.AperFunction,SMDPad,CuDef*%
%ADD24RoundRect,0.150000X0.587500X0.150000X-0.587500X0.150000X-0.587500X-0.150000X0.587500X-0.150000X0*%
%TD*%
%TA.AperFunction,SMDPad,CuDef*%
%ADD25RoundRect,0.237500X-0.300000X-0.237500X0.300000X-0.237500X0.300000X0.237500X-0.300000X0.237500X0*%
%TD*%
%TA.AperFunction,SMDPad,CuDef*%
%ADD26RoundRect,0.150000X-0.512500X-0.150000X0.512500X-0.150000X0.512500X0.150000X-0.512500X0.150000X0*%
%TD*%
%TA.AperFunction,SMDPad,CuDef*%
%ADD27R,1.600000X1.000000*%
%TD*%
%TA.AperFunction,SMDPad,CuDef*%
%ADD28RoundRect,0.237500X0.237500X-0.287500X0.237500X0.287500X-0.237500X0.287500X-0.237500X-0.287500X0*%
%TD*%
%TA.AperFunction,ComponentPad*%
%ADD29C,0.800000*%
%TD*%
%TA.AperFunction,ComponentPad*%
%ADD30C,6.400000*%
%TD*%
%TA.AperFunction,SMDPad,CuDef*%
%ADD31RoundRect,0.250000X1.000000X-1.950000X1.000000X1.950000X-1.000000X1.950000X-1.000000X-1.950000X0*%
%TD*%
%TA.AperFunction,SMDPad,CuDef*%
%ADD32RoundRect,0.175000X0.425000X-0.175000X0.425000X0.175000X-0.425000X0.175000X-0.425000X-0.175000X0*%
%TD*%
%TA.AperFunction,SMDPad,CuDef*%
%ADD33RoundRect,0.190000X-0.410000X0.190000X-0.410000X-0.190000X0.410000X-0.190000X0.410000X0.190000X0*%
%TD*%
%TA.AperFunction,SMDPad,CuDef*%
%ADD34RoundRect,0.200000X-0.400000X0.200000X-0.400000X-0.200000X0.400000X-0.200000X0.400000X0.200000X0*%
%TD*%
%TA.AperFunction,SMDPad,CuDef*%
%ADD35RoundRect,0.175000X-0.425000X0.175000X-0.425000X-0.175000X0.425000X-0.175000X0.425000X0.175000X0*%
%TD*%
%TA.AperFunction,SMDPad,CuDef*%
%ADD36RoundRect,0.190000X0.410000X-0.190000X0.410000X0.190000X-0.410000X0.190000X-0.410000X-0.190000X0*%
%TD*%
%TA.AperFunction,SMDPad,CuDef*%
%ADD37RoundRect,0.200000X0.400000X-0.200000X0.400000X0.200000X-0.400000X0.200000X-0.400000X-0.200000X0*%
%TD*%
%TA.AperFunction,SMDPad,CuDef*%
%ADD38RoundRect,0.250000X0.425000X-0.650000X0.425000X0.650000X-0.425000X0.650000X-0.425000X-0.650000X0*%
%TD*%
%TA.AperFunction,SMDPad,CuDef*%
%ADD39RoundRect,0.250000X0.500000X-0.650000X0.500000X0.650000X-0.500000X0.650000X-0.500000X-0.650000X0*%
%TD*%
%TA.AperFunction,SMDPad,CuDef*%
%ADD40RoundRect,0.150000X0.700000X-0.150000X0.700000X0.150000X-0.700000X0.150000X-0.700000X-0.150000X0*%
%TD*%
%TA.AperFunction,SMDPad,CuDef*%
%ADD41RoundRect,0.250000X1.100000X-0.250000X1.100000X0.250000X-1.100000X0.250000X-1.100000X-0.250000X0*%
%TD*%
%TA.AperFunction,SMDPad,CuDef*%
%ADD42RoundRect,0.150000X-0.825000X-0.150000X0.825000X-0.150000X0.825000X0.150000X-0.825000X0.150000X0*%
%TD*%
%TA.AperFunction,SMDPad,CuDef*%
%ADD43RoundRect,0.150000X0.150000X-0.725000X0.150000X0.725000X-0.150000X0.725000X-0.150000X-0.725000X0*%
%TD*%
%TA.AperFunction,SMDPad,CuDef*%
%ADD44RoundRect,0.150000X0.150000X-0.512500X0.150000X0.512500X-0.150000X0.512500X-0.150000X-0.512500X0*%
%TD*%
%TA.AperFunction,SMDPad,CuDef*%
%ADD45RoundRect,0.250000X0.625000X-0.400000X0.625000X0.400000X-0.625000X0.400000X-0.625000X-0.400000X0*%
%TD*%
%TA.AperFunction,ComponentPad*%
%ADD46C,1.600000*%
%TD*%
%TA.AperFunction,ViaPad*%
%ADD47C,0.800000*%
%TD*%
%TA.AperFunction,Conductor*%
%ADD48C,0.250000*%
%TD*%
%TA.AperFunction,Conductor*%
%ADD49C,0.500000*%
%TD*%
%TA.AperFunction,Conductor*%
%ADD50C,1.000000*%
%TD*%
%TA.AperFunction,Conductor*%
%ADD51C,0.300000*%
%TD*%
G04 APERTURE END LIST*
D10*
%TO.P,MK1,1,-*%
%TO.N,Net-(MK1--)*%
X133458000Y-90778000D03*
D11*
%TO.P,MK1,2,+*%
%TO.N,GND*%
X133458000Y-101778000D03*
X133458000Y-79778000D03*
%TD*%
D12*
%TO.P,R1,1*%
%TO.N,Net-(J1-CC2)*%
X201251000Y-90896000D03*
%TO.P,R1,2*%
%TO.N,/USB_GND*%
X199601000Y-90896000D03*
%TD*%
D13*
%TO.P,TP14,1,1*%
%TO.N,CGND*%
X190500000Y-64516000D03*
%TD*%
D14*
%TO.P,R12,1*%
%TO.N,Net-(Q1-S)*%
X150305000Y-73660000D03*
%TO.P,R12,2*%
%TO.N,Net-(C5-Pad1)*%
X151955000Y-73660000D03*
%TD*%
D15*
%TO.P,C19,1*%
%TO.N,Net-(J3-Pin_4)*%
X201522500Y-74168000D03*
%TO.P,C19,2*%
%TO.N,GND*%
X199797500Y-74168000D03*
%TD*%
D13*
%TO.P,TP16,1,1*%
%TO.N,/USB_GND*%
X195072000Y-87376000D03*
%TD*%
%TO.P,TP7,1,1*%
%TO.N,Net-(C11-Pad1)*%
X174244000Y-74168000D03*
%TD*%
D16*
%TO.P,C8,1*%
%TO.N,Net-(U2A--)*%
X162560000Y-77570500D03*
%TO.P,C8,2*%
%TO.N,Net-(C11-Pad1)*%
X162560000Y-75845500D03*
%TD*%
D17*
%TO.P,R6,1*%
%TO.N,Net-(R5-Pad1)*%
X146050000Y-71565000D03*
%TO.P,R6,2*%
%TO.N,Net-(Q1-D)*%
X146050000Y-73215000D03*
%TD*%
D18*
%TO.P,C3,1*%
%TO.N,Net-(C3-Pad1)*%
X148590000Y-80925500D03*
%TO.P,C3,2*%
%TO.N,GND*%
X148590000Y-82650500D03*
%TD*%
D19*
%TO.P,C9,1*%
%TO.N,VBAT*%
X165078500Y-106299000D03*
%TO.P,C9,2*%
%TO.N,GND*%
X167153500Y-106299000D03*
%TD*%
D20*
%TO.P,C15,1*%
%TO.N,+2.5V*%
X157512000Y-114929500D03*
%TO.P,C15,2*%
%TO.N,GND*%
X157512000Y-112854500D03*
%TD*%
D14*
%TO.P,R19,1*%
%TO.N,Net-(U2B--)*%
X184595000Y-79248000D03*
%TO.P,R19,2*%
%TO.N,GND*%
X186245000Y-79248000D03*
%TD*%
D21*
%TO.P,R8,1*%
%TO.N,Net-(R5-Pad1)*%
X147828000Y-69405000D03*
%TO.P,R8,2*%
%TO.N,VBAT*%
X147828000Y-67755000D03*
%TD*%
D12*
%TO.P,R10,1*%
%TO.N,/USB_VCC*%
X187789000Y-86360000D03*
%TO.P,R10,2*%
%TO.N,Net-(D1-A)*%
X186139000Y-86360000D03*
%TD*%
D22*
%TO.P,RV1,1,1*%
%TO.N,unconnected-(RV1-Pad1)*%
X168282000Y-74158000D03*
D23*
%TO.P,RV1,2,2*%
%TO.N,Net-(U2A--)*%
X167132000Y-79258000D03*
D22*
%TO.P,RV1,3,3*%
%TO.N,Net-(C11-Pad1)*%
X165982000Y-74158000D03*
%TD*%
D20*
%TO.P,C14,1*%
%TO.N,GND*%
X166624000Y-102891500D03*
%TO.P,C14,2*%
%TO.N,-2.5V*%
X166624000Y-100816500D03*
%TD*%
D13*
%TO.P,TP4,1,1*%
%TO.N,GND*%
X140208000Y-108204000D03*
%TD*%
%TO.P,TP2,1,1*%
%TO.N,Net-(Q1-S)*%
X153670000Y-78740000D03*
%TD*%
D12*
%TO.P,R2,1*%
%TO.N,Net-(J1-CC1)*%
X201251000Y-92674000D03*
%TO.P,R2,2*%
%TO.N,/USB_GND*%
X199601000Y-92674000D03*
%TD*%
D20*
%TO.P,C4,1*%
%TO.N,/CHARGE*%
X184424000Y-96003500D03*
%TO.P,C4,2*%
%TO.N,/USB_GND*%
X184424000Y-93928500D03*
%TD*%
D24*
%TO.P,Q1,1,S*%
%TO.N,Net-(Q1-S)*%
X143237500Y-75850000D03*
%TO.P,Q1,2,D*%
%TO.N,Net-(Q1-D)*%
X143237500Y-73950000D03*
%TO.P,Q1,3,G*%
%TO.N,Net-(MK1--)*%
X141362500Y-74900000D03*
%TD*%
D25*
%TO.P,C6,1*%
%TO.N,+2.5V*%
X178969500Y-79248000D03*
%TO.P,C6,2*%
%TO.N,GND*%
X180694500Y-79248000D03*
%TD*%
D26*
%TO.P,U1,1,STAT*%
%TO.N,Net-(D1-K)*%
X187330500Y-93762000D03*
%TO.P,U1,2,V_{SS}*%
%TO.N,/USB_GND*%
X187330500Y-94712000D03*
%TO.P,U1,3,V_{BAT}*%
%TO.N,/CHARGE*%
X187330500Y-95662000D03*
%TO.P,U1,4,V_{DD}*%
%TO.N,/USB_VCC*%
X189605500Y-95662000D03*
%TO.P,U1,5,PROG*%
%TO.N,Net-(U1-PROG)*%
X189605500Y-93762000D03*
%TD*%
D27*
%TO.P,SW1,1,A*%
%TO.N,Net-(SW1A-A)*%
X181000000Y-90972000D03*
%TO.P,SW1,2,B*%
%TO.N,/CHARGE*%
X181000000Y-93472000D03*
%TO.P,SW1,3,C*%
%TO.N,GND*%
X181000000Y-95972000D03*
%TO.P,SW1,4,A*%
X178600000Y-90972000D03*
%TO.P,SW1,5,B*%
%TO.N,/USB_GND*%
X178600000Y-93472000D03*
%TO.P,SW1,6,C*%
%TO.N,Net-(SW1B-C)*%
X178600000Y-95972000D03*
%TD*%
D21*
%TO.P,R22,1*%
%TO.N,Net-(J3-Pin_1)*%
X201168000Y-79057000D03*
%TO.P,R22,2*%
%TO.N,GND*%
X201168000Y-77407000D03*
%TD*%
D13*
%TO.P,TP8,1,1*%
%TO.N,-2.5V*%
X167672000Y-96112000D03*
%TD*%
D17*
%TO.P,R7,1*%
%TO.N,Net-(Q1-S)*%
X146050000Y-77915000D03*
%TO.P,R7,2*%
%TO.N,GND*%
X146050000Y-79565000D03*
%TD*%
D25*
%TO.P,C11,1*%
%TO.N,Net-(C11-Pad1)*%
X179477500Y-74168000D03*
%TO.P,C11,2*%
%TO.N,Net-(C11-Pad2)*%
X181202500Y-74168000D03*
%TD*%
D13*
%TO.P,TP15,1,1*%
%TO.N,/USB_VCC*%
X195900000Y-101216000D03*
%TD*%
%TO.P,TP9,1,1*%
%TO.N,+2.5V*%
X140208000Y-114554000D03*
%TD*%
D28*
%TO.P,D1,1,K*%
%TO.N,Net-(D1-K)*%
X186202000Y-90283000D03*
%TO.P,D1,2,A*%
%TO.N,Net-(D1-A)*%
X186202000Y-88533000D03*
%TD*%
D21*
%TO.P,R5,1*%
%TO.N,Net-(R5-Pad1)*%
X144780000Y-69405000D03*
%TO.P,R5,2*%
%TO.N,+2.5V*%
X144780000Y-67755000D03*
%TD*%
D13*
%TO.P,TP5,1,1*%
%TO.N,VBAT*%
X180372000Y-110082000D03*
%TD*%
D29*
%TO.P,H4,1,1*%
%TO.N,CGND*%
X120790000Y-64770000D03*
X121492944Y-63072944D03*
X121492944Y-66467056D03*
X123190000Y-62370000D03*
D30*
X123190000Y-64770000D03*
D29*
X123190000Y-67170000D03*
X124887056Y-63072944D03*
X124887056Y-66467056D03*
X125590000Y-64770000D03*
%TD*%
%TO.P,H1,1,1*%
%TO.N,CGND*%
X120790000Y-118110000D03*
X121492944Y-116412944D03*
X121492944Y-119807056D03*
X123190000Y-115710000D03*
D30*
X123190000Y-118110000D03*
D29*
X123190000Y-120510000D03*
X124887056Y-116412944D03*
X124887056Y-119807056D03*
X125590000Y-118110000D03*
%TD*%
D15*
%TO.P,C20,1*%
%TO.N,Net-(J3-Pin_4)*%
X201522500Y-71658000D03*
%TO.P,C20,2*%
%TO.N,GND*%
X199797500Y-71658000D03*
%TD*%
D14*
%TO.P,R20,1*%
%TO.N,Net-(C11-Pad1)*%
X190564000Y-78994000D03*
%TO.P,R20,2*%
%TO.N,Net-(C18-Pad1)*%
X192214000Y-78994000D03*
%TD*%
D13*
%TO.P,TP13,1,1*%
%TO.N,Net-(J3-Pin_1)*%
X192532000Y-74168000D03*
%TD*%
D14*
%TO.P,R11,1*%
%TO.N,Net-(Q1-D)*%
X150305000Y-69850000D03*
%TO.P,R11,2*%
%TO.N,Net-(C5-Pad1)*%
X151955000Y-69850000D03*
%TD*%
D13*
%TO.P,TP3,1,1*%
%TO.N,Net-(U2A-+)*%
X161036000Y-68072000D03*
%TD*%
D12*
%TO.P,R18,1*%
%TO.N,Net-(C11-Pad2)*%
X182181000Y-83820000D03*
%TO.P,R18,2*%
%TO.N,Net-(U2B-+)*%
X180531000Y-83820000D03*
%TD*%
D31*
%TO.P,C17,1*%
%TO.N,+2.5V*%
X149892000Y-113782000D03*
%TO.P,C17,2*%
%TO.N,GND*%
X149892000Y-106382000D03*
%TD*%
D25*
%TO.P,C7,1*%
%TO.N,GND*%
X167793500Y-84328000D03*
%TO.P,C7,2*%
%TO.N,-2.5V*%
X169518500Y-84328000D03*
%TD*%
%TO.P,C12,1*%
%TO.N,Net-(C11-Pad2)*%
X184557500Y-74168000D03*
%TO.P,C12,2*%
%TO.N,Net-(U2B--)*%
X186282500Y-74168000D03*
%TD*%
D17*
%TO.P,R16,1*%
%TO.N,VBAT*%
X160052000Y-110527000D03*
%TO.P,R16,2*%
%TO.N,+2.5V*%
X160052000Y-112177000D03*
%TD*%
D31*
%TO.P,C16,1*%
%TO.N,GND*%
X159512000Y-104792000D03*
%TO.P,C16,2*%
%TO.N,-2.5V*%
X159512000Y-97392000D03*
%TD*%
D14*
%TO.P,R14,1*%
%TO.N,GND*%
X159703000Y-80264000D03*
%TO.P,R14,2*%
%TO.N,Net-(U2A--)*%
X161353000Y-80264000D03*
%TD*%
D19*
%TO.P,C18,1*%
%TO.N,Net-(C18-Pad1)*%
X195558500Y-79248000D03*
%TO.P,C18,2*%
%TO.N,Net-(J3-Pin_1)*%
X197633500Y-79248000D03*
%TD*%
D17*
%TO.P,R13,1*%
%TO.N,Net-(U2A-+)*%
X159512000Y-71819000D03*
%TO.P,R13,2*%
%TO.N,GND*%
X159512000Y-73469000D03*
%TD*%
D32*
%TO.P,J1,A5,CC1*%
%TO.N,Net-(J1-CC1)*%
X204349500Y-91995000D03*
D33*
%TO.P,J1,A9,VBUS*%
%TO.N,/USB_VCC*%
X204349500Y-89975000D03*
D34*
%TO.P,J1,A12,GND*%
%TO.N,/USB_GND*%
X204349500Y-88745000D03*
D35*
%TO.P,J1,B5,CC2*%
%TO.N,Net-(J1-CC2)*%
X204349500Y-90995000D03*
D36*
%TO.P,J1,B9,VBUS*%
%TO.N,/USB_VCC*%
X204349500Y-93015000D03*
D37*
%TO.P,J1,B12,GND*%
%TO.N,/USB_GND*%
X204349500Y-94245000D03*
D38*
%TO.P,J1,S1,SHIELD*%
X204404500Y-96620000D03*
D39*
X207984500Y-96620000D03*
D38*
X204404500Y-86370000D03*
D39*
X207984500Y-86370000D03*
%TD*%
D13*
%TO.P,TP12,1,1*%
%TO.N,GND*%
X198068000Y-109004000D03*
%TD*%
D25*
%TO.P,C5,1*%
%TO.N,Net-(C5-Pad1)*%
X155093500Y-71628000D03*
%TO.P,C5,2*%
%TO.N,Net-(U2A-+)*%
X156818500Y-71628000D03*
%TD*%
D40*
%TO.P,J3,1,Pin_1*%
%TO.N,Net-(J3-Pin_1)*%
X205650000Y-78765000D03*
%TO.P,J3,2,Pin_2*%
%TO.N,GND*%
X205650000Y-77515000D03*
%TO.P,J3,3,Pin_3*%
X205650000Y-76265000D03*
%TO.P,J3,4,Pin_4*%
%TO.N,Net-(J3-Pin_4)*%
X205650000Y-75015000D03*
D41*
%TO.P,J3,MP*%
%TO.N,N/C*%
X208850000Y-80615000D03*
X208850000Y-73165000D03*
%TD*%
D42*
%TO.P,U2,1*%
%TO.N,Net-(C11-Pad1)*%
X171769000Y-79883000D03*
%TO.P,U2,2,-*%
%TO.N,Net-(U2A--)*%
X171769000Y-81153000D03*
%TO.P,U2,3,+*%
%TO.N,Net-(U2A-+)*%
X171769000Y-82423000D03*
%TO.P,U2,4,V-*%
%TO.N,-2.5V*%
X171769000Y-83693000D03*
%TO.P,U2,5,+*%
%TO.N,Net-(U2B-+)*%
X176719000Y-83693000D03*
%TO.P,U2,6,-*%
%TO.N,Net-(U2B--)*%
X176719000Y-82423000D03*
%TO.P,U2,7*%
%TO.N,Net-(U2B-+)*%
X176719000Y-81153000D03*
%TO.P,U2,8,V+*%
%TO.N,+2.5V*%
X176719000Y-79883000D03*
%TD*%
D17*
%TO.P,R9,1*%
%TO.N,Net-(Q1-S)*%
X148590000Y-76645000D03*
%TO.P,R9,2*%
%TO.N,Net-(C3-Pad1)*%
X148590000Y-78295000D03*
%TD*%
D43*
%TO.P,U3,1,OUT*%
%TO.N,+2.5V*%
X164497000Y-113927000D03*
%TO.P,U3,2,SENSE*%
X165767000Y-113927000D03*
%TO.P,U3,3,GND*%
%TO.N,GND*%
X167037000Y-113927000D03*
%TO.P,U3,4,BYP*%
%TO.N,Net-(U3-BYP)*%
X168307000Y-113927000D03*
%TO.P,U3,5,SHDN_n*%
%TO.N,VBAT*%
X168307000Y-108777000D03*
%TO.P,U3,6,GND*%
%TO.N,GND*%
X167037000Y-108777000D03*
%TO.P,U3,7,GND*%
X165767000Y-108777000D03*
%TO.P,U3,8,IN*%
%TO.N,VBAT*%
X164497000Y-108777000D03*
%TD*%
D44*
%TO.P,U4,1,GND*%
%TO.N,GND*%
X170246000Y-102991500D03*
%TO.P,U4,2,VIN*%
%TO.N,/-VBAT*%
X171196000Y-102991500D03*
%TO.P,U4,3,EN*%
X172146000Y-102991500D03*
%TO.P,U4,4,NC*%
%TO.N,unconnected-(U4-NC-Pad4)*%
X172146000Y-100716500D03*
%TO.P,U4,5,VOUT*%
%TO.N,-2.5V*%
X170246000Y-100716500D03*
%TD*%
D12*
%TO.P,R17,1*%
%TO.N,/-VBAT*%
X174937000Y-97992000D03*
%TO.P,R17,2*%
%TO.N,-2.5V*%
X173287000Y-97992000D03*
%TD*%
D13*
%TO.P,TP1,1,1*%
%TO.N,Net-(Q1-D)*%
X139700000Y-68580000D03*
%TD*%
%TO.P,TP6,1,1*%
%TO.N,/-VBAT*%
X181312000Y-103592000D03*
%TD*%
%TO.P,TP11,1,1*%
%TO.N,GND*%
X162052000Y-87376000D03*
%TD*%
D29*
%TO.P,H2,1,1*%
%TO.N,CGND*%
X204610000Y-118110000D03*
X205312944Y-116412944D03*
X205312944Y-119807056D03*
X207010000Y-115710000D03*
D30*
X207010000Y-118110000D03*
D29*
X207010000Y-120510000D03*
X208707056Y-116412944D03*
X208707056Y-119807056D03*
X209410000Y-118110000D03*
%TD*%
D15*
%TO.P,C13,1*%
%TO.N,Net-(U3-BYP)*%
X168534500Y-116432000D03*
%TO.P,C13,2*%
%TO.N,+2.5V*%
X166809500Y-116432000D03*
%TD*%
D40*
%TO.P,J2,1,Pin_1*%
%TO.N,Net-(J2-Pin_1)*%
X205650000Y-107975000D03*
%TO.P,J2,2,Pin_2*%
%TO.N,GND*%
X205650000Y-106725000D03*
%TO.P,J2,3,Pin_3*%
X205650000Y-105475000D03*
%TO.P,J2,4,Pin_4*%
%TO.N,Net-(J2-Pin_4)*%
X205650000Y-104225000D03*
D41*
%TO.P,J2,MP*%
%TO.N,N/C*%
X208850000Y-109825000D03*
X208850000Y-102375000D03*
%TD*%
D13*
%TO.P,TP10,1,1*%
%TO.N,Net-(U2B-+)*%
X172212000Y-90424000D03*
%TD*%
D45*
%TO.P,R23,1*%
%TO.N,GND*%
X196596000Y-67082000D03*
%TO.P,R23,2*%
%TO.N,CGND*%
X196596000Y-63982000D03*
%TD*%
D46*
%TO.P,R3,1*%
%TO.N,Net-(MK1--)*%
X138792000Y-74952000D03*
%TO.P,R3,2*%
%TO.N,GND*%
X128632000Y-74952000D03*
%TD*%
D14*
%TO.P,R4,1*%
%TO.N,Net-(U1-PROG)*%
X189675000Y-90932000D03*
%TO.P,R4,2*%
%TO.N,/USB_GND*%
X191325000Y-90932000D03*
%TD*%
D29*
%TO.P,H3,1,1*%
%TO.N,CGND*%
X204610000Y-64770000D03*
X205312944Y-63072944D03*
X205312944Y-66467056D03*
X207010000Y-62370000D03*
D30*
X207010000Y-64770000D03*
D29*
X207010000Y-67170000D03*
X208707056Y-63072944D03*
X208707056Y-66467056D03*
X209410000Y-64770000D03*
%TD*%
D27*
%TO.P,SW2,1,A*%
%TO.N,VBAT*%
X187268000Y-110704000D03*
%TO.P,SW2,2,B*%
%TO.N,Net-(J2-Pin_1)*%
X187268000Y-108204000D03*
%TO.P,SW2,3,C*%
%TO.N,Net-(SW1A-A)*%
X187268000Y-105704000D03*
%TO.P,SW2,4,A*%
%TO.N,/-VBAT*%
X189668000Y-110704000D03*
%TO.P,SW2,5,B*%
%TO.N,Net-(J2-Pin_4)*%
X189668000Y-108204000D03*
%TO.P,SW2,6,C*%
%TO.N,Net-(SW1B-C)*%
X189668000Y-105704000D03*
%TD*%
D20*
%TO.P,C10,1*%
%TO.N,GND*%
X175768000Y-104923500D03*
%TO.P,C10,2*%
%TO.N,/-VBAT*%
X175768000Y-102848500D03*
%TD*%
D15*
%TO.P,C21,1*%
%TO.N,Net-(J3-Pin_4)*%
X201522500Y-69148000D03*
%TO.P,C21,2*%
%TO.N,GND*%
X199797500Y-69148000D03*
%TD*%
D20*
%TO.P,C1,1*%
%TO.N,/USB_VCC*%
X196088000Y-96033500D03*
%TO.P,C1,2*%
%TO.N,/USB_GND*%
X196088000Y-93958500D03*
%TD*%
D14*
%TO.P,R21,1*%
%TO.N,Net-(U2B-+)*%
X190564000Y-82296000D03*
%TO.P,R21,2*%
%TO.N,Net-(C18-Pad1)*%
X192214000Y-82296000D03*
%TD*%
D16*
%TO.P,C2,1*%
%TO.N,/USB_VCC*%
X192532000Y-95574500D03*
%TO.P,C2,2*%
%TO.N,/USB_GND*%
X192532000Y-93849500D03*
%TD*%
D47*
%TO.N,/USB_VCC*%
X194183000Y-92964000D03*
X194183000Y-95574500D03*
%TO.N,GND*%
X181813200Y-79197200D03*
X198424800Y-74218800D03*
X204063600Y-106781600D03*
X186232800Y-80314800D03*
X159512000Y-74523600D03*
X157480000Y-111709200D03*
X167037000Y-111379000D03*
X146050000Y-80899000D03*
X204012800Y-77520800D03*
X137160000Y-108204000D03*
X164947600Y-87376000D03*
X143205200Y-108204000D03*
X201066400Y-108966000D03*
X194970400Y-109016800D03*
X177088800Y-104902000D03*
X148590000Y-84074000D03*
X166370000Y-84328000D03*
X159156400Y-87426800D03*
X198374000Y-71678800D03*
X167944800Y-102870000D03*
X182626000Y-96393000D03*
X159512000Y-107594400D03*
X158800800Y-80314800D03*
X176911000Y-90932000D03*
X149860000Y-103530400D03*
X196646800Y-68224400D03*
X170281600Y-104343200D03*
X198374000Y-69138800D03*
X204063600Y-105511600D03*
X201168000Y-76454000D03*
X204012800Y-76250800D03*
%TO.N,+2.5V*%
X177952400Y-78384400D03*
X162560000Y-106070400D03*
X162560000Y-95808800D03*
X177952400Y-72796400D03*
%TO.N,VBAT*%
X155905200Y-73152000D03*
X155905200Y-68834000D03*
%TD*%
D48*
%TO.N,/USB_VCC*%
X205418000Y-89975000D02*
X204349500Y-89975000D01*
X195812500Y-96033500D02*
X195353500Y-95574500D01*
X204349500Y-93015000D02*
X205435000Y-93015000D01*
X195900000Y-96221500D02*
X196088000Y-96033500D01*
X189605500Y-95662000D02*
X192444500Y-95662000D01*
X195353500Y-95574500D02*
X194183000Y-95574500D01*
X203149000Y-93015000D02*
X204349500Y-93015000D01*
X195900000Y-101216000D02*
X195900000Y-96221500D01*
X194183000Y-91948000D02*
X194183000Y-92964000D01*
X205435000Y-93015000D02*
X205740000Y-92710000D01*
X188595000Y-86360000D02*
X192405000Y-90170000D01*
X205740000Y-92710000D02*
X205740000Y-90297000D01*
X187789000Y-86360000D02*
X188595000Y-86360000D01*
X205740000Y-90297000D02*
X205418000Y-89975000D01*
X196088000Y-96033500D02*
X200130500Y-96033500D01*
X194183000Y-95574500D02*
X192532000Y-95574500D01*
X192405000Y-90170000D02*
X194183000Y-91948000D01*
X196088000Y-96033500D02*
X195812500Y-96033500D01*
X200130500Y-96033500D02*
X203149000Y-93015000D01*
X192444500Y-95662000D02*
X192532000Y-95574500D01*
%TO.N,/USB_GND*%
X192532000Y-93849500D02*
X195979000Y-93849500D01*
D49*
X207984500Y-96620000D02*
X204404500Y-96620000D01*
D48*
X187330500Y-94712000D02*
X191669500Y-94712000D01*
X199601000Y-90896000D02*
X201752000Y-88745000D01*
X180086000Y-92329000D02*
X178943000Y-93472000D01*
X204404500Y-88690000D02*
X204349500Y-88745000D01*
X197372500Y-92674000D02*
X196088000Y-93958500D01*
X199601000Y-90889000D02*
X199601000Y-90896000D01*
X191325000Y-92642500D02*
X192532000Y-93849500D01*
X198374000Y-89662000D02*
X199601000Y-90889000D01*
X204404500Y-94300000D02*
X204349500Y-94245000D01*
X199601000Y-92674000D02*
X197372500Y-92674000D01*
X182824500Y-92329000D02*
X180086000Y-92329000D01*
X191325000Y-90932000D02*
X191325000Y-92642500D01*
X195072000Y-87376000D02*
X196469000Y-88773000D01*
X205602000Y-94245000D02*
X204349500Y-94245000D01*
X204349500Y-88745000D02*
X205585000Y-88745000D01*
X199601000Y-90896000D02*
X199601000Y-92674000D01*
D49*
X204404500Y-96620000D02*
X204404500Y-94300000D01*
D48*
X206375000Y-93472000D02*
X205602000Y-94245000D01*
X191669500Y-94712000D02*
X192532000Y-93849500D01*
X197993000Y-89662000D02*
X198374000Y-89662000D01*
X184424000Y-93928500D02*
X182824500Y-92329000D01*
D49*
X207984500Y-86370000D02*
X204404500Y-86370000D01*
D48*
X184424000Y-93928500D02*
X185207500Y-94712000D01*
X195979000Y-93849500D02*
X196088000Y-93958500D01*
X206375000Y-89535000D02*
X206375000Y-93472000D01*
X205585000Y-88745000D02*
X206375000Y-89535000D01*
D49*
X204404500Y-86370000D02*
X204404500Y-88690000D01*
D48*
X196469000Y-88773000D02*
X197104000Y-88773000D01*
X185207500Y-94712000D02*
X187330500Y-94712000D01*
X178943000Y-93472000D02*
X178600000Y-93472000D01*
X197104000Y-88773000D02*
X197993000Y-89662000D01*
X201752000Y-88745000D02*
X204349500Y-88745000D01*
%TO.N,Net-(C3-Pad1)*%
X148590000Y-78295000D02*
X148590000Y-80925500D01*
D49*
%TO.N,GND*%
X159512000Y-104792000D02*
X159512000Y-107594400D01*
D48*
X201168000Y-77407000D02*
X201168000Y-76454000D01*
X181762400Y-79248000D02*
X181813200Y-79197200D01*
X186245000Y-79248000D02*
X186245000Y-80302600D01*
D49*
X205650000Y-76265000D02*
X204027000Y-76265000D01*
D48*
X149892000Y-103562400D02*
X149860000Y-103530400D01*
D49*
X201028400Y-109004000D02*
X201066400Y-108966000D01*
X205650000Y-77515000D02*
X204018600Y-77515000D01*
D48*
X176951000Y-90972000D02*
X176911000Y-90932000D01*
D49*
X162052000Y-87376000D02*
X164947600Y-87376000D01*
D48*
X196596000Y-68173600D02*
X196646800Y-68224400D01*
X177067300Y-104923500D02*
X177088800Y-104902000D01*
X146050000Y-79565000D02*
X146050000Y-80899000D01*
X148590000Y-82650500D02*
X148590000Y-84074000D01*
D49*
X198068000Y-109004000D02*
X201028400Y-109004000D01*
D48*
X198475600Y-74218800D02*
X198526400Y-74168000D01*
D49*
X205650000Y-106725000D02*
X204120200Y-106725000D01*
X140208000Y-108204000D02*
X143205200Y-108204000D01*
X162052000Y-87376000D02*
X159207200Y-87376000D01*
D48*
X175768000Y-104923500D02*
X177067300Y-104923500D01*
D49*
X167037000Y-106415500D02*
X167153500Y-106299000D01*
D48*
X157512000Y-111741200D02*
X157480000Y-111709200D01*
D49*
X178600000Y-90972000D02*
X176951000Y-90972000D01*
D48*
X204018600Y-77515000D02*
X204012800Y-77520800D01*
X166624000Y-102891500D02*
X167923300Y-102891500D01*
X204027000Y-76265000D02*
X204012800Y-76250800D01*
X158851600Y-80264000D02*
X158800800Y-80314800D01*
X199797500Y-69148000D02*
X198383200Y-69148000D01*
D49*
X198068000Y-109004000D02*
X194983200Y-109004000D01*
D48*
X159703000Y-80264000D02*
X158851600Y-80264000D01*
X198424800Y-74218800D02*
X198475600Y-74218800D01*
D49*
X194983200Y-109004000D02*
X194970400Y-109016800D01*
X159207200Y-87376000D02*
X159156400Y-87426800D01*
D48*
X198526400Y-74168000D02*
X199797500Y-74168000D01*
D49*
X196596000Y-67082000D02*
X196596000Y-68173600D01*
D48*
X199797500Y-71658000D02*
X198394800Y-71658000D01*
X186245000Y-80302600D02*
X186232800Y-80314800D01*
X204120200Y-106725000D02*
X204063600Y-106781600D01*
D49*
X140208000Y-108204000D02*
X137160000Y-108204000D01*
D48*
X157512000Y-112854500D02*
X157512000Y-111741200D01*
X198383200Y-69148000D02*
X198374000Y-69138800D01*
D49*
X205650000Y-105475000D02*
X204100200Y-105475000D01*
D48*
X165767000Y-108777000D02*
X167037000Y-108777000D01*
X170246000Y-102991500D02*
X170246000Y-104307600D01*
X198394800Y-71658000D02*
X198374000Y-71678800D01*
X167793500Y-84328000D02*
X166370000Y-84328000D01*
D49*
X182205000Y-95972000D02*
X182626000Y-96393000D01*
D48*
X170246000Y-104307600D02*
X170281600Y-104343200D01*
X159512000Y-73469000D02*
X159512000Y-74523600D01*
X167923300Y-102891500D02*
X167944800Y-102870000D01*
D49*
X149892000Y-106382000D02*
X149892000Y-103562400D01*
X167037000Y-108777000D02*
X167037000Y-106415500D01*
D48*
X167037000Y-113927000D02*
X167037000Y-108777000D01*
D49*
X181000000Y-95972000D02*
X182205000Y-95972000D01*
D48*
X180694500Y-79248000D02*
X181762400Y-79248000D01*
X204100200Y-105475000D02*
X204063600Y-105511600D01*
%TO.N,/CHARGE*%
X181000000Y-93472000D02*
X181229000Y-93472000D01*
X182499000Y-94742000D02*
X183007000Y-94742000D01*
X184268500Y-96003500D02*
X184424000Y-96003500D01*
X187330500Y-95662000D02*
X184765500Y-95662000D01*
X181229000Y-93472000D02*
X182499000Y-94742000D01*
X184765500Y-95662000D02*
X184424000Y-96003500D01*
X183007000Y-94742000D02*
X184268500Y-96003500D01*
%TO.N,Net-(U2A-+)*%
X157734000Y-73660000D02*
X156818500Y-72744500D01*
X161036000Y-68072000D02*
X161036000Y-70295000D01*
X156818500Y-71628000D02*
X159321000Y-71628000D01*
X159131000Y-82423000D02*
X157734000Y-81026000D01*
X159321000Y-71628000D02*
X159512000Y-71819000D01*
X171769000Y-82423000D02*
X159131000Y-82423000D01*
X161036000Y-70295000D02*
X159512000Y-71819000D01*
X157734000Y-81026000D02*
X157734000Y-73660000D01*
X156818500Y-72744500D02*
X156818500Y-71628000D01*
%TO.N,Net-(C5-Pad1)*%
X153061500Y-73660000D02*
X155093500Y-71628000D01*
X151955000Y-69850000D02*
X153315500Y-69850000D01*
X151955000Y-73660000D02*
X153061500Y-73660000D01*
X153315500Y-69850000D02*
X155093500Y-71628000D01*
%TO.N,+2.5V*%
X162560000Y-94945200D02*
X162560000Y-95808800D01*
X159512000Y-109118400D02*
X153619200Y-109118400D01*
X176719000Y-79883000D02*
X175437800Y-79883000D01*
X178969500Y-79248000D02*
X178816000Y-79248000D01*
X165767000Y-113927000D02*
X165767000Y-115389500D01*
X162949000Y-113927000D02*
X161199000Y-112177000D01*
X165767000Y-115389500D02*
X166809500Y-116432000D01*
X165767000Y-113927000D02*
X164497000Y-113927000D01*
X177850800Y-70053200D02*
X177952400Y-70154800D01*
X178816000Y-79248000D02*
X177952400Y-78384400D01*
X177952400Y-70154800D02*
X177952400Y-72796400D01*
X178334500Y-79883000D02*
X178969500Y-79248000D01*
X164185600Y-65481200D02*
X173278800Y-65481200D01*
X174244000Y-81076800D02*
X174040800Y-81280000D01*
X149892000Y-112845600D02*
X149892000Y-113782000D01*
X162560000Y-106070400D02*
X159512000Y-109118400D01*
D50*
X140208000Y-114554000D02*
X149120000Y-114554000D01*
D48*
X144780000Y-67755000D02*
X147053800Y-65481200D01*
D49*
X163962500Y-114929500D02*
X164497000Y-114395000D01*
D48*
X164497000Y-114395000D02*
X164497000Y-113927000D01*
X174040800Y-81280000D02*
X174040800Y-83464400D01*
X174040800Y-83464400D02*
X168757600Y-88747600D01*
X147053800Y-65481200D02*
X164185600Y-65481200D01*
X164497000Y-113927000D02*
X162949000Y-113927000D01*
X175437800Y-79883000D02*
X174244000Y-81076800D01*
X176719000Y-79883000D02*
X178334500Y-79883000D01*
X168757600Y-88747600D02*
X162560000Y-94945200D01*
D50*
X149120000Y-114554000D02*
X149892000Y-113782000D01*
X157512000Y-114929500D02*
X151039500Y-114929500D01*
X151039500Y-114929500D02*
X149892000Y-113782000D01*
D49*
X157512000Y-114929500D02*
X163962500Y-114929500D01*
D48*
X173278800Y-65481200D02*
X177850800Y-70053200D01*
X161199000Y-112177000D02*
X160052000Y-112177000D01*
X153619200Y-109118400D02*
X149892000Y-112845600D01*
%TO.N,-2.5V*%
X170153500Y-83693000D02*
X169518500Y-84328000D01*
X159512000Y-98425000D02*
X159512000Y-97392000D01*
D49*
X168248000Y-96112000D02*
X170246000Y-98110000D01*
D48*
X170246000Y-100716500D02*
X170246000Y-100391000D01*
X171769000Y-83693000D02*
X170153500Y-83693000D01*
X169518500Y-86462700D02*
X169518500Y-84328000D01*
D50*
X161903500Y-100816500D02*
X159512000Y-98425000D01*
D48*
X159512000Y-97392000D02*
X159512000Y-96469200D01*
D50*
X166624000Y-100816500D02*
X161903500Y-100816500D01*
D48*
X172645000Y-97992000D02*
X173287000Y-97992000D01*
X170146000Y-100816500D02*
X170246000Y-100716500D01*
D49*
X170246000Y-100716500D02*
X170246000Y-99883000D01*
D48*
X167672000Y-96112000D02*
X168248000Y-96112000D01*
X170246000Y-100391000D02*
X172645000Y-97992000D01*
X159512000Y-96469200D02*
X169518500Y-86462700D01*
D49*
X166624000Y-100816500D02*
X170146000Y-100816500D01*
X170246000Y-98110000D02*
X170246000Y-99883000D01*
D48*
%TO.N,Net-(U2A--)*%
X162560000Y-77570500D02*
X165444500Y-77570500D01*
X162560000Y-77570500D02*
X162560000Y-79057000D01*
X162560000Y-79057000D02*
X161353000Y-80264000D01*
X165444500Y-77570500D02*
X167132000Y-79258000D01*
X171769000Y-81153000D02*
X169027000Y-81153000D01*
X169027000Y-81153000D02*
X167132000Y-79258000D01*
%TO.N,Net-(C11-Pad1)*%
X162560000Y-75845500D02*
X164294500Y-75845500D01*
X169164000Y-78740000D02*
X169164000Y-77597000D01*
X171769000Y-79883000D02*
X173355000Y-79883000D01*
X179959000Y-71755000D02*
X179477500Y-72236500D01*
X170307000Y-79883000D02*
X169164000Y-78740000D01*
X165982000Y-74415000D02*
X165982000Y-74158000D01*
X171769000Y-79883000D02*
X170307000Y-79883000D01*
X179477500Y-74168000D02*
X174244000Y-74168000D01*
X164294500Y-75845500D02*
X165982000Y-74158000D01*
X187706000Y-71755000D02*
X179959000Y-71755000D01*
X189103000Y-73152000D02*
X187706000Y-71755000D01*
X190564000Y-78994000D02*
X190564000Y-78931000D01*
X174244000Y-78994000D02*
X174244000Y-74168000D01*
X173355000Y-79883000D02*
X174244000Y-78994000D01*
X190564000Y-78931000D02*
X189103000Y-77470000D01*
X179477500Y-72236500D02*
X179477500Y-74168000D01*
X169164000Y-77597000D02*
X165982000Y-74415000D01*
X189103000Y-77470000D02*
X189103000Y-73152000D01*
D49*
%TO.N,VBAT*%
X168656000Y-104775000D02*
X165735000Y-104775000D01*
D48*
X161188400Y-101549200D02*
X162052000Y-102412800D01*
X156921200Y-74168000D02*
X156921200Y-99872800D01*
X180372000Y-110082000D02*
X179678000Y-110082000D01*
X169734000Y-108777000D02*
X171196000Y-107315000D01*
X154826200Y-67755000D02*
X155905200Y-68834000D01*
X160052000Y-110527000D02*
X164174000Y-110527000D01*
X180994000Y-110704000D02*
X180372000Y-110082000D01*
X179334500Y-109044500D02*
X180372000Y-110082000D01*
D49*
X171196000Y-107315000D02*
X168656000Y-104775000D01*
D48*
X164497000Y-110204000D02*
X164497000Y-108777000D01*
X165078500Y-106201300D02*
X165078500Y-106299000D01*
D49*
X187268000Y-110704000D02*
X180994000Y-110704000D01*
X176911000Y-107315000D02*
X171196000Y-107315000D01*
D48*
X162052000Y-102412800D02*
X162052000Y-103174800D01*
X158597600Y-101549200D02*
X161188400Y-101549200D01*
X162052000Y-103174800D02*
X165078500Y-106201300D01*
X164174000Y-110527000D02*
X164497000Y-110204000D01*
X156921200Y-99872800D02*
X158597600Y-101549200D01*
D49*
X164497000Y-108777000D02*
X164497000Y-106880500D01*
X165735000Y-104775000D02*
X165078500Y-105431500D01*
X179678000Y-110082000D02*
X176911000Y-107315000D01*
D48*
X168307000Y-108777000D02*
X169734000Y-108777000D01*
X147828000Y-67755000D02*
X154826200Y-67755000D01*
D49*
X165078500Y-105431500D02*
X165078500Y-106299000D01*
X164497000Y-106880500D02*
X165078500Y-106299000D01*
D48*
X155905200Y-73152000D02*
X156921200Y-74168000D01*
D49*
%TO.N,/-VBAT*%
X175916500Y-102848500D02*
X176660000Y-103592000D01*
X184658000Y-106299000D02*
X184658000Y-107848400D01*
D48*
X189668000Y-110704000D02*
X189628000Y-110744000D01*
X189628000Y-110744000D02*
X189484000Y-110744000D01*
D49*
X176660000Y-103592000D02*
X181312000Y-103592000D01*
X186283600Y-109474000D02*
X187452000Y-109474000D01*
D51*
X188442600Y-109829600D02*
X189317000Y-110704000D01*
X187807600Y-109829600D02*
X187452000Y-109474000D01*
D49*
X175768000Y-102848500D02*
X172289000Y-102848500D01*
X184658000Y-107848400D02*
X186283600Y-109474000D01*
D48*
X175768000Y-102848500D02*
X175916500Y-102848500D01*
X181312000Y-103592000D02*
X181951000Y-103592000D01*
X172289000Y-102848500D02*
X172146000Y-102991500D01*
D49*
X181951000Y-103592000D02*
X184658000Y-106299000D01*
D48*
X175768000Y-102848500D02*
X175768000Y-98823000D01*
X189317000Y-110704000D02*
X189668000Y-110704000D01*
X175768000Y-98823000D02*
X174937000Y-97992000D01*
D51*
X188442600Y-109829600D02*
X187807600Y-109829600D01*
D48*
X171196000Y-102991500D02*
X172146000Y-102991500D01*
%TO.N,Net-(C11-Pad2)*%
X187833000Y-73406000D02*
X187071000Y-72644000D01*
X184557500Y-74168000D02*
X181202500Y-74168000D01*
X187071000Y-72644000D02*
X185039000Y-72644000D01*
X182181000Y-83820000D02*
X185166000Y-83820000D01*
X185166000Y-83820000D02*
X187833000Y-81153000D01*
X185039000Y-72644000D02*
X184557500Y-73125500D01*
X184557500Y-73125500D02*
X184557500Y-74168000D01*
X187833000Y-81153000D02*
X187833000Y-73406000D01*
%TO.N,Net-(U2B--)*%
X181420000Y-82423000D02*
X184595000Y-79248000D01*
X176719000Y-82423000D02*
X181420000Y-82423000D01*
X186282500Y-77560500D02*
X184595000Y-79248000D01*
X186282500Y-74168000D02*
X186282500Y-77560500D01*
%TO.N,Net-(U3-BYP)*%
X168307000Y-116204500D02*
X168534500Y-116432000D01*
X168307000Y-113927000D02*
X168307000Y-116204500D01*
%TO.N,Net-(C18-Pad1)*%
X192214000Y-78994000D02*
X192214000Y-82296000D01*
X195558500Y-79248000D02*
X192468000Y-79248000D01*
X192468000Y-79248000D02*
X192214000Y-78994000D01*
%TO.N,Net-(J3-Pin_1)*%
X201168000Y-79057000D02*
X197824500Y-79057000D01*
X192532000Y-74168000D02*
X195961000Y-74168000D01*
X197633500Y-75840500D02*
X197633500Y-79248000D01*
X197824500Y-79057000D02*
X197633500Y-79248000D01*
X195961000Y-74168000D02*
X197633500Y-75840500D01*
X201460000Y-78765000D02*
X201168000Y-79057000D01*
X205650000Y-78765000D02*
X201460000Y-78765000D01*
%TO.N,Net-(J3-Pin_4)*%
X205650000Y-75015000D02*
X202369500Y-75015000D01*
X201522500Y-74168000D02*
X201522500Y-69148000D01*
X202369500Y-75015000D02*
X201522500Y-74168000D01*
%TO.N,Net-(D1-A)*%
X186202000Y-86423000D02*
X186139000Y-86360000D01*
X186202000Y-88533000D02*
X186202000Y-86423000D01*
%TO.N,Net-(D1-K)*%
X186853000Y-93762000D02*
X186202000Y-93111000D01*
X187330500Y-93762000D02*
X186853000Y-93762000D01*
X186202000Y-93111000D02*
X186202000Y-90283000D01*
%TO.N,Net-(J1-CC2)*%
X201350000Y-90995000D02*
X201251000Y-90896000D01*
X204349500Y-90995000D02*
X201350000Y-90995000D01*
%TO.N,Net-(J1-CC1)*%
X201930000Y-91995000D02*
X201251000Y-92674000D01*
X204349500Y-91995000D02*
X201930000Y-91995000D01*
%TO.N,Net-(MK1--)*%
X138792000Y-74952000D02*
X141310500Y-74952000D01*
X141310500Y-74952000D02*
X141362500Y-74900000D01*
X133458000Y-90778000D02*
X138792000Y-85444000D01*
X138792000Y-85444000D02*
X138792000Y-74952000D01*
%TO.N,Net-(Q1-D)*%
X142875000Y-71120000D02*
X140335000Y-68580000D01*
X146050000Y-73215000D02*
X146241000Y-73215000D01*
X143237500Y-73950000D02*
X145315000Y-73950000D01*
X146241000Y-73215000D02*
X149606000Y-69850000D01*
X146050000Y-73215000D02*
X145986000Y-73215000D01*
X140335000Y-68580000D02*
X139700000Y-68580000D01*
X145986000Y-73215000D02*
X143891000Y-71120000D01*
X145315000Y-73950000D02*
X146050000Y-73215000D01*
X143891000Y-71120000D02*
X142875000Y-71120000D01*
X149606000Y-69850000D02*
X150305000Y-69850000D01*
%TO.N,Net-(Q1-S)*%
X143237500Y-75850000D02*
X143985000Y-75850000D01*
X151130000Y-76835000D02*
X151130000Y-75755000D01*
X151130000Y-75755000D02*
X150305000Y-74930000D01*
X143985000Y-75850000D02*
X146050000Y-77915000D01*
X153670000Y-78740000D02*
X153035000Y-78740000D01*
X153035000Y-78740000D02*
X151130000Y-76835000D01*
X150305000Y-73660000D02*
X150305000Y-74930000D01*
X147320000Y-76645000D02*
X146050000Y-77915000D01*
X148590000Y-76645000D02*
X147320000Y-76645000D01*
X150305000Y-74930000D02*
X148590000Y-76645000D01*
%TO.N,Net-(U1-PROG)*%
X190373000Y-92583000D02*
X189675000Y-91885000D01*
X189956000Y-93762000D02*
X190373000Y-93345000D01*
X189675000Y-91885000D02*
X189675000Y-90932000D01*
X190373000Y-93345000D02*
X190373000Y-92583000D01*
X189605500Y-93762000D02*
X189956000Y-93762000D01*
%TO.N,Net-(R5-Pad1)*%
X144780000Y-69405000D02*
X144780000Y-70295000D01*
X147828000Y-69787000D02*
X146050000Y-71565000D01*
X147828000Y-69405000D02*
X147828000Y-69787000D01*
X144780000Y-70295000D02*
X146050000Y-71565000D01*
%TO.N,Net-(U2B-+)*%
X176719000Y-83693000D02*
X180404000Y-83693000D01*
X176719000Y-83693000D02*
X175514000Y-83693000D01*
X187833000Y-85090000D02*
X190564000Y-82359000D01*
X190564000Y-82359000D02*
X190564000Y-82296000D01*
X180531000Y-83820000D02*
X178499000Y-85852000D01*
X180531000Y-83820000D02*
X181801000Y-85090000D01*
X175006000Y-83185000D02*
X175006000Y-81661000D01*
X178499000Y-85852000D02*
X177419000Y-85852000D01*
X175514000Y-81153000D02*
X176719000Y-81153000D01*
X172847000Y-90424000D02*
X172212000Y-90424000D01*
X175006000Y-81661000D02*
X175514000Y-81153000D01*
X175514000Y-83693000D02*
X175006000Y-83185000D01*
X177419000Y-85852000D02*
X172847000Y-90424000D01*
X180404000Y-83693000D02*
X180531000Y-83820000D01*
X181801000Y-85090000D02*
X187833000Y-85090000D01*
D49*
%TO.N,Net-(J2-Pin_1)*%
X189230000Y-109423200D02*
X190830200Y-109423200D01*
D51*
X188925200Y-109118400D02*
X189230000Y-109423200D01*
D49*
X190830200Y-109423200D02*
X193040000Y-111633000D01*
D51*
X188493400Y-109118400D02*
X188925200Y-109118400D01*
D49*
X200914000Y-111633000D02*
X204572000Y-107975000D01*
D51*
X187579000Y-108204000D02*
X188493400Y-109118400D01*
D49*
X193040000Y-111633000D02*
X200914000Y-111633000D01*
X204572000Y-107975000D02*
X205650000Y-107975000D01*
D48*
X187268000Y-108204000D02*
X187579000Y-108204000D01*
D49*
%TO.N,Net-(J2-Pin_4)*%
X192024000Y-108204000D02*
X196003000Y-104225000D01*
X189668000Y-108204000D02*
X192024000Y-108204000D01*
X196003000Y-104225000D02*
X205650000Y-104225000D01*
D48*
%TO.N,Net-(SW1A-A)*%
X180960000Y-90932000D02*
X180721000Y-90932000D01*
D49*
X187268000Y-102051000D02*
X187268000Y-105704000D01*
X175869600Y-95605600D02*
X179451000Y-99187000D01*
X179146200Y-89357200D02*
X176961800Y-89357200D01*
X184404000Y-99187000D02*
X187268000Y-102051000D01*
X176961800Y-89357200D02*
X175869600Y-90449400D01*
X175869600Y-90449400D02*
X175869600Y-95605600D01*
X179451000Y-99187000D02*
X184404000Y-99187000D01*
D48*
X181000000Y-90972000D02*
X180960000Y-90932000D01*
D49*
X180721000Y-90932000D02*
X179146200Y-89357200D01*
%TO.N,Net-(SW1B-C)*%
X185420000Y-98298000D02*
X189668000Y-102546000D01*
X178903000Y-95972000D02*
X181229000Y-98298000D01*
X178600000Y-95972000D02*
X178903000Y-95972000D01*
X181229000Y-98298000D02*
X185420000Y-98298000D01*
X189668000Y-102546000D02*
X189668000Y-105704000D01*
%TD*%
%TA.AperFunction,Conductor*%
%TO.N,CGND*%
G36*
X208283471Y-60960695D02*
G01*
X208300477Y-60961650D01*
X208533772Y-60974751D01*
X208541700Y-60975454D01*
X208597220Y-60982195D01*
X208603006Y-60983038D01*
X208821284Y-61020125D01*
X208830124Y-61021963D01*
X208878416Y-61033866D01*
X208882958Y-61035079D01*
X209102542Y-61098340D01*
X209112149Y-61101540D01*
X209132692Y-61109331D01*
X209146555Y-61114589D01*
X209150021Y-61115963D01*
X209373563Y-61208558D01*
X209383723Y-61213317D01*
X209392957Y-61218163D01*
X209395280Y-61219414D01*
X209492221Y-61272991D01*
X209624999Y-61346375D01*
X209636773Y-61353773D01*
X209857671Y-61510508D01*
X209868543Y-61519178D01*
X210070505Y-61699661D01*
X210080338Y-61709494D01*
X210260821Y-61911456D01*
X210269491Y-61922328D01*
X210426226Y-62143226D01*
X210433624Y-62155000D01*
X210560565Y-62384682D01*
X210561835Y-62387041D01*
X210566681Y-62396275D01*
X210571444Y-62406444D01*
X210664029Y-62629963D01*
X210665409Y-62633443D01*
X210678454Y-62667838D01*
X210681667Y-62677484D01*
X210744905Y-62896991D01*
X210746148Y-62901642D01*
X210758027Y-62949836D01*
X210759878Y-62958742D01*
X210796958Y-63176983D01*
X210797806Y-63182805D01*
X210804540Y-63238260D01*
X210805249Y-63246255D01*
X210819305Y-63496527D01*
X210819500Y-63503480D01*
X210819500Y-72442611D01*
X210799815Y-72509650D01*
X210747011Y-72555405D01*
X210677853Y-72565349D01*
X210614297Y-72536324D01*
X210589962Y-72507708D01*
X210549032Y-72441351D01*
X210549029Y-72441347D01*
X210423653Y-72315971D01*
X210423652Y-72315970D01*
X210272738Y-72222885D01*
X210225693Y-72207296D01*
X210104427Y-72167113D01*
X210000545Y-72156500D01*
X207699462Y-72156500D01*
X207699446Y-72156501D01*
X207595572Y-72167113D01*
X207427264Y-72222884D01*
X207427259Y-72222886D01*
X207276346Y-72315971D01*
X207221681Y-72370637D01*
X207160358Y-72404122D01*
X207090666Y-72399138D01*
X207034733Y-72357266D01*
X207010316Y-72291802D01*
X207010000Y-72282956D01*
X207010000Y-64769999D01*
X198053604Y-64772043D01*
X197986560Y-64752374D01*
X197940793Y-64699580D01*
X197930834Y-64630424D01*
X197935870Y-64609038D01*
X197960505Y-64534694D01*
X197960506Y-64534690D01*
X197970999Y-64431986D01*
X197971000Y-64431973D01*
X197971000Y-64232000D01*
X195221001Y-64232000D01*
X195221001Y-64431986D01*
X195231494Y-64534697D01*
X195256349Y-64609704D01*
X195258751Y-64679532D01*
X195223019Y-64739574D01*
X195160499Y-64770767D01*
X195138671Y-64772708D01*
X193407993Y-64773103D01*
X193383782Y-64766000D01*
X187627312Y-64766000D01*
X187617057Y-64771599D01*
X187590734Y-64774431D01*
X123190000Y-64789130D01*
X123190000Y-118110000D01*
X207010000Y-118110000D01*
X207010000Y-110707044D01*
X207029685Y-110640005D01*
X207082489Y-110594250D01*
X207151647Y-110584306D01*
X207215203Y-110613331D01*
X207221681Y-110619363D01*
X207276348Y-110674030D01*
X207427262Y-110767115D01*
X207595574Y-110822887D01*
X207699455Y-110833500D01*
X210000544Y-110833499D01*
X210104426Y-110822887D01*
X210272738Y-110767115D01*
X210423652Y-110674030D01*
X210549030Y-110548652D01*
X210589961Y-110482291D01*
X210641909Y-110435567D01*
X210710871Y-110424344D01*
X210774954Y-110452188D01*
X210813810Y-110510256D01*
X210819500Y-110547388D01*
X210819500Y-119376519D01*
X210819305Y-119383472D01*
X210805249Y-119633743D01*
X210804540Y-119641738D01*
X210797806Y-119697193D01*
X210796958Y-119703015D01*
X210759878Y-119921256D01*
X210758027Y-119930162D01*
X210746148Y-119978356D01*
X210744905Y-119983007D01*
X210681667Y-120202514D01*
X210678454Y-120212160D01*
X210665409Y-120246555D01*
X210664029Y-120250035D01*
X210571444Y-120473554D01*
X210566681Y-120483723D01*
X210561835Y-120492957D01*
X210560565Y-120495316D01*
X210433624Y-120724999D01*
X210426226Y-120736773D01*
X210269491Y-120957671D01*
X210260821Y-120968543D01*
X210080338Y-121170505D01*
X210070505Y-121180338D01*
X209868543Y-121360821D01*
X209857671Y-121369491D01*
X209636773Y-121526226D01*
X209624999Y-121533624D01*
X209395316Y-121660565D01*
X209392957Y-121661835D01*
X209383723Y-121666681D01*
X209373554Y-121671444D01*
X209150035Y-121764029D01*
X209146555Y-121765409D01*
X209112160Y-121778454D01*
X209102514Y-121781667D01*
X208883007Y-121844905D01*
X208878356Y-121846148D01*
X208830162Y-121858027D01*
X208821256Y-121859878D01*
X208603015Y-121896958D01*
X208597193Y-121897806D01*
X208541738Y-121904540D01*
X208533743Y-121905249D01*
X208283472Y-121919305D01*
X208276519Y-121919500D01*
X121923481Y-121919500D01*
X121916528Y-121919305D01*
X121666255Y-121905249D01*
X121658260Y-121904540D01*
X121602805Y-121897806D01*
X121596983Y-121896958D01*
X121378742Y-121859878D01*
X121369836Y-121858027D01*
X121321642Y-121846148D01*
X121316991Y-121844905D01*
X121097484Y-121781667D01*
X121087838Y-121778454D01*
X121053443Y-121765409D01*
X121049963Y-121764029D01*
X120826444Y-121671444D01*
X120816275Y-121666681D01*
X120807041Y-121661835D01*
X120804682Y-121660565D01*
X120575000Y-121533624D01*
X120563226Y-121526226D01*
X120342328Y-121369491D01*
X120331456Y-121360821D01*
X120129494Y-121180338D01*
X120119661Y-121170505D01*
X119939178Y-120968543D01*
X119930508Y-120957671D01*
X119773773Y-120736773D01*
X119766375Y-120724999D01*
X119738535Y-120674627D01*
X119639414Y-120495280D01*
X119638163Y-120492957D01*
X119633317Y-120483723D01*
X119628554Y-120473554D01*
X119535969Y-120250035D01*
X119534589Y-120246555D01*
X119521544Y-120212160D01*
X119518340Y-120202542D01*
X119455079Y-119982958D01*
X119453866Y-119978416D01*
X119441963Y-119930124D01*
X119440125Y-119921284D01*
X119403038Y-119703006D01*
X119402195Y-119697220D01*
X119395454Y-119641700D01*
X119394751Y-119633772D01*
X119380695Y-119383471D01*
X119380500Y-119376519D01*
X119380500Y-63503480D01*
X119380695Y-63496528D01*
X119388512Y-63357329D01*
X119394751Y-63246222D01*
X119395454Y-63238304D01*
X119402197Y-63182767D01*
X119403036Y-63177005D01*
X119440127Y-62958704D01*
X119441960Y-62949886D01*
X119453872Y-62901557D01*
X119455072Y-62897067D01*
X119496388Y-62753655D01*
X187650500Y-62753655D01*
X187650500Y-64266000D01*
X190250000Y-64266000D01*
X190750000Y-64266000D01*
X193349500Y-64266000D01*
X193349500Y-63532013D01*
X195221000Y-63532013D01*
X195221000Y-63732000D01*
X196346000Y-63732000D01*
X196846000Y-63732000D01*
X197970999Y-63732000D01*
X197970999Y-63532028D01*
X197970998Y-63532013D01*
X197960505Y-63429302D01*
X197905358Y-63262880D01*
X197905356Y-63262875D01*
X197813315Y-63113654D01*
X197689345Y-62989684D01*
X197540124Y-62897643D01*
X197540119Y-62897641D01*
X197373697Y-62842494D01*
X197373690Y-62842493D01*
X197270986Y-62832000D01*
X196846000Y-62832000D01*
X196846000Y-63732000D01*
X196346000Y-63732000D01*
X196346000Y-62832000D01*
X195921028Y-62832000D01*
X195921012Y-62832001D01*
X195818302Y-62842494D01*
X195651880Y-62897641D01*
X195651875Y-62897643D01*
X195502654Y-62989684D01*
X195378684Y-63113654D01*
X195286643Y-63262875D01*
X195286641Y-63262880D01*
X195231494Y-63429302D01*
X195231493Y-63429309D01*
X195221000Y-63532013D01*
X193349500Y-63532013D01*
X193349500Y-62753672D01*
X193349499Y-62753655D01*
X193343098Y-62694127D01*
X193343096Y-62694120D01*
X193292854Y-62559413D01*
X193292850Y-62559406D01*
X193206690Y-62444312D01*
X193206687Y-62444309D01*
X193091593Y-62358149D01*
X193091586Y-62358145D01*
X192956879Y-62307903D01*
X192956872Y-62307901D01*
X192897344Y-62301500D01*
X190750000Y-62301500D01*
X190750000Y-64266000D01*
X190250000Y-64266000D01*
X190250000Y-62301500D01*
X188102655Y-62301500D01*
X188043127Y-62307901D01*
X188043120Y-62307903D01*
X187908413Y-62358145D01*
X187908406Y-62358149D01*
X187793312Y-62444309D01*
X187793309Y-62444312D01*
X187707149Y-62559406D01*
X187707145Y-62559413D01*
X187656903Y-62694120D01*
X187656901Y-62694127D01*
X187650500Y-62753655D01*
X119496388Y-62753655D01*
X119518344Y-62677443D01*
X119521535Y-62667864D01*
X119534599Y-62633417D01*
X119535944Y-62630024D01*
X119628565Y-62406419D01*
X119633312Y-62396285D01*
X119638200Y-62386971D01*
X119639388Y-62384765D01*
X119766376Y-62154999D01*
X119773773Y-62143226D01*
X119855836Y-62027569D01*
X119930515Y-61922318D01*
X119939171Y-61911464D01*
X120119671Y-61709483D01*
X120129483Y-61699671D01*
X120331464Y-61519171D01*
X120342318Y-61510515D01*
X120563231Y-61353769D01*
X120574999Y-61346376D01*
X120581909Y-61342556D01*
X120804765Y-61219388D01*
X120806971Y-61218200D01*
X120816285Y-61213312D01*
X120826419Y-61208565D01*
X121050024Y-61115944D01*
X121053417Y-61114599D01*
X121087864Y-61101535D01*
X121097443Y-61098344D01*
X121317067Y-61035072D01*
X121321557Y-61033872D01*
X121369886Y-61021960D01*
X121378704Y-61020127D01*
X121597005Y-60983036D01*
X121602767Y-60982197D01*
X121658304Y-60975454D01*
X121666222Y-60974751D01*
X121901171Y-60961557D01*
X121916529Y-60960695D01*
X121923481Y-60960500D01*
X208276519Y-60960500D01*
X208283471Y-60960695D01*
G37*
%TD.AperFunction*%
%TD*%
M02*
