%TF.GenerationSoftware,KiCad,Pcbnew,7.0.6*%
%TF.CreationDate,2023-08-13T13:31:46-04:00*%
%TF.ProjectId,Microphone_V1,4d696372-6f70-4686-9f6e-655f56312e6b,rev?*%
%TF.SameCoordinates,Original*%
%TF.FileFunction,Copper,L2,Bot*%
%TF.FilePolarity,Positive*%
%FSLAX46Y46*%
G04 Gerber Fmt 4.6, Leading zero omitted, Abs format (unit mm)*
G04 Created by KiCad (PCBNEW 7.0.6) date 2023-08-13 13:31:46*
%MOMM*%
%LPD*%
G01*
G04 APERTURE LIST*
G04 Aperture macros list*
%AMRoundRect*
0 Rectangle with rounded corners*
0 $1 Rounding radius*
0 $2 $3 $4 $5 $6 $7 $8 $9 X,Y pos of 4 corners*
0 Add a 4 corners polygon primitive as box body*
4,1,4,$2,$3,$4,$5,$6,$7,$8,$9,$2,$3,0*
0 Add four circle primitives for the rounded corners*
1,1,$1+$1,$2,$3*
1,1,$1+$1,$4,$5*
1,1,$1+$1,$6,$7*
1,1,$1+$1,$8,$9*
0 Add four rect primitives between the rounded corners*
20,1,$1+$1,$2,$3,$4,$5,0*
20,1,$1+$1,$4,$5,$6,$7,0*
20,1,$1+$1,$6,$7,$8,$9,0*
20,1,$1+$1,$8,$9,$2,$3,0*%
G04 Aperture macros list end*
%TA.AperFunction,ComponentPad*%
%ADD10O,1.200000X1.900000*%
%TD*%
%TA.AperFunction,ComponentPad*%
%ADD11C,1.450000*%
%TD*%
%TA.AperFunction,ComponentPad*%
%ADD12C,6.000000*%
%TD*%
%TA.AperFunction,ComponentPad*%
%ADD13O,1.524000X4.000000*%
%TD*%
%TA.AperFunction,ComponentPad*%
%ADD14R,1.700000X1.700000*%
%TD*%
%TA.AperFunction,ComponentPad*%
%ADD15O,1.700000X1.700000*%
%TD*%
%TA.AperFunction,SMDPad,CuDef*%
%ADD16RoundRect,0.150000X-0.150000X0.587500X-0.150000X-0.587500X0.150000X-0.587500X0.150000X0.587500X0*%
%TD*%
%TA.AperFunction,ViaPad*%
%ADD17C,0.800000*%
%TD*%
%TA.AperFunction,Conductor*%
%ADD18C,0.250000*%
%TD*%
G04 APERTURE END LIST*
D10*
%TO.P,J1,6,Shield*%
%TO.N,Net-(J1-Shield)*%
X182930000Y-65278000D03*
D11*
X181930000Y-67978000D03*
X176930000Y-67978000D03*
D10*
X175930000Y-65278000D03*
%TD*%
D12*
%TO.P,MK2,1,-*%
%TO.N,/LEFT_MIC*%
X138430000Y-108331000D03*
D13*
%TO.P,MK2,2,+*%
%TO.N,GND*%
X127430000Y-108331000D03*
X149430000Y-108331000D03*
%TD*%
D12*
%TO.P,MK1,1,-*%
%TO.N,/RIGHT_MIC*%
X187706000Y-108331000D03*
D13*
%TO.P,MK1,2,+*%
%TO.N,GND*%
X176706000Y-108331000D03*
X198706000Y-108331000D03*
%TD*%
D14*
%TO.P,J2,1,Pin_1*%
%TO.N,/VCC_SW*%
X191155000Y-67412000D03*
D15*
%TO.P,J2,2,Pin_2*%
%TO.N,GND*%
X193695000Y-67412000D03*
%TD*%
D16*
%TO.P,Q2,1,D*%
%TO.N,/VCC*%
X137480000Y-101551500D03*
%TO.P,Q2,2,S*%
%TO.N,Net-(Q2-S)*%
X139380000Y-101551500D03*
%TO.P,Q2,3,G*%
%TO.N,/LEFT_MIC*%
X138430000Y-103426500D03*
%TD*%
%TO.P,Q1,1,D*%
%TO.N,/VCC*%
X186817000Y-101600000D03*
%TO.P,Q1,2,S*%
%TO.N,Net-(Q1-S)*%
X188717000Y-101600000D03*
%TO.P,Q1,3,G*%
%TO.N,/RIGHT_MIC*%
X187767000Y-103475000D03*
%TD*%
D17*
%TO.N,GND*%
X177927000Y-92710000D03*
X182753000Y-88773000D03*
X146304000Y-90043000D03*
X142875000Y-82042000D03*
X165100000Y-66040000D03*
X159004000Y-66040000D03*
X177673000Y-76454000D03*
X173101000Y-82169000D03*
X171196000Y-83312000D03*
X161163000Y-95631000D03*
X156972000Y-78867000D03*
X158623000Y-81280000D03*
X157353000Y-86868000D03*
X158877000Y-86868000D03*
%TO.N,/VCC*%
X144653000Y-85344000D03*
%TO.N,/REF*%
X160782000Y-92202000D03*
X165989000Y-81026000D03*
%TO.N,Net-(Q1-S)*%
X178181000Y-87884000D03*
%TO.N,Net-(Q2-S)*%
X147701000Y-85090000D03*
%TO.N,/VCC*%
X168402000Y-80264000D03*
%TD*%
D18*
%TO.N,/RIGHT_MIC*%
X187706000Y-103536000D02*
X187706000Y-108331000D01*
X187767000Y-103475000D02*
X187706000Y-103536000D01*
%TO.N,/LEFT_MIC*%
X138430000Y-103426500D02*
X138430000Y-108331000D01*
%TO.N,/VCC*%
X145473847Y-86164847D02*
X145600847Y-86164847D01*
X144653000Y-85344000D02*
X145473847Y-86164847D01*
X145600847Y-86164847D02*
X151501695Y-80264000D01*
X137480000Y-94285695D02*
X145600847Y-86164847D01*
%TO.N,/REF*%
X160782000Y-86233000D02*
X160782000Y-92202000D01*
X165989000Y-81026000D02*
X160782000Y-86233000D01*
%TO.N,Net-(Q1-S)*%
X188717000Y-98420000D02*
X178181000Y-87884000D01*
X188717000Y-101600000D02*
X188717000Y-98420000D01*
%TO.N,Net-(Q2-S)*%
X139380000Y-101551500D02*
X139380000Y-93411000D01*
X139380000Y-93411000D02*
X147701000Y-85090000D01*
%TO.N,/VCC*%
X186817000Y-97663000D02*
X169418000Y-80264000D01*
X151501695Y-80264000D02*
X168402000Y-80264000D01*
X169418000Y-80264000D02*
X168402000Y-80264000D01*
X186817000Y-101600000D02*
X186817000Y-97663000D01*
X137480000Y-101551500D02*
X137480000Y-94285695D01*
%TD*%
%TA.AperFunction,Conductor*%
%TO.N,GND*%
G36*
X174961904Y-64154685D02*
G01*
X175007659Y-64207489D01*
X175017603Y-64276647D01*
X174999180Y-64326040D01*
X174940245Y-64417743D01*
X174861563Y-64614280D01*
X174821500Y-64822150D01*
X174821500Y-64822151D01*
X174821500Y-65680803D01*
X174836581Y-65838738D01*
X174836582Y-65838742D01*
X174896033Y-66041217D01*
X174896223Y-66041862D01*
X174993229Y-66230026D01*
X175061109Y-66316342D01*
X175124094Y-66396434D01*
X175284077Y-66535061D01*
X175284088Y-66535069D01*
X175324269Y-66558267D01*
X175467418Y-66640913D01*
X175667473Y-66710153D01*
X175877016Y-66740281D01*
X176088474Y-66730208D01*
X176173391Y-66709607D01*
X176243180Y-66712931D01*
X176300095Y-66753458D01*
X176326063Y-66818323D01*
X176312841Y-66886930D01*
X176273749Y-66931685D01*
X176134100Y-67029469D01*
X176134089Y-67029478D01*
X175981475Y-67182092D01*
X175857676Y-67358894D01*
X175766462Y-67554505D01*
X175766458Y-67554514D01*
X175710600Y-67762981D01*
X175710598Y-67762992D01*
X175691788Y-67977998D01*
X175691788Y-67978001D01*
X175710598Y-68193007D01*
X175710600Y-68193018D01*
X175766458Y-68401485D01*
X175766460Y-68401489D01*
X175766461Y-68401493D01*
X175789129Y-68450105D01*
X175857676Y-68597105D01*
X175959577Y-68742633D01*
X175981475Y-68773907D01*
X176134093Y-68926525D01*
X176310894Y-69050323D01*
X176506507Y-69141539D01*
X176714987Y-69197401D01*
X176868567Y-69210837D01*
X176929998Y-69216212D01*
X176930000Y-69216212D01*
X176930002Y-69216212D01*
X176983753Y-69211509D01*
X177145013Y-69197401D01*
X177353493Y-69141539D01*
X177549106Y-69050323D01*
X177725907Y-68926525D01*
X177878525Y-68773907D01*
X178002323Y-68597106D01*
X178093539Y-68401493D01*
X178149401Y-68193013D01*
X178168212Y-67978000D01*
X178149401Y-67762987D01*
X178093539Y-67554507D01*
X178002323Y-67358894D01*
X177878525Y-67182093D01*
X177725907Y-67029475D01*
X177665315Y-66987048D01*
X177549105Y-66905676D01*
X177432754Y-66851421D01*
X177353493Y-66814461D01*
X177353489Y-66814460D01*
X177353485Y-66814458D01*
X177145018Y-66758600D01*
X177145014Y-66758599D01*
X177145013Y-66758599D01*
X177145012Y-66758598D01*
X177145007Y-66758598D01*
X176930002Y-66739788D01*
X176929998Y-66739788D01*
X176714992Y-66758598D01*
X176714978Y-66758601D01*
X176638659Y-66779050D01*
X176568810Y-66777387D01*
X176510947Y-66738224D01*
X176483444Y-66673995D01*
X176495031Y-66605093D01*
X176534636Y-66558270D01*
X176659215Y-66469559D01*
X176805303Y-66316346D01*
X176805657Y-66315796D01*
X176880102Y-66199956D01*
X176919756Y-66138254D01*
X176998436Y-65941721D01*
X177038500Y-65733849D01*
X177038500Y-64875197D01*
X177023419Y-64717261D01*
X176963777Y-64514138D01*
X176866771Y-64325974D01*
X176864064Y-64320723D01*
X176865096Y-64320190D01*
X176847129Y-64259001D01*
X176866813Y-64191961D01*
X176919617Y-64146206D01*
X176971129Y-64135000D01*
X181894865Y-64135000D01*
X181961904Y-64154685D01*
X182007659Y-64207489D01*
X182017603Y-64276647D01*
X181999180Y-64326040D01*
X181940245Y-64417743D01*
X181861563Y-64614280D01*
X181821500Y-64822150D01*
X181821500Y-64822151D01*
X181821500Y-65680803D01*
X181836581Y-65838738D01*
X181836582Y-65838742D01*
X181896033Y-66041217D01*
X181896223Y-66041862D01*
X181993229Y-66230026D01*
X182061109Y-66316342D01*
X182124094Y-66396434D01*
X182284077Y-66535061D01*
X182284088Y-66535069D01*
X182298626Y-66543462D01*
X182311304Y-66550782D01*
X182359520Y-66601347D01*
X182372745Y-66669953D01*
X182346778Y-66734819D01*
X182289865Y-66775348D01*
X182220074Y-66778674D01*
X182217214Y-66777944D01*
X182145021Y-66758601D01*
X182145018Y-66758600D01*
X182145013Y-66758599D01*
X182145010Y-66758598D01*
X182145007Y-66758598D01*
X181930002Y-66739788D01*
X181929998Y-66739788D01*
X181714992Y-66758598D01*
X181714981Y-66758600D01*
X181506514Y-66814458D01*
X181506505Y-66814462D01*
X181310894Y-66905676D01*
X181134092Y-67029475D01*
X180981475Y-67182092D01*
X180857676Y-67358894D01*
X180766462Y-67554505D01*
X180766458Y-67554514D01*
X180710600Y-67762981D01*
X180710598Y-67762992D01*
X180691788Y-67977998D01*
X180691788Y-67978001D01*
X180710598Y-68193007D01*
X180710600Y-68193018D01*
X180766458Y-68401485D01*
X180766460Y-68401489D01*
X180766461Y-68401493D01*
X180789129Y-68450105D01*
X180857676Y-68597105D01*
X180959577Y-68742633D01*
X180981475Y-68773907D01*
X181134093Y-68926525D01*
X181310894Y-69050323D01*
X181506507Y-69141539D01*
X181714987Y-69197401D01*
X181868567Y-69210837D01*
X181929998Y-69216212D01*
X181930000Y-69216212D01*
X181930002Y-69216212D01*
X181983753Y-69211509D01*
X182145013Y-69197401D01*
X182353493Y-69141539D01*
X182549106Y-69050323D01*
X182725907Y-68926525D01*
X182878525Y-68773907D01*
X183002323Y-68597106D01*
X183093539Y-68401493D01*
X183117879Y-68310654D01*
X189796500Y-68310654D01*
X189803011Y-68371202D01*
X189803011Y-68371204D01*
X189854110Y-68508203D01*
X189854111Y-68508204D01*
X189941739Y-68625261D01*
X190058796Y-68712889D01*
X190195799Y-68763989D01*
X190223050Y-68766918D01*
X190256345Y-68770499D01*
X190256362Y-68770500D01*
X192053638Y-68770500D01*
X192053654Y-68770499D01*
X192080692Y-68767591D01*
X192114201Y-68763989D01*
X192251204Y-68712889D01*
X192368261Y-68625261D01*
X192455889Y-68508204D01*
X192504223Y-68378615D01*
X192546093Y-68322686D01*
X192611557Y-68298269D01*
X192679830Y-68313121D01*
X192708084Y-68334272D01*
X192823917Y-68450105D01*
X193017421Y-68585600D01*
X193231507Y-68685429D01*
X193231516Y-68685433D01*
X193445000Y-68742634D01*
X193445000Y-67847501D01*
X193552685Y-67896680D01*
X193659237Y-67912000D01*
X193730763Y-67912000D01*
X193837315Y-67896680D01*
X193945000Y-67847501D01*
X193945000Y-68742633D01*
X194158483Y-68685433D01*
X194158492Y-68685429D01*
X194372578Y-68585600D01*
X194566082Y-68450105D01*
X194733105Y-68283082D01*
X194868600Y-68089578D01*
X194963640Y-67885763D01*
X204520787Y-67885763D01*
X204550413Y-68155013D01*
X204550415Y-68155024D01*
X204614851Y-68401494D01*
X204618928Y-68417088D01*
X204724870Y-68666390D01*
X204784434Y-68763989D01*
X204865979Y-68897605D01*
X204865986Y-68897615D01*
X205039253Y-69105819D01*
X205039259Y-69105824D01*
X205141466Y-69197401D01*
X205240998Y-69286582D01*
X205466910Y-69436044D01*
X205712176Y-69551020D01*
X205712183Y-69551022D01*
X205712185Y-69551023D01*
X205971557Y-69629057D01*
X205971564Y-69629058D01*
X205971569Y-69629060D01*
X206239561Y-69668500D01*
X206239566Y-69668500D01*
X206442636Y-69668500D01*
X206494133Y-69664730D01*
X206645156Y-69653677D01*
X206757758Y-69628593D01*
X206909546Y-69594782D01*
X206909548Y-69594781D01*
X206909553Y-69594780D01*
X207162558Y-69498014D01*
X207398777Y-69365441D01*
X207613177Y-69199888D01*
X207801186Y-69004881D01*
X207958799Y-68784579D01*
X208040710Y-68625260D01*
X208082649Y-68543690D01*
X208082651Y-68543684D01*
X208082656Y-68543675D01*
X208170118Y-68287305D01*
X208219319Y-68020933D01*
X208229212Y-67750235D01*
X208199586Y-67480982D01*
X208131072Y-67218912D01*
X208025130Y-66969610D01*
X207884018Y-66738390D01*
X207835674Y-66680298D01*
X207710746Y-66530180D01*
X207710740Y-66530175D01*
X207509002Y-66349418D01*
X207283092Y-66199957D01*
X207280494Y-66198739D01*
X207037824Y-66084980D01*
X207037819Y-66084978D01*
X207037814Y-66084976D01*
X206778442Y-66006942D01*
X206778428Y-66006939D01*
X206662791Y-65989921D01*
X206510439Y-65967500D01*
X206307369Y-65967500D01*
X206307364Y-65967500D01*
X206104844Y-65982323D01*
X206104831Y-65982325D01*
X205840453Y-66041217D01*
X205840446Y-66041220D01*
X205587439Y-66137987D01*
X205351226Y-66270557D01*
X205136822Y-66436112D01*
X204948822Y-66631109D01*
X204948816Y-66631116D01*
X204791202Y-66851419D01*
X204791199Y-66851424D01*
X204667350Y-67092309D01*
X204667343Y-67092327D01*
X204579884Y-67348685D01*
X204579881Y-67348699D01*
X204530681Y-67615068D01*
X204530680Y-67615075D01*
X204520787Y-67885763D01*
X194963640Y-67885763D01*
X194968429Y-67875492D01*
X194968432Y-67875486D01*
X195025636Y-67662000D01*
X194128686Y-67662000D01*
X194154493Y-67621844D01*
X194195000Y-67483889D01*
X194195000Y-67340111D01*
X194154493Y-67202156D01*
X194128686Y-67162000D01*
X195025636Y-67162000D01*
X195025635Y-67161999D01*
X194968432Y-66948513D01*
X194968429Y-66948507D01*
X194868600Y-66734422D01*
X194868599Y-66734420D01*
X194733113Y-66540926D01*
X194733108Y-66540920D01*
X194566082Y-66373894D01*
X194372578Y-66238399D01*
X194158492Y-66138570D01*
X194158486Y-66138567D01*
X193945000Y-66081364D01*
X193945000Y-66976498D01*
X193837315Y-66927320D01*
X193730763Y-66912000D01*
X193659237Y-66912000D01*
X193552685Y-66927320D01*
X193445000Y-66976498D01*
X193445000Y-66081364D01*
X193444999Y-66081364D01*
X193231513Y-66138567D01*
X193231507Y-66138570D01*
X193017422Y-66238399D01*
X193017420Y-66238400D01*
X192823926Y-66373886D01*
X192708084Y-66489728D01*
X192646761Y-66523212D01*
X192577069Y-66518228D01*
X192521136Y-66476356D01*
X192504223Y-66445384D01*
X192455889Y-66315796D01*
X192368261Y-66198739D01*
X192251204Y-66111111D01*
X192114203Y-66060011D01*
X192053654Y-66053500D01*
X192053638Y-66053500D01*
X190256362Y-66053500D01*
X190256345Y-66053500D01*
X190195797Y-66060011D01*
X190195795Y-66060011D01*
X190058795Y-66111111D01*
X189941739Y-66198739D01*
X189854111Y-66315795D01*
X189803011Y-66452795D01*
X189803011Y-66452797D01*
X189796500Y-66513345D01*
X189796500Y-68310654D01*
X183117879Y-68310654D01*
X183149401Y-68193013D01*
X183168212Y-67978000D01*
X183149401Y-67762987D01*
X183093539Y-67554507D01*
X183002323Y-67358894D01*
X182878525Y-67182093D01*
X182725907Y-67029475D01*
X182593194Y-66936548D01*
X182549570Y-66881972D01*
X182542378Y-66812473D01*
X182573900Y-66750119D01*
X182634130Y-66714705D01*
X182681961Y-66712236D01*
X182877016Y-66740281D01*
X183088474Y-66730208D01*
X183294204Y-66680298D01*
X183486771Y-66592356D01*
X183590869Y-66518228D01*
X183659210Y-66469563D01*
X183659211Y-66469561D01*
X183659215Y-66469559D01*
X183805303Y-66316346D01*
X183805657Y-66315796D01*
X183880102Y-66199956D01*
X183919756Y-66138254D01*
X183998436Y-65941721D01*
X184038500Y-65733849D01*
X184038500Y-64875197D01*
X184023419Y-64717261D01*
X183963777Y-64514138D01*
X183866771Y-64325974D01*
X183864064Y-64320723D01*
X183865096Y-64320190D01*
X183847129Y-64259001D01*
X183866813Y-64191961D01*
X183919617Y-64146206D01*
X183971129Y-64135000D01*
X209807000Y-64135000D01*
X209874039Y-64154685D01*
X209919794Y-64207489D01*
X209931000Y-64259000D01*
X209931000Y-124590000D01*
X209911315Y-124657039D01*
X209858511Y-124702794D01*
X209807000Y-124714000D01*
X120647000Y-124714000D01*
X120579961Y-124694315D01*
X120534206Y-124641511D01*
X120523000Y-124590000D01*
X120523000Y-121479763D01*
X122097787Y-121479763D01*
X122127413Y-121749013D01*
X122127415Y-121749024D01*
X122195926Y-122011082D01*
X122195928Y-122011088D01*
X122301870Y-122260390D01*
X122373998Y-122378575D01*
X122442979Y-122491605D01*
X122442986Y-122491615D01*
X122616253Y-122699819D01*
X122616259Y-122699824D01*
X122817998Y-122880582D01*
X123043910Y-123030044D01*
X123289176Y-123145020D01*
X123289183Y-123145022D01*
X123289185Y-123145023D01*
X123548557Y-123223057D01*
X123548564Y-123223058D01*
X123548569Y-123223060D01*
X123816561Y-123262500D01*
X123816566Y-123262500D01*
X124019636Y-123262500D01*
X124071133Y-123258730D01*
X124222156Y-123247677D01*
X124334758Y-123222593D01*
X124486546Y-123188782D01*
X124486548Y-123188781D01*
X124486553Y-123188780D01*
X124739558Y-123092014D01*
X124975777Y-122959441D01*
X125190177Y-122793888D01*
X125378186Y-122598881D01*
X125535799Y-122378579D01*
X125609787Y-122234669D01*
X125659649Y-122137690D01*
X125659651Y-122137684D01*
X125659656Y-122137675D01*
X125747118Y-121881305D01*
X125796319Y-121614933D01*
X125801259Y-121479763D01*
X204520787Y-121479763D01*
X204550413Y-121749013D01*
X204550415Y-121749024D01*
X204618926Y-122011082D01*
X204618928Y-122011088D01*
X204724870Y-122260390D01*
X204796998Y-122378575D01*
X204865979Y-122491605D01*
X204865986Y-122491615D01*
X205039253Y-122699819D01*
X205039259Y-122699824D01*
X205240998Y-122880582D01*
X205466910Y-123030044D01*
X205712176Y-123145020D01*
X205712183Y-123145022D01*
X205712185Y-123145023D01*
X205971557Y-123223057D01*
X205971564Y-123223058D01*
X205971569Y-123223060D01*
X206239561Y-123262500D01*
X206239566Y-123262500D01*
X206442636Y-123262500D01*
X206494133Y-123258730D01*
X206645156Y-123247677D01*
X206757758Y-123222593D01*
X206909546Y-123188782D01*
X206909548Y-123188781D01*
X206909553Y-123188780D01*
X207162558Y-123092014D01*
X207398777Y-122959441D01*
X207613177Y-122793888D01*
X207801186Y-122598881D01*
X207958799Y-122378579D01*
X208032787Y-122234669D01*
X208082649Y-122137690D01*
X208082651Y-122137684D01*
X208082656Y-122137675D01*
X208170118Y-121881305D01*
X208219319Y-121614933D01*
X208229212Y-121344235D01*
X208199586Y-121074982D01*
X208131072Y-120812912D01*
X208025130Y-120563610D01*
X207884018Y-120332390D01*
X207794747Y-120225119D01*
X207710746Y-120124180D01*
X207710740Y-120124175D01*
X207509002Y-119943418D01*
X207283092Y-119793957D01*
X207283090Y-119793956D01*
X207037824Y-119678980D01*
X207037819Y-119678978D01*
X207037814Y-119678976D01*
X206778442Y-119600942D01*
X206778428Y-119600939D01*
X206662791Y-119583921D01*
X206510439Y-119561500D01*
X206307369Y-119561500D01*
X206307364Y-119561500D01*
X206104844Y-119576323D01*
X206104831Y-119576325D01*
X205840453Y-119635217D01*
X205840446Y-119635220D01*
X205587439Y-119731987D01*
X205351226Y-119864557D01*
X205136822Y-120030112D01*
X204948822Y-120225109D01*
X204948816Y-120225116D01*
X204791202Y-120445419D01*
X204791199Y-120445424D01*
X204667350Y-120686309D01*
X204667343Y-120686327D01*
X204579884Y-120942685D01*
X204579881Y-120942699D01*
X204530681Y-121209068D01*
X204530680Y-121209075D01*
X204520787Y-121479763D01*
X125801259Y-121479763D01*
X125806212Y-121344235D01*
X125776586Y-121074982D01*
X125708072Y-120812912D01*
X125602130Y-120563610D01*
X125461018Y-120332390D01*
X125371747Y-120225119D01*
X125287746Y-120124180D01*
X125287740Y-120124175D01*
X125086002Y-119943418D01*
X124860092Y-119793957D01*
X124860090Y-119793956D01*
X124614824Y-119678980D01*
X124614819Y-119678978D01*
X124614814Y-119678976D01*
X124355442Y-119600942D01*
X124355428Y-119600939D01*
X124239791Y-119583921D01*
X124087439Y-119561500D01*
X123884369Y-119561500D01*
X123884364Y-119561500D01*
X123681844Y-119576323D01*
X123681831Y-119576325D01*
X123417453Y-119635217D01*
X123417446Y-119635220D01*
X123164439Y-119731987D01*
X122928226Y-119864557D01*
X122713822Y-120030112D01*
X122525822Y-120225109D01*
X122525816Y-120225116D01*
X122368202Y-120445419D01*
X122368199Y-120445424D01*
X122244350Y-120686309D01*
X122244343Y-120686327D01*
X122156884Y-120942685D01*
X122156881Y-120942699D01*
X122107681Y-121209068D01*
X122107680Y-121209075D01*
X122097787Y-121479763D01*
X120523000Y-121479763D01*
X120523000Y-109625672D01*
X126168000Y-109625672D01*
X126183261Y-109795250D01*
X126243692Y-110014217D01*
X126243697Y-110014230D01*
X126342256Y-110218891D01*
X126342262Y-110218901D01*
X126475780Y-110402672D01*
X126475784Y-110402677D01*
X126639976Y-110559659D01*
X126829560Y-110684803D01*
X127038439Y-110774083D01*
X127038448Y-110774086D01*
X127179998Y-110806393D01*
X127179999Y-110806392D01*
X127179999Y-109737716D01*
X127218731Y-109773371D01*
X127335177Y-109824448D01*
X127461898Y-109834949D01*
X127585162Y-109803734D01*
X127680000Y-109741773D01*
X127680000Y-110808660D01*
X127711952Y-110804333D01*
X127928003Y-110734134D01*
X128128039Y-110626490D01*
X128128042Y-110626488D01*
X128305646Y-110484854D01*
X128455100Y-110313789D01*
X128455107Y-110313781D01*
X128571615Y-110118781D01*
X128571619Y-110118773D01*
X128651438Y-109906095D01*
X128691999Y-109682585D01*
X128692000Y-108581000D01*
X127811000Y-108581000D01*
X127811000Y-108331000D01*
X134916685Y-108331000D01*
X134935931Y-108698242D01*
X134993458Y-109061453D01*
X134993458Y-109061455D01*
X135088641Y-109416681D01*
X135220428Y-109759997D01*
X135387382Y-110087662D01*
X135587666Y-110396073D01*
X135587668Y-110396075D01*
X135819098Y-110681867D01*
X136079133Y-110941902D01*
X136079137Y-110941905D01*
X136364926Y-111173333D01*
X136673337Y-111373617D01*
X136673342Y-111373620D01*
X137001006Y-111540573D01*
X137344326Y-111672361D01*
X137699541Y-111767541D01*
X138062759Y-111825069D01*
X138409688Y-111843250D01*
X138429999Y-111844315D01*
X138430000Y-111844315D01*
X138430001Y-111844315D01*
X138449246Y-111843306D01*
X138797241Y-111825069D01*
X139160459Y-111767541D01*
X139515674Y-111672361D01*
X139858994Y-111540573D01*
X140186658Y-111373620D01*
X140495075Y-111173332D01*
X140780867Y-110941902D01*
X141040902Y-110681867D01*
X141272332Y-110396075D01*
X141472620Y-110087658D01*
X141639573Y-109759994D01*
X141691134Y-109625672D01*
X148168000Y-109625672D01*
X148183261Y-109795250D01*
X148243692Y-110014217D01*
X148243697Y-110014230D01*
X148342256Y-110218891D01*
X148342262Y-110218901D01*
X148475780Y-110402672D01*
X148475784Y-110402677D01*
X148639976Y-110559659D01*
X148829560Y-110684803D01*
X149038439Y-110774083D01*
X149038448Y-110774086D01*
X149179999Y-110806393D01*
X149180000Y-110806392D01*
X149180000Y-109737716D01*
X149218731Y-109773371D01*
X149335177Y-109824448D01*
X149461898Y-109834949D01*
X149585162Y-109803734D01*
X149680000Y-109741773D01*
X149680000Y-110808659D01*
X149711952Y-110804333D01*
X149928003Y-110734134D01*
X150128039Y-110626490D01*
X150128042Y-110626488D01*
X150305646Y-110484854D01*
X150455100Y-110313789D01*
X150455107Y-110313781D01*
X150571615Y-110118781D01*
X150571619Y-110118773D01*
X150651438Y-109906095D01*
X150692000Y-109682585D01*
X150692000Y-109625672D01*
X175444000Y-109625672D01*
X175459261Y-109795250D01*
X175519692Y-110014217D01*
X175519697Y-110014230D01*
X175618256Y-110218891D01*
X175618262Y-110218901D01*
X175751780Y-110402672D01*
X175751784Y-110402677D01*
X175915976Y-110559659D01*
X176105560Y-110684803D01*
X176314439Y-110774083D01*
X176314448Y-110774086D01*
X176455999Y-110806393D01*
X176456000Y-110806393D01*
X176456000Y-109737716D01*
X176494731Y-109773371D01*
X176611177Y-109824448D01*
X176737898Y-109834949D01*
X176861162Y-109803734D01*
X176956000Y-109741773D01*
X176956000Y-110808659D01*
X176987952Y-110804333D01*
X177204003Y-110734134D01*
X177404039Y-110626490D01*
X177404042Y-110626488D01*
X177581646Y-110484854D01*
X177731100Y-110313789D01*
X177731107Y-110313781D01*
X177847615Y-110118781D01*
X177847619Y-110118773D01*
X177927438Y-109906095D01*
X177968000Y-109682585D01*
X177968000Y-108581000D01*
X177087000Y-108581000D01*
X177087000Y-108081000D01*
X177968000Y-108081000D01*
X177968000Y-107036331D01*
X177967999Y-107036327D01*
X177952738Y-106866749D01*
X177892307Y-106647782D01*
X177892302Y-106647769D01*
X177793743Y-106443108D01*
X177793737Y-106443098D01*
X177660219Y-106259327D01*
X177660215Y-106259322D01*
X177496023Y-106102340D01*
X177306439Y-105977196D01*
X177097559Y-105887916D01*
X177097550Y-105887913D01*
X176956000Y-105855605D01*
X176956000Y-106924283D01*
X176917269Y-106888629D01*
X176800823Y-106837552D01*
X176674102Y-106827051D01*
X176550838Y-106858266D01*
X176456000Y-106920226D01*
X176456000Y-105853339D01*
X176424040Y-105857669D01*
X176424038Y-105857669D01*
X176207996Y-105927865D01*
X176007960Y-106035509D01*
X176007957Y-106035511D01*
X175830353Y-106177145D01*
X175680899Y-106348210D01*
X175680892Y-106348218D01*
X175564384Y-106543218D01*
X175564380Y-106543226D01*
X175484561Y-106755904D01*
X175444000Y-106979414D01*
X175444000Y-108081000D01*
X176325000Y-108081000D01*
X176325000Y-108581000D01*
X175444000Y-108581000D01*
X175444000Y-109625672D01*
X150692000Y-109625672D01*
X150692000Y-108581000D01*
X149811000Y-108581000D01*
X149811000Y-108081000D01*
X150692000Y-108081000D01*
X150692000Y-107036331D01*
X150691999Y-107036327D01*
X150676738Y-106866749D01*
X150616307Y-106647782D01*
X150616302Y-106647769D01*
X150517743Y-106443108D01*
X150517737Y-106443098D01*
X150384219Y-106259327D01*
X150384215Y-106259322D01*
X150220023Y-106102340D01*
X150030439Y-105977196D01*
X149821559Y-105887916D01*
X149821550Y-105887913D01*
X149680000Y-105855605D01*
X149680000Y-106924283D01*
X149641269Y-106888629D01*
X149524823Y-106837552D01*
X149398102Y-106827051D01*
X149274838Y-106858266D01*
X149180000Y-106920226D01*
X149180000Y-105853339D01*
X149148040Y-105857669D01*
X149148038Y-105857669D01*
X148931996Y-105927865D01*
X148731960Y-106035509D01*
X148731957Y-106035511D01*
X148554353Y-106177145D01*
X148404899Y-106348210D01*
X148404892Y-106348218D01*
X148288384Y-106543218D01*
X148288380Y-106543226D01*
X148208561Y-106755904D01*
X148168000Y-106979414D01*
X148168000Y-108081000D01*
X149049000Y-108081000D01*
X149049000Y-108581000D01*
X148168000Y-108581000D01*
X148168000Y-109625672D01*
X141691134Y-109625672D01*
X141771361Y-109416674D01*
X141866541Y-109061459D01*
X141924069Y-108698241D01*
X141943315Y-108331000D01*
X141924069Y-107963759D01*
X141866541Y-107600541D01*
X141771361Y-107245326D01*
X141639573Y-106902006D01*
X141472620Y-106574343D01*
X141472617Y-106574338D01*
X141272333Y-106265926D01*
X141085746Y-106035511D01*
X141040902Y-105980133D01*
X140780867Y-105720098D01*
X140495075Y-105488668D01*
X140495073Y-105488666D01*
X140186662Y-105288382D01*
X139858997Y-105121428D01*
X139515681Y-104989641D01*
X139515674Y-104989639D01*
X139160459Y-104894459D01*
X139160453Y-104894458D01*
X139157322Y-104893619D01*
X139157615Y-104892523D01*
X139100204Y-104861501D01*
X139066451Y-104800326D01*
X139063500Y-104773436D01*
X139063500Y-104513122D01*
X139083185Y-104446083D01*
X139099818Y-104425441D01*
X139104453Y-104420807D01*
X139189145Y-104277601D01*
X139235562Y-104117831D01*
X139238500Y-104080502D01*
X139238500Y-102921500D01*
X139258185Y-102854461D01*
X139310989Y-102808706D01*
X139362500Y-102797500D01*
X139596505Y-102797500D01*
X139618899Y-102795737D01*
X139633831Y-102794562D01*
X139633833Y-102794561D01*
X139633835Y-102794561D01*
X139675962Y-102782321D01*
X139793601Y-102748145D01*
X139936807Y-102663453D01*
X140054453Y-102545807D01*
X140139145Y-102402601D01*
X140185562Y-102242831D01*
X140188500Y-102205502D01*
X140188500Y-100897498D01*
X140185562Y-100860169D01*
X140139145Y-100700399D01*
X140054453Y-100557193D01*
X140054451Y-100557191D01*
X140054448Y-100557187D01*
X140049819Y-100552558D01*
X140016334Y-100491235D01*
X140013500Y-100464877D01*
X140013500Y-93724766D01*
X140033185Y-93657727D01*
X140049819Y-93637085D01*
X147652086Y-86034819D01*
X147713409Y-86001334D01*
X147739767Y-85998500D01*
X147796487Y-85998500D01*
X147983288Y-85958794D01*
X148157752Y-85881118D01*
X148312253Y-85768866D01*
X148440040Y-85626944D01*
X148535527Y-85461556D01*
X148594542Y-85279928D01*
X148614504Y-85090000D01*
X148594542Y-84900072D01*
X148535527Y-84718444D01*
X148440040Y-84553056D01*
X148361714Y-84466066D01*
X148331484Y-84403074D01*
X148340109Y-84333739D01*
X148366180Y-84295416D01*
X151727779Y-80933819D01*
X151789103Y-80900334D01*
X151815461Y-80897500D01*
X164922233Y-80897500D01*
X164989272Y-80917185D01*
X165035027Y-80969989D01*
X165044971Y-81039147D01*
X165015946Y-81102703D01*
X165009914Y-81109181D01*
X160393179Y-85725914D01*
X160380820Y-85735818D01*
X160380993Y-85736027D01*
X160374983Y-85740999D01*
X160327016Y-85792078D01*
X160305872Y-85813222D01*
X160305857Y-85813239D01*
X160301531Y-85818814D01*
X160297747Y-85823244D01*
X160265419Y-85857671D01*
X160265412Y-85857681D01*
X160255579Y-85875567D01*
X160244903Y-85891820D01*
X160232386Y-85907957D01*
X160232385Y-85907959D01*
X160213625Y-85951310D01*
X160211055Y-85956556D01*
X160188303Y-85997941D01*
X160188303Y-85997942D01*
X160183225Y-86017720D01*
X160176925Y-86036122D01*
X160168818Y-86054857D01*
X160161431Y-86101495D01*
X160160246Y-86107216D01*
X160148500Y-86152965D01*
X160148499Y-86152973D01*
X160148499Y-86173388D01*
X160146973Y-86192779D01*
X160143780Y-86212941D01*
X160143780Y-86212942D01*
X160148225Y-86259966D01*
X160148500Y-86265804D01*
X160148500Y-91500241D01*
X160128815Y-91567280D01*
X160116650Y-91583213D01*
X160042963Y-91665050D01*
X160042958Y-91665057D01*
X159947473Y-91830443D01*
X159947470Y-91830450D01*
X159888459Y-92012068D01*
X159888458Y-92012072D01*
X159868496Y-92202000D01*
X159888458Y-92391928D01*
X159888459Y-92391931D01*
X159947470Y-92573549D01*
X159947473Y-92573556D01*
X160042960Y-92738944D01*
X160170747Y-92880866D01*
X160325248Y-92993118D01*
X160499712Y-93070794D01*
X160686513Y-93110500D01*
X160877487Y-93110500D01*
X161064288Y-93070794D01*
X161238752Y-92993118D01*
X161393253Y-92880866D01*
X161521040Y-92738944D01*
X161616527Y-92573556D01*
X161675542Y-92391928D01*
X161695504Y-92202000D01*
X161675542Y-92012072D01*
X161616527Y-91830444D01*
X161521040Y-91665056D01*
X161521036Y-91665050D01*
X161447350Y-91583213D01*
X161417120Y-91520221D01*
X161415500Y-91500241D01*
X161415500Y-86546766D01*
X161435185Y-86479727D01*
X161451819Y-86459085D01*
X165940086Y-81970819D01*
X166001409Y-81937334D01*
X166027767Y-81934500D01*
X166084487Y-81934500D01*
X166271288Y-81894794D01*
X166445752Y-81817118D01*
X166600253Y-81704866D01*
X166728040Y-81562944D01*
X166823527Y-81397556D01*
X166882542Y-81215928D01*
X166902504Y-81026000D01*
X166902504Y-81025996D01*
X166902504Y-81021500D01*
X166922189Y-80954461D01*
X166974993Y-80908706D01*
X167026504Y-80897500D01*
X167694691Y-80897500D01*
X167761730Y-80917185D01*
X167786840Y-80938527D01*
X167789250Y-80941204D01*
X167790747Y-80942866D01*
X167945248Y-81055118D01*
X168119712Y-81132794D01*
X168306513Y-81172500D01*
X168497487Y-81172500D01*
X168684288Y-81132794D01*
X168858752Y-81055118D01*
X169013253Y-80942866D01*
X169014751Y-80941201D01*
X169015859Y-80940519D01*
X169018082Y-80938518D01*
X169018447Y-80938924D01*
X169074232Y-80904552D01*
X169144089Y-80905877D01*
X169194584Y-80936489D01*
X186147182Y-97889086D01*
X186180666Y-97950407D01*
X186183500Y-97976765D01*
X186183500Y-100513377D01*
X186163815Y-100580416D01*
X186147186Y-100601054D01*
X186142549Y-100605691D01*
X186142543Y-100605698D01*
X186057855Y-100748898D01*
X186057853Y-100748903D01*
X186011438Y-100908664D01*
X186011437Y-100908670D01*
X186008500Y-100945995D01*
X186008500Y-102254005D01*
X186011437Y-102291329D01*
X186011438Y-102291335D01*
X186057853Y-102451096D01*
X186057855Y-102451101D01*
X186142544Y-102594303D01*
X186142551Y-102594312D01*
X186260187Y-102711948D01*
X186260191Y-102711951D01*
X186260193Y-102711953D01*
X186403399Y-102796645D01*
X186406342Y-102797500D01*
X186563164Y-102843061D01*
X186563167Y-102843061D01*
X186563169Y-102843062D01*
X186572501Y-102843796D01*
X186600495Y-102846000D01*
X186600498Y-102846000D01*
X186834500Y-102846000D01*
X186901539Y-102865685D01*
X186947294Y-102918489D01*
X186958500Y-102970000D01*
X186958500Y-104129005D01*
X186961437Y-104166329D01*
X186961438Y-104166335D01*
X187007853Y-104326096D01*
X187007855Y-104326101D01*
X187055232Y-104406211D01*
X187072500Y-104469331D01*
X187072500Y-104773436D01*
X187052815Y-104840475D01*
X187000011Y-104886230D01*
X186978594Y-104893306D01*
X186978678Y-104893619D01*
X186975546Y-104894458D01*
X186975541Y-104894459D01*
X186693417Y-104970054D01*
X186620318Y-104989641D01*
X186277002Y-105121428D01*
X185949338Y-105288382D01*
X185640926Y-105488666D01*
X185355137Y-105720094D01*
X185355129Y-105720101D01*
X185095101Y-105980129D01*
X185095094Y-105980137D01*
X184863666Y-106265926D01*
X184663382Y-106574338D01*
X184496428Y-106902002D01*
X184364641Y-107245318D01*
X184269458Y-107600544D01*
X184269458Y-107600546D01*
X184211931Y-107963757D01*
X184192685Y-108330999D01*
X184192685Y-108331000D01*
X184211931Y-108698242D01*
X184269458Y-109061453D01*
X184269458Y-109061455D01*
X184364641Y-109416681D01*
X184496428Y-109759997D01*
X184663382Y-110087662D01*
X184863666Y-110396073D01*
X184863668Y-110396075D01*
X185095098Y-110681867D01*
X185355133Y-110941902D01*
X185355137Y-110941905D01*
X185640926Y-111173333D01*
X185949337Y-111373617D01*
X185949342Y-111373620D01*
X186277006Y-111540573D01*
X186620326Y-111672361D01*
X186975541Y-111767541D01*
X187338759Y-111825069D01*
X187685688Y-111843250D01*
X187705999Y-111844315D01*
X187706000Y-111844315D01*
X187706001Y-111844315D01*
X187725246Y-111843306D01*
X188073241Y-111825069D01*
X188436459Y-111767541D01*
X188791674Y-111672361D01*
X189134994Y-111540573D01*
X189462658Y-111373620D01*
X189771075Y-111173332D01*
X190056867Y-110941902D01*
X190316902Y-110681867D01*
X190548332Y-110396075D01*
X190748620Y-110087658D01*
X190915573Y-109759994D01*
X191047361Y-109416674D01*
X191142541Y-109061459D01*
X191200069Y-108698241D01*
X191219315Y-108331000D01*
X191200069Y-107963759D01*
X191142541Y-107600541D01*
X191047361Y-107245326D01*
X190945287Y-106979414D01*
X197443999Y-106979414D01*
X197444000Y-108081000D01*
X198325000Y-108081000D01*
X198325000Y-108581000D01*
X197444000Y-108581000D01*
X197444000Y-109625672D01*
X197459261Y-109795250D01*
X197519692Y-110014217D01*
X197519697Y-110014230D01*
X197618256Y-110218891D01*
X197618262Y-110218901D01*
X197751780Y-110402672D01*
X197751784Y-110402677D01*
X197915976Y-110559659D01*
X198105560Y-110684803D01*
X198314439Y-110774083D01*
X198314448Y-110774086D01*
X198455999Y-110806393D01*
X198456000Y-110806393D01*
X198455999Y-109737716D01*
X198494731Y-109773371D01*
X198611177Y-109824448D01*
X198737898Y-109834949D01*
X198861162Y-109803734D01*
X198956000Y-109741773D01*
X198956000Y-110808659D01*
X198987952Y-110804333D01*
X199204003Y-110734134D01*
X199404039Y-110626490D01*
X199404042Y-110626488D01*
X199581646Y-110484854D01*
X199731100Y-110313789D01*
X199731107Y-110313781D01*
X199847615Y-110118781D01*
X199847619Y-110118773D01*
X199927438Y-109906095D01*
X199967999Y-109682585D01*
X199968000Y-108581000D01*
X199087000Y-108581000D01*
X199087000Y-108081000D01*
X199968000Y-108081000D01*
X199968000Y-107036330D01*
X199967999Y-107036327D01*
X199952738Y-106866749D01*
X199892307Y-106647782D01*
X199892302Y-106647769D01*
X199793743Y-106443108D01*
X199793737Y-106443098D01*
X199660219Y-106259327D01*
X199660215Y-106259322D01*
X199496023Y-106102340D01*
X199306439Y-105977196D01*
X199097559Y-105887916D01*
X199097550Y-105887913D01*
X198956000Y-105855605D01*
X198956000Y-106924283D01*
X198917269Y-106888629D01*
X198800823Y-106837552D01*
X198674102Y-106827051D01*
X198550838Y-106858266D01*
X198456000Y-106920226D01*
X198456000Y-105853339D01*
X198424040Y-105857669D01*
X198424038Y-105857669D01*
X198207996Y-105927865D01*
X198007960Y-106035509D01*
X198007957Y-106035511D01*
X197830353Y-106177145D01*
X197680899Y-106348210D01*
X197680892Y-106348218D01*
X197564384Y-106543218D01*
X197564380Y-106543226D01*
X197484561Y-106755904D01*
X197443999Y-106979414D01*
X190945287Y-106979414D01*
X190915573Y-106902006D01*
X190748620Y-106574343D01*
X190748617Y-106574338D01*
X190548333Y-106265926D01*
X190361746Y-106035511D01*
X190316902Y-105980133D01*
X190056867Y-105720098D01*
X189771075Y-105488668D01*
X189771073Y-105488666D01*
X189462662Y-105288382D01*
X189134997Y-105121428D01*
X188791681Y-104989641D01*
X188791674Y-104989639D01*
X188436459Y-104894459D01*
X188436453Y-104894458D01*
X188433322Y-104893619D01*
X188433615Y-104892523D01*
X188376204Y-104861501D01*
X188342451Y-104800326D01*
X188339500Y-104773436D01*
X188339500Y-104622622D01*
X188359185Y-104555583D01*
X188375819Y-104534941D01*
X188401523Y-104509236D01*
X188441453Y-104469307D01*
X188526145Y-104326101D01*
X188572562Y-104166331D01*
X188575500Y-104129002D01*
X188575500Y-102969999D01*
X188595185Y-102902961D01*
X188647989Y-102857206D01*
X188699500Y-102846000D01*
X188933505Y-102846000D01*
X188955899Y-102844237D01*
X188970831Y-102843062D01*
X188970833Y-102843061D01*
X188970835Y-102843061D01*
X189059901Y-102817185D01*
X189130601Y-102796645D01*
X189273807Y-102711953D01*
X189391453Y-102594307D01*
X189476145Y-102451101D01*
X189522562Y-102291331D01*
X189525500Y-102254002D01*
X189525500Y-100945998D01*
X189522562Y-100908669D01*
X189476145Y-100748899D01*
X189391453Y-100605693D01*
X189391451Y-100605691D01*
X189391448Y-100605687D01*
X189386819Y-100601058D01*
X189353334Y-100539735D01*
X189350500Y-100513377D01*
X189350500Y-98503631D01*
X189352238Y-98487881D01*
X189351968Y-98487856D01*
X189352701Y-98480094D01*
X189352702Y-98480091D01*
X189350500Y-98410041D01*
X189350500Y-98380144D01*
X189349614Y-98373136D01*
X189349156Y-98367314D01*
X189347673Y-98320110D01*
X189347672Y-98320108D01*
X189341979Y-98300514D01*
X189338032Y-98281457D01*
X189335474Y-98261203D01*
X189321547Y-98226028D01*
X189318086Y-98217286D01*
X189316193Y-98211757D01*
X189313135Y-98201233D01*
X189303018Y-98166407D01*
X189292622Y-98148829D01*
X189284066Y-98131362D01*
X189276552Y-98112383D01*
X189248794Y-98074179D01*
X189245587Y-98069296D01*
X189233823Y-98049404D01*
X189221542Y-98028638D01*
X189207108Y-98014204D01*
X189194471Y-97999409D01*
X189182472Y-97982893D01*
X189182470Y-97982890D01*
X189146073Y-97952781D01*
X189141751Y-97948847D01*
X179127620Y-87934715D01*
X179094135Y-87873392D01*
X179091982Y-87860012D01*
X179074542Y-87694072D01*
X179015527Y-87512444D01*
X178920040Y-87347056D01*
X178792253Y-87205134D01*
X178637752Y-87092882D01*
X178463288Y-87015206D01*
X178463286Y-87015205D01*
X178276487Y-86975500D01*
X178085513Y-86975500D01*
X177898714Y-87015205D01*
X177724246Y-87092883D01*
X177569744Y-87205136D01*
X177508072Y-87273629D01*
X177448585Y-87310277D01*
X177378728Y-87308946D01*
X177328242Y-87278337D01*
X169925088Y-79875183D01*
X169915187Y-79862823D01*
X169914977Y-79862998D01*
X169910002Y-79856986D01*
X169910000Y-79856982D01*
X169883658Y-79832245D01*
X169858922Y-79809016D01*
X169837768Y-79787863D01*
X169835792Y-79786331D01*
X169832183Y-79783531D01*
X169827750Y-79779744D01*
X169793321Y-79747414D01*
X169793319Y-79747412D01*
X169775431Y-79737578D01*
X169759170Y-79726897D01*
X169743039Y-79714384D01*
X169699693Y-79695627D01*
X169694445Y-79693056D01*
X169667022Y-79677981D01*
X169653060Y-79670305D01*
X169649660Y-79669432D01*
X169633287Y-79665228D01*
X169614881Y-79658926D01*
X169596144Y-79650818D01*
X169596146Y-79650818D01*
X169549496Y-79643430D01*
X169543781Y-79642246D01*
X169523612Y-79637068D01*
X169498032Y-79630500D01*
X169498030Y-79630500D01*
X169477616Y-79630500D01*
X169458217Y-79628973D01*
X169438058Y-79625780D01*
X169438057Y-79625780D01*
X169391034Y-79630225D01*
X169385196Y-79630500D01*
X169109309Y-79630500D01*
X169042270Y-79610815D01*
X169017160Y-79589473D01*
X169013254Y-79585135D01*
X168858753Y-79472883D01*
X168858752Y-79472882D01*
X168684288Y-79395206D01*
X168684286Y-79395205D01*
X168497487Y-79355500D01*
X168306513Y-79355500D01*
X168119714Y-79395205D01*
X167945246Y-79472883D01*
X167790745Y-79585135D01*
X167786840Y-79589473D01*
X167727354Y-79626121D01*
X167694691Y-79630500D01*
X151585327Y-79630500D01*
X151569575Y-79628760D01*
X151569550Y-79629032D01*
X151561788Y-79628298D01*
X151561787Y-79628298D01*
X151491724Y-79630500D01*
X151461839Y-79630500D01*
X151461836Y-79630500D01*
X151461824Y-79630501D01*
X151454832Y-79631384D01*
X151449015Y-79631841D01*
X151401806Y-79633325D01*
X151401804Y-79633326D01*
X151382191Y-79639023D01*
X151363154Y-79642965D01*
X151342903Y-79645524D01*
X151342897Y-79645526D01*
X151298994Y-79662907D01*
X151293470Y-79664798D01*
X151248101Y-79677981D01*
X151248096Y-79677983D01*
X151230522Y-79688376D01*
X151213057Y-79696932D01*
X151194082Y-79704445D01*
X151194080Y-79704446D01*
X151155871Y-79732206D01*
X151150989Y-79735412D01*
X151110330Y-79759458D01*
X151095895Y-79773894D01*
X151081107Y-79786525D01*
X151064589Y-79798526D01*
X151064583Y-79798532D01*
X151034475Y-79834925D01*
X151030544Y-79839246D01*
X145731112Y-85138675D01*
X145669789Y-85172160D01*
X145600097Y-85167176D01*
X145544164Y-85125304D01*
X145525500Y-85089312D01*
X145487529Y-84972449D01*
X145487526Y-84972443D01*
X145392040Y-84807056D01*
X145264253Y-84665134D01*
X145109752Y-84552882D01*
X144935288Y-84475206D01*
X144935286Y-84475205D01*
X144748487Y-84435500D01*
X144557513Y-84435500D01*
X144370714Y-84475205D01*
X144196246Y-84552883D01*
X144041745Y-84665135D01*
X143913959Y-84807057D01*
X143818473Y-84972443D01*
X143818470Y-84972450D01*
X143759459Y-85154068D01*
X143759458Y-85154072D01*
X143739496Y-85344000D01*
X143759458Y-85533928D01*
X143759459Y-85533931D01*
X143818470Y-85715549D01*
X143818473Y-85715556D01*
X143913960Y-85880944D01*
X144016290Y-85994594D01*
X144037113Y-86017720D01*
X144041747Y-86022866D01*
X144196248Y-86135118D01*
X144370712Y-86212794D01*
X144383423Y-86215496D01*
X144444905Y-86248689D01*
X144478681Y-86309853D01*
X144474027Y-86379567D01*
X144445322Y-86424467D01*
X137091179Y-93778609D01*
X137078820Y-93788513D01*
X137078993Y-93788722D01*
X137072983Y-93793694D01*
X137025016Y-93844773D01*
X137003872Y-93865917D01*
X137003857Y-93865934D01*
X136999531Y-93871509D01*
X136995747Y-93875939D01*
X136963419Y-93910366D01*
X136963412Y-93910376D01*
X136953579Y-93928262D01*
X136942903Y-93944515D01*
X136930386Y-93960652D01*
X136930385Y-93960654D01*
X136911625Y-94004005D01*
X136909055Y-94009251D01*
X136886303Y-94050636D01*
X136886303Y-94050637D01*
X136881225Y-94070415D01*
X136874925Y-94088817D01*
X136866818Y-94107552D01*
X136859431Y-94154190D01*
X136858246Y-94159911D01*
X136846500Y-94205660D01*
X136846500Y-94226079D01*
X136844973Y-94245478D01*
X136841780Y-94265636D01*
X136841780Y-94265637D01*
X136846225Y-94312661D01*
X136846500Y-94318499D01*
X136846500Y-100464877D01*
X136826815Y-100531916D01*
X136810186Y-100552554D01*
X136805549Y-100557191D01*
X136805543Y-100557198D01*
X136720855Y-100700398D01*
X136720853Y-100700403D01*
X136674438Y-100860164D01*
X136674437Y-100860170D01*
X136671500Y-100897495D01*
X136671500Y-102205505D01*
X136674437Y-102242829D01*
X136674438Y-102242835D01*
X136720853Y-102402596D01*
X136720855Y-102402601D01*
X136805544Y-102545803D01*
X136805551Y-102545812D01*
X136923187Y-102663448D01*
X136923191Y-102663451D01*
X136923193Y-102663453D01*
X137066399Y-102748145D01*
X137108530Y-102760385D01*
X137226164Y-102794561D01*
X137226167Y-102794561D01*
X137226169Y-102794562D01*
X137235501Y-102795296D01*
X137263495Y-102797500D01*
X137263498Y-102797500D01*
X137497500Y-102797500D01*
X137564539Y-102817185D01*
X137610294Y-102869989D01*
X137621500Y-102921500D01*
X137621500Y-104080505D01*
X137624437Y-104117829D01*
X137624438Y-104117835D01*
X137670853Y-104277596D01*
X137670855Y-104277602D01*
X137755543Y-104420803D01*
X137755544Y-104420804D01*
X137755546Y-104420806D01*
X137755547Y-104420807D01*
X137760178Y-104425437D01*
X137793665Y-104486758D01*
X137796500Y-104513122D01*
X137796500Y-104773436D01*
X137776815Y-104840475D01*
X137724011Y-104886230D01*
X137702594Y-104893306D01*
X137702678Y-104893619D01*
X137699546Y-104894458D01*
X137699541Y-104894459D01*
X137417417Y-104970054D01*
X137344318Y-104989641D01*
X137001002Y-105121428D01*
X136673338Y-105288382D01*
X136364926Y-105488666D01*
X136079137Y-105720094D01*
X136079129Y-105720101D01*
X135819101Y-105980129D01*
X135819094Y-105980137D01*
X135587666Y-106265926D01*
X135387382Y-106574338D01*
X135220428Y-106902002D01*
X135088641Y-107245318D01*
X134993458Y-107600544D01*
X134993458Y-107600546D01*
X134935931Y-107963757D01*
X134916685Y-108330999D01*
X134916685Y-108331000D01*
X127811000Y-108331000D01*
X127811000Y-108081000D01*
X128692000Y-108081000D01*
X128692000Y-107036331D01*
X128691999Y-107036327D01*
X128676738Y-106866749D01*
X128616307Y-106647782D01*
X128616302Y-106647769D01*
X128517743Y-106443108D01*
X128517737Y-106443098D01*
X128384219Y-106259327D01*
X128384215Y-106259322D01*
X128220023Y-106102340D01*
X128030439Y-105977196D01*
X127821559Y-105887916D01*
X127821550Y-105887913D01*
X127679999Y-105855605D01*
X127679999Y-106924282D01*
X127641269Y-106888629D01*
X127524823Y-106837552D01*
X127398102Y-106827051D01*
X127274838Y-106858266D01*
X127179999Y-106920226D01*
X127180000Y-105853339D01*
X127148040Y-105857669D01*
X127148038Y-105857669D01*
X126931996Y-105927865D01*
X126731960Y-106035509D01*
X126731957Y-106035511D01*
X126554353Y-106177145D01*
X126404899Y-106348210D01*
X126404892Y-106348218D01*
X126288384Y-106543218D01*
X126288380Y-106543226D01*
X126208561Y-106755904D01*
X126168000Y-106979414D01*
X126168000Y-108081000D01*
X127049000Y-108081000D01*
X127049000Y-108581000D01*
X126168000Y-108581000D01*
X126168000Y-109625672D01*
X120523000Y-109625672D01*
X120523000Y-74488390D01*
X164197824Y-74488390D01*
X164227095Y-74679466D01*
X164227098Y-74679478D01*
X164294234Y-74860748D01*
X164294238Y-74860757D01*
X164396488Y-75024803D01*
X164396489Y-75024804D01*
X164396491Y-75024807D01*
X164529677Y-75164919D01*
X164688342Y-75275353D01*
X164865988Y-75351587D01*
X165055344Y-75390500D01*
X165200207Y-75390500D01*
X165344322Y-75375845D01*
X165528759Y-75317977D01*
X165528760Y-75317976D01*
X165528768Y-75317974D01*
X165697791Y-75224159D01*
X165844468Y-75098240D01*
X165962796Y-74945373D01*
X166047930Y-74771816D01*
X166096385Y-74584674D01*
X166106176Y-74391610D01*
X166076903Y-74200526D01*
X166009764Y-74019247D01*
X165957020Y-73934627D01*
X165907511Y-73855196D01*
X165907510Y-73855195D01*
X165907509Y-73855193D01*
X165774323Y-73715081D01*
X165689211Y-73655841D01*
X165615657Y-73604646D01*
X165438012Y-73528413D01*
X165248656Y-73489500D01*
X165103794Y-73489500D01*
X165103793Y-73489500D01*
X164959677Y-73504154D01*
X164775240Y-73562022D01*
X164775225Y-73562029D01*
X164606211Y-73655839D01*
X164606206Y-73655842D01*
X164459533Y-73781758D01*
X164459531Y-73781759D01*
X164341205Y-73934624D01*
X164341203Y-73934628D01*
X164256068Y-74108187D01*
X164207616Y-74295317D01*
X164207615Y-74295323D01*
X164197824Y-74488390D01*
X120523000Y-74488390D01*
X120523000Y-67885763D01*
X122097787Y-67885763D01*
X122127413Y-68155013D01*
X122127415Y-68155024D01*
X122191851Y-68401494D01*
X122195928Y-68417088D01*
X122301870Y-68666390D01*
X122361434Y-68763989D01*
X122442979Y-68897605D01*
X122442986Y-68897615D01*
X122616253Y-69105819D01*
X122616259Y-69105824D01*
X122718466Y-69197401D01*
X122817998Y-69286582D01*
X123043910Y-69436044D01*
X123289176Y-69551020D01*
X123289183Y-69551022D01*
X123289185Y-69551023D01*
X123548557Y-69629057D01*
X123548564Y-69629058D01*
X123548569Y-69629060D01*
X123816561Y-69668500D01*
X123816566Y-69668500D01*
X124019636Y-69668500D01*
X124071133Y-69664730D01*
X124222156Y-69653677D01*
X124334758Y-69628593D01*
X124486546Y-69594782D01*
X124486548Y-69594781D01*
X124486553Y-69594780D01*
X124739558Y-69498014D01*
X124975777Y-69365441D01*
X125190177Y-69199888D01*
X125378186Y-69004881D01*
X125535799Y-68784579D01*
X125617710Y-68625260D01*
X125659649Y-68543690D01*
X125659651Y-68543684D01*
X125659656Y-68543675D01*
X125747118Y-68287305D01*
X125796319Y-68020933D01*
X125806212Y-67750235D01*
X125776586Y-67480982D01*
X125708072Y-67218912D01*
X125602130Y-66969610D01*
X125461018Y-66738390D01*
X125412674Y-66680298D01*
X125287746Y-66530180D01*
X125287740Y-66530175D01*
X125086002Y-66349418D01*
X124860092Y-66199957D01*
X124857494Y-66198739D01*
X124614824Y-66084980D01*
X124614819Y-66084978D01*
X124614814Y-66084976D01*
X124355442Y-66006942D01*
X124355428Y-66006939D01*
X124239791Y-65989921D01*
X124087439Y-65967500D01*
X123884369Y-65967500D01*
X123884364Y-65967500D01*
X123681844Y-65982323D01*
X123681831Y-65982325D01*
X123417453Y-66041217D01*
X123417446Y-66041220D01*
X123164439Y-66137987D01*
X122928226Y-66270557D01*
X122713822Y-66436112D01*
X122525822Y-66631109D01*
X122525816Y-66631116D01*
X122368202Y-66851419D01*
X122368199Y-66851424D01*
X122244350Y-67092309D01*
X122244343Y-67092327D01*
X122156884Y-67348685D01*
X122156881Y-67348699D01*
X122107681Y-67615068D01*
X122107680Y-67615075D01*
X122097787Y-67885763D01*
X120523000Y-67885763D01*
X120523000Y-64259000D01*
X120542685Y-64191961D01*
X120595489Y-64146206D01*
X120647000Y-64135000D01*
X174894865Y-64135000D01*
X174961904Y-64154685D01*
G37*
%TD.AperFunction*%
%TD*%
M02*
