M48
; DRILL file {KiCad 7.0.6} date Sun Aug 13 13:31:49 2023
; FORMAT={-:-/ absolute / inch / decimal}
; #@! TF.CreationDate,2023-08-13T13:31:49-04:00
; #@! TF.GenerationSoftware,Kicad,Pcbnew,7.0.6
; #@! TF.FileFunction,Plated,1,2,PTH
FMAT,2
INCH
; #@! TA.AperFunction,Plated,PTH,ViaDrill
T1C0.0157
; #@! TA.AperFunction,Plated,PTH,ComponentDrill
T2C0.0236
; #@! TA.AperFunction,Plated,PTH,ComponentDrill
T3C0.0300
; #@! TA.AperFunction,Plated,PTH,ComponentDrill
T4C0.0335
; #@! TA.AperFunction,Plated,PTH,ComponentDrill
T5C0.0394
; #@! TA.AperFunction,Plated,PTH,ComponentDrill
T6C0.1181
%
G90
G05
T1
X5.625Y-3.23
X5.695Y-3.36
X5.76Y-3.545
X5.815Y-3.35
X6.18Y-3.105
X6.195Y-3.42
X6.245Y-3.2
X6.255Y-3.42
X6.26Y-2.6
X6.33Y-3.63
X6.345Y-3.765
X6.5Y-2.6
X6.535Y-3.19
X6.63Y-3.16
X6.74Y-3.28
X6.815Y-3.235
X6.995Y-3.01
X7.005Y-3.65
X7.015Y-3.46
X7.195Y-3.495
T4
X6.9657Y-2.6763
X7.1626Y-2.6763
T5
X7.5258Y-2.654
X7.6258Y-2.654
T6
X5.45Y-4.265
X7.39Y-4.265
T2
G00X6.9264Y-2.5838
M15
G01X6.9264Y-2.5562
M16
G05
G00X7.202Y-2.5562
M15
G01X7.202Y-2.5838
M16
G05
T3
G00X5.0169Y-4.3091
M15
G01X5.0169Y-4.2209
M16
G05
G00X5.8831Y-4.3091
M15
G01X5.8831Y-4.2209
M16
G05
G00X6.9569Y-4.3091
M15
G01X6.9569Y-4.2209
M16
G05
G00X7.8231Y-4.3091
M15
G01X7.8231Y-4.2209
M16
G05
T0
M30
