%TF.GenerationSoftware,KiCad,Pcbnew,9.0.7*%
%TF.CreationDate,2026-02-16T22:08:23-05:00*%
%TF.ProjectId,Microphone_V3,4d696372-6f70-4686-9f6e-655f56332e6b,rev?*%
%TF.SameCoordinates,Original*%
%TF.FileFunction,Copper,L2,Bot*%
%TF.FilePolarity,Positive*%
%FSLAX46Y46*%
G04 Gerber Fmt 4.6, Leading zero omitted, Abs format (unit mm)*
G04 Created by KiCad (PCBNEW 9.0.7) date 2026-02-16 22:08:23*
%MOMM*%
%LPD*%
G01*
G04 APERTURE LIST*
%TA.AperFunction,ComponentPad*%
%ADD10C,6.000000*%
%TD*%
%TA.AperFunction,ComponentPad*%
%ADD11O,4.000000X1.524000*%
%TD*%
%TA.AperFunction,ComponentPad*%
%ADD12C,0.800000*%
%TD*%
%TA.AperFunction,ComponentPad*%
%ADD13C,6.400000*%
%TD*%
%TA.AperFunction,ComponentPad*%
%ADD14C,1.600000*%
%TD*%
%TA.AperFunction,ViaPad*%
%ADD15C,0.800000*%
%TD*%
%TA.AperFunction,Conductor*%
%ADD16C,0.250000*%
%TD*%
G04 APERTURE END LIST*
D10*
%TO.P,MK1,1,-*%
%TO.N,Net-(MK1--)*%
X133458000Y-90778000D03*
D11*
%TO.P,MK1,2,+*%
%TO.N,GND*%
X133458000Y-101778000D03*
X133458000Y-79778000D03*
%TD*%
D12*
%TO.P,H4,1,1*%
%TO.N,CGND*%
X120790000Y-64770000D03*
X121492944Y-63072944D03*
X121492944Y-66467056D03*
X123190000Y-62370000D03*
D13*
X123190000Y-64770000D03*
D12*
X123190000Y-67170000D03*
X124887056Y-63072944D03*
X124887056Y-66467056D03*
X125590000Y-64770000D03*
%TD*%
%TO.P,H1,1,1*%
%TO.N,CGND*%
X120790000Y-118110000D03*
X121492944Y-116412944D03*
X121492944Y-119807056D03*
X123190000Y-115710000D03*
D13*
X123190000Y-118110000D03*
D12*
X123190000Y-120510000D03*
X124887056Y-116412944D03*
X124887056Y-119807056D03*
X125590000Y-118110000D03*
%TD*%
%TO.P,H2,1,1*%
%TO.N,CGND*%
X204610000Y-118110000D03*
X205312944Y-116412944D03*
X205312944Y-119807056D03*
X207010000Y-115710000D03*
D13*
X207010000Y-118110000D03*
D12*
X207010000Y-120510000D03*
X208707056Y-116412944D03*
X208707056Y-119807056D03*
X209410000Y-118110000D03*
%TD*%
D14*
%TO.P,R3,1*%
%TO.N,Net-(MK1--)*%
X138792000Y-74952000D03*
%TO.P,R3,2*%
%TO.N,GND*%
X128632000Y-74952000D03*
%TD*%
D12*
%TO.P,H3,1,1*%
%TO.N,CGND*%
X204610000Y-64770000D03*
X205312944Y-63072944D03*
X205312944Y-66467056D03*
X207010000Y-62370000D03*
D13*
X207010000Y-64770000D03*
D12*
X207010000Y-67170000D03*
X208707056Y-63072944D03*
X208707056Y-66467056D03*
X209410000Y-64770000D03*
%TD*%
D15*
%TO.N,/USB_VCC*%
X194183000Y-92964000D03*
X194183000Y-95574500D03*
%TO.N,GND*%
X181813200Y-79197200D03*
X198424800Y-74218800D03*
X204063600Y-106781600D03*
X186232800Y-80314800D03*
X159512000Y-74523600D03*
X157480000Y-111709200D03*
X167037000Y-111379000D03*
X146050000Y-80899000D03*
X204012800Y-77520800D03*
X137160000Y-108204000D03*
X164947600Y-87376000D03*
X143205200Y-108204000D03*
X201066400Y-108966000D03*
X194970400Y-109016800D03*
X177088800Y-104902000D03*
X148590000Y-84074000D03*
X166370000Y-84328000D03*
X159156400Y-87426800D03*
X198374000Y-71678800D03*
X167944800Y-102870000D03*
X182626000Y-96393000D03*
X159512000Y-107594400D03*
X158800800Y-80314800D03*
X176911000Y-90932000D03*
X149860000Y-103530400D03*
X196646800Y-68224400D03*
X170281600Y-104343200D03*
X198374000Y-69138800D03*
X204063600Y-105511600D03*
X201168000Y-76454000D03*
X204012800Y-76250800D03*
%TO.N,+2.5V*%
X177952400Y-78384400D03*
X162560000Y-106070400D03*
X162560000Y-95808800D03*
X177952400Y-72796400D03*
%TO.N,VBAT*%
X155905200Y-73152000D03*
X155905200Y-68834000D03*
%TD*%
D16*
%TO.N,/USB_VCC*%
X194183000Y-92964000D02*
X194183000Y-95574500D01*
%TO.N,+2.5V*%
X177952400Y-72796400D02*
X177952400Y-78384400D01*
X162560000Y-95808800D02*
X162560000Y-106070400D01*
%TO.N,VBAT*%
X155905200Y-68834000D02*
X155905200Y-73152000D01*
%TD*%
%TA.AperFunction,Conductor*%
%TO.N,CGND*%
G36*
X208283471Y-60960695D02*
G01*
X208300477Y-60961650D01*
X208533772Y-60974751D01*
X208541700Y-60975454D01*
X208597220Y-60982195D01*
X208603006Y-60983038D01*
X208821284Y-61020125D01*
X208830124Y-61021963D01*
X208878416Y-61033866D01*
X208882958Y-61035079D01*
X209102542Y-61098340D01*
X209112149Y-61101540D01*
X209132692Y-61109331D01*
X209146555Y-61114589D01*
X209150021Y-61115963D01*
X209373563Y-61208558D01*
X209383723Y-61213317D01*
X209392957Y-61218163D01*
X209395280Y-61219414D01*
X209492221Y-61272991D01*
X209624999Y-61346375D01*
X209636773Y-61353773D01*
X209857671Y-61510508D01*
X209868543Y-61519178D01*
X210070505Y-61699661D01*
X210080338Y-61709494D01*
X210260821Y-61911456D01*
X210269491Y-61922328D01*
X210426226Y-62143226D01*
X210433624Y-62155000D01*
X210560565Y-62384682D01*
X210561835Y-62387041D01*
X210566681Y-62396275D01*
X210571444Y-62406444D01*
X210664029Y-62629963D01*
X210665409Y-62633443D01*
X210678454Y-62667838D01*
X210681667Y-62677484D01*
X210744905Y-62896991D01*
X210746148Y-62901642D01*
X210758027Y-62949836D01*
X210759878Y-62958742D01*
X210796958Y-63176983D01*
X210797806Y-63182805D01*
X210804540Y-63238260D01*
X210805249Y-63246255D01*
X210819305Y-63496527D01*
X210819500Y-63503480D01*
X210819500Y-119376519D01*
X210819305Y-119383472D01*
X210805249Y-119633743D01*
X210804540Y-119641738D01*
X210797806Y-119697193D01*
X210796958Y-119703015D01*
X210759878Y-119921256D01*
X210758027Y-119930162D01*
X210746148Y-119978356D01*
X210744905Y-119983007D01*
X210681667Y-120202514D01*
X210678454Y-120212160D01*
X210665409Y-120246555D01*
X210664029Y-120250035D01*
X210571444Y-120473554D01*
X210566681Y-120483723D01*
X210561835Y-120492957D01*
X210560565Y-120495316D01*
X210433624Y-120724999D01*
X210426226Y-120736773D01*
X210269491Y-120957671D01*
X210260821Y-120968543D01*
X210080338Y-121170505D01*
X210070505Y-121180338D01*
X209868543Y-121360821D01*
X209857671Y-121369491D01*
X209636773Y-121526226D01*
X209624999Y-121533624D01*
X209395316Y-121660565D01*
X209392957Y-121661835D01*
X209383723Y-121666681D01*
X209373554Y-121671444D01*
X209150035Y-121764029D01*
X209146555Y-121765409D01*
X209112160Y-121778454D01*
X209102514Y-121781667D01*
X208883007Y-121844905D01*
X208878356Y-121846148D01*
X208830162Y-121858027D01*
X208821256Y-121859878D01*
X208603015Y-121896958D01*
X208597193Y-121897806D01*
X208541738Y-121904540D01*
X208533743Y-121905249D01*
X208283472Y-121919305D01*
X208276519Y-121919500D01*
X121923481Y-121919500D01*
X121916528Y-121919305D01*
X121666255Y-121905249D01*
X121658260Y-121904540D01*
X121602805Y-121897806D01*
X121596983Y-121896958D01*
X121378742Y-121859878D01*
X121369836Y-121858027D01*
X121321642Y-121846148D01*
X121316991Y-121844905D01*
X121097484Y-121781667D01*
X121087838Y-121778454D01*
X121053443Y-121765409D01*
X121049963Y-121764029D01*
X120826444Y-121671444D01*
X120816275Y-121666681D01*
X120807041Y-121661835D01*
X120804682Y-121660565D01*
X120575000Y-121533624D01*
X120563226Y-121526226D01*
X120342328Y-121369491D01*
X120331456Y-121360821D01*
X120129494Y-121180338D01*
X120119661Y-121170505D01*
X119939178Y-120968543D01*
X119930508Y-120957671D01*
X119773773Y-120736773D01*
X119766375Y-120724999D01*
X119738535Y-120674627D01*
X119639414Y-120495280D01*
X119638163Y-120492957D01*
X119633317Y-120483723D01*
X119628554Y-120473554D01*
X119535969Y-120250035D01*
X119534589Y-120246555D01*
X119521544Y-120212160D01*
X119518340Y-120202542D01*
X119455079Y-119982958D01*
X119453866Y-119978416D01*
X119441963Y-119930124D01*
X119440125Y-119921284D01*
X119403038Y-119703006D01*
X119402195Y-119697220D01*
X119395454Y-119641700D01*
X119394751Y-119633772D01*
X119380695Y-119383471D01*
X119380500Y-119376519D01*
X119380500Y-64789130D01*
X123190000Y-64789130D01*
X123190000Y-118110000D01*
X207010000Y-118110000D01*
X207010000Y-64770000D01*
X207010000Y-64769999D01*
X123190000Y-64789130D01*
X119380500Y-64789130D01*
X119380500Y-63503480D01*
X119380695Y-63496528D01*
X119388512Y-63357329D01*
X119394751Y-63246222D01*
X119395454Y-63238304D01*
X119402197Y-63182767D01*
X119403036Y-63177005D01*
X119440127Y-62958704D01*
X119441960Y-62949886D01*
X119453872Y-62901557D01*
X119455072Y-62897067D01*
X119518344Y-62677443D01*
X119521535Y-62667864D01*
X119534599Y-62633417D01*
X119535944Y-62630024D01*
X119628565Y-62406419D01*
X119633312Y-62396285D01*
X119638200Y-62386971D01*
X119639388Y-62384765D01*
X119766376Y-62154999D01*
X119773773Y-62143226D01*
X119855836Y-62027569D01*
X119930515Y-61922318D01*
X119939171Y-61911464D01*
X120119671Y-61709483D01*
X120129483Y-61699671D01*
X120331464Y-61519171D01*
X120342318Y-61510515D01*
X120563231Y-61353769D01*
X120574999Y-61346376D01*
X120581909Y-61342556D01*
X120804765Y-61219388D01*
X120806971Y-61218200D01*
X120816285Y-61213312D01*
X120826419Y-61208565D01*
X121050024Y-61115944D01*
X121053417Y-61114599D01*
X121087864Y-61101535D01*
X121097443Y-61098344D01*
X121317067Y-61035072D01*
X121321557Y-61033872D01*
X121369886Y-61021960D01*
X121378704Y-61020127D01*
X121597005Y-60983036D01*
X121602767Y-60982197D01*
X121658304Y-60975454D01*
X121666222Y-60974751D01*
X121901171Y-60961557D01*
X121916529Y-60960695D01*
X121923481Y-60960500D01*
X208276519Y-60960500D01*
X208283471Y-60960695D01*
G37*
%TD.AperFunction*%
%TD*%
%TA.AperFunction,Conductor*%
%TO.N,GND*%
G36*
X203296410Y-65304029D02*
G01*
X203342177Y-65356823D01*
X203351011Y-65384169D01*
X203408295Y-65672157D01*
X203408298Y-65672169D01*
X203514074Y-66020868D01*
X203653514Y-66357502D01*
X203653516Y-66357507D01*
X203825271Y-66678837D01*
X203825282Y-66678855D01*
X204027707Y-66981806D01*
X204027717Y-66981820D01*
X204258873Y-67263485D01*
X204516514Y-67521126D01*
X204516519Y-67521130D01*
X204516520Y-67521131D01*
X204798185Y-67752287D01*
X205101151Y-67954722D01*
X205101160Y-67954727D01*
X205101162Y-67954728D01*
X205422492Y-68126483D01*
X205422494Y-68126483D01*
X205422500Y-68126487D01*
X205627665Y-68211469D01*
X205759131Y-68265925D01*
X205759135Y-68265926D01*
X205759137Y-68265927D01*
X206107821Y-68371699D01*
X206107827Y-68371700D01*
X206107830Y-68371701D01*
X206107841Y-68371704D01*
X206396691Y-68429159D01*
X206458602Y-68461543D01*
X206493176Y-68522259D01*
X206496500Y-68550776D01*
X206496500Y-114329223D01*
X206476815Y-114396262D01*
X206424011Y-114442017D01*
X206396691Y-114450840D01*
X206107842Y-114508295D01*
X206107830Y-114508298D01*
X205759131Y-114614074D01*
X205422497Y-114753514D01*
X205422492Y-114753516D01*
X205101162Y-114925271D01*
X205101144Y-114925282D01*
X204798193Y-115127707D01*
X204798179Y-115127717D01*
X204516514Y-115358873D01*
X204258873Y-115616514D01*
X204027717Y-115898179D01*
X204027707Y-115898193D01*
X203825282Y-116201144D01*
X203825271Y-116201162D01*
X203653516Y-116522492D01*
X203653514Y-116522497D01*
X203514074Y-116859131D01*
X203408298Y-117207830D01*
X203408295Y-117207841D01*
X203350841Y-117496691D01*
X203318457Y-117558602D01*
X203257741Y-117593176D01*
X203229224Y-117596500D01*
X126970776Y-117596500D01*
X126903737Y-117576815D01*
X126857982Y-117524011D01*
X126849159Y-117496691D01*
X126791704Y-117207841D01*
X126791701Y-117207830D01*
X126791700Y-117207827D01*
X126791699Y-117207821D01*
X126685927Y-116859137D01*
X126546487Y-116522500D01*
X126374722Y-116201151D01*
X126172287Y-115898185D01*
X125941131Y-115616520D01*
X125941130Y-115616519D01*
X125941126Y-115616514D01*
X125683485Y-115358873D01*
X125401820Y-115127717D01*
X125401819Y-115127716D01*
X125401815Y-115127713D01*
X125098849Y-114925278D01*
X125098844Y-114925275D01*
X125098837Y-114925271D01*
X124777507Y-114753516D01*
X124777502Y-114753514D01*
X124440868Y-114614074D01*
X124092169Y-114508298D01*
X124092157Y-114508295D01*
X123803309Y-114450840D01*
X123741398Y-114418455D01*
X123706824Y-114357740D01*
X123703500Y-114329223D01*
X123703500Y-101527999D01*
X130981865Y-101527999D01*
X130981865Y-101528000D01*
X132050184Y-101528000D01*
X132034124Y-101544060D01*
X131983964Y-101630939D01*
X131958000Y-101727840D01*
X131958000Y-101828160D01*
X131983964Y-101925061D01*
X132034124Y-102011940D01*
X132050184Y-102028000D01*
X130981865Y-102028000D01*
X130989074Y-102073517D01*
X131050456Y-102262435D01*
X131140641Y-102439432D01*
X131257403Y-102600139D01*
X131257403Y-102600140D01*
X131397859Y-102740596D01*
X131558567Y-102857358D01*
X131735562Y-102947542D01*
X131924477Y-103008924D01*
X132120679Y-103040000D01*
X133208000Y-103040000D01*
X133208000Y-102159000D01*
X133708000Y-102159000D01*
X133708000Y-103040000D01*
X134795321Y-103040000D01*
X134991520Y-103008924D01*
X134991523Y-103008924D01*
X135180437Y-102947542D01*
X135357432Y-102857358D01*
X135518139Y-102740596D01*
X135518140Y-102740596D01*
X135658596Y-102600140D01*
X135658596Y-102600139D01*
X135775358Y-102439432D01*
X135865543Y-102262435D01*
X135926925Y-102073517D01*
X135934134Y-102028000D01*
X134865816Y-102028000D01*
X134881876Y-102011940D01*
X134932036Y-101925061D01*
X134958000Y-101828160D01*
X134958000Y-101727840D01*
X134932036Y-101630939D01*
X134881876Y-101544060D01*
X134865816Y-101528000D01*
X135934135Y-101528000D01*
X135934134Y-101527999D01*
X135926925Y-101482482D01*
X135865543Y-101293564D01*
X135775358Y-101116567D01*
X135658596Y-100955860D01*
X135658596Y-100955859D01*
X135518140Y-100815403D01*
X135357432Y-100698641D01*
X135180437Y-100608457D01*
X134991522Y-100547075D01*
X134795321Y-100516000D01*
X133708000Y-100516000D01*
X133708000Y-101397000D01*
X133208000Y-101397000D01*
X133208000Y-100516000D01*
X132120679Y-100516000D01*
X131924479Y-100547075D01*
X131924476Y-100547075D01*
X131735562Y-100608457D01*
X131558567Y-100698641D01*
X131397860Y-100815403D01*
X131397859Y-100815403D01*
X131257403Y-100955859D01*
X131257403Y-100955860D01*
X131140641Y-101116567D01*
X131050456Y-101293564D01*
X130989074Y-101482482D01*
X130981865Y-101527999D01*
X123703500Y-101527999D01*
X123703500Y-95719316D01*
X161651500Y-95719316D01*
X161651500Y-95898283D01*
X161686411Y-96073792D01*
X161686413Y-96073800D01*
X161754896Y-96239132D01*
X161754901Y-96239142D01*
X161854321Y-96387934D01*
X161854324Y-96387938D01*
X161890180Y-96423793D01*
X161923666Y-96485115D01*
X161926500Y-96511475D01*
X161926500Y-105367724D01*
X161906815Y-105434763D01*
X161890181Y-105455405D01*
X161854324Y-105491261D01*
X161854321Y-105491265D01*
X161754901Y-105640057D01*
X161754896Y-105640067D01*
X161686413Y-105805399D01*
X161686411Y-105805407D01*
X161651500Y-105980916D01*
X161651500Y-106159883D01*
X161686411Y-106335392D01*
X161686413Y-106335400D01*
X161754896Y-106500732D01*
X161754901Y-106500742D01*
X161854321Y-106649534D01*
X161854324Y-106649538D01*
X161980861Y-106776075D01*
X161980865Y-106776078D01*
X162129657Y-106875498D01*
X162129661Y-106875500D01*
X162129664Y-106875502D01*
X162295000Y-106943987D01*
X162470516Y-106978899D01*
X162470520Y-106978900D01*
X162470521Y-106978900D01*
X162649480Y-106978900D01*
X162649481Y-106978899D01*
X162825000Y-106943987D01*
X162990336Y-106875502D01*
X163139135Y-106776078D01*
X163265678Y-106649535D01*
X163365102Y-106500736D01*
X163433587Y-106335400D01*
X163468500Y-106159879D01*
X163468500Y-105980921D01*
X163433587Y-105805400D01*
X163365102Y-105640064D01*
X163365100Y-105640061D01*
X163365098Y-105640057D01*
X163265678Y-105491265D01*
X163265675Y-105491261D01*
X163229819Y-105455405D01*
X163196334Y-105394082D01*
X163193500Y-105367724D01*
X163193500Y-96511475D01*
X163213185Y-96444436D01*
X163229820Y-96423793D01*
X163265675Y-96387938D01*
X163265678Y-96387935D01*
X163365102Y-96239136D01*
X163433587Y-96073800D01*
X163468500Y-95898279D01*
X163468500Y-95719321D01*
X163433587Y-95543800D01*
X163365102Y-95378464D01*
X163365100Y-95378461D01*
X163365098Y-95378457D01*
X163265678Y-95229665D01*
X163265675Y-95229661D01*
X163139138Y-95103124D01*
X163139134Y-95103121D01*
X162990342Y-95003701D01*
X162990332Y-95003696D01*
X162825000Y-94935213D01*
X162824992Y-94935211D01*
X162649483Y-94900300D01*
X162649479Y-94900300D01*
X162470521Y-94900300D01*
X162470516Y-94900300D01*
X162295007Y-94935211D01*
X162294999Y-94935213D01*
X162129667Y-95003696D01*
X162129657Y-95003701D01*
X161980865Y-95103121D01*
X161980861Y-95103124D01*
X161854324Y-95229661D01*
X161854321Y-95229665D01*
X161754901Y-95378457D01*
X161754896Y-95378467D01*
X161686413Y-95543799D01*
X161686411Y-95543807D01*
X161651500Y-95719316D01*
X123703500Y-95719316D01*
X123703500Y-90605641D01*
X129949500Y-90605641D01*
X129949500Y-90950358D01*
X129983287Y-91293414D01*
X129983290Y-91293431D01*
X130050535Y-91631503D01*
X130050538Y-91631514D01*
X130150609Y-91961404D01*
X130282526Y-92279879D01*
X130282533Y-92279893D01*
X130445023Y-92583893D01*
X130445034Y-92583911D01*
X130636542Y-92870522D01*
X130636552Y-92870536D01*
X130855242Y-93137011D01*
X131098988Y-93380757D01*
X131098993Y-93380761D01*
X131098994Y-93380762D01*
X131365469Y-93599452D01*
X131652095Y-93790970D01*
X131956114Y-93953471D01*
X132274597Y-94085391D01*
X132604476Y-94185459D01*
X132604482Y-94185460D01*
X132604485Y-94185461D01*
X132604496Y-94185464D01*
X132816496Y-94227632D01*
X132942575Y-94252711D01*
X133285638Y-94286500D01*
X133285641Y-94286500D01*
X133630359Y-94286500D01*
X133630362Y-94286500D01*
X133973425Y-94252711D01*
X134140774Y-94219423D01*
X134311503Y-94185464D01*
X134311514Y-94185461D01*
X134311514Y-94185460D01*
X134311524Y-94185459D01*
X134641403Y-94085391D01*
X134959886Y-93953471D01*
X135263905Y-93790970D01*
X135550531Y-93599452D01*
X135817006Y-93380762D01*
X136060762Y-93137006D01*
X136276182Y-92874516D01*
X193274500Y-92874516D01*
X193274500Y-93053483D01*
X193309411Y-93228992D01*
X193309413Y-93229000D01*
X193377896Y-93394332D01*
X193377901Y-93394342D01*
X193477321Y-93543134D01*
X193477324Y-93543138D01*
X193513180Y-93578993D01*
X193546666Y-93640315D01*
X193549500Y-93666675D01*
X193549500Y-94871824D01*
X193529815Y-94938863D01*
X193513181Y-94959505D01*
X193477324Y-94995361D01*
X193477321Y-94995365D01*
X193377901Y-95144157D01*
X193377896Y-95144167D01*
X193309413Y-95309499D01*
X193309411Y-95309507D01*
X193274500Y-95485016D01*
X193274500Y-95663983D01*
X193309411Y-95839492D01*
X193309413Y-95839500D01*
X193377896Y-96004832D01*
X193377901Y-96004842D01*
X193477321Y-96153634D01*
X193477324Y-96153638D01*
X193603861Y-96280175D01*
X193603865Y-96280178D01*
X193752657Y-96379598D01*
X193752661Y-96379600D01*
X193752664Y-96379602D01*
X193918000Y-96448087D01*
X194093516Y-96482999D01*
X194093520Y-96483000D01*
X194093521Y-96483000D01*
X194272480Y-96483000D01*
X194272481Y-96482999D01*
X194448000Y-96448087D01*
X194613336Y-96379602D01*
X194762135Y-96280178D01*
X194888678Y-96153635D01*
X194988102Y-96004836D01*
X195056587Y-95839500D01*
X195091500Y-95663979D01*
X195091500Y-95485021D01*
X195056587Y-95309500D01*
X194988102Y-95144164D01*
X194988100Y-95144161D01*
X194988098Y-95144157D01*
X194888678Y-94995365D01*
X194888675Y-94995361D01*
X194852819Y-94959505D01*
X194819334Y-94898182D01*
X194816500Y-94871824D01*
X194816500Y-93666675D01*
X194836185Y-93599636D01*
X194852820Y-93578993D01*
X194888675Y-93543138D01*
X194888678Y-93543135D01*
X194988102Y-93394336D01*
X195056587Y-93229000D01*
X195091500Y-93053479D01*
X195091500Y-92874521D01*
X195056587Y-92699000D01*
X194988102Y-92533664D01*
X194988100Y-92533661D01*
X194988098Y-92533657D01*
X194888678Y-92384865D01*
X194888675Y-92384861D01*
X194762138Y-92258324D01*
X194762134Y-92258321D01*
X194613342Y-92158901D01*
X194613332Y-92158896D01*
X194448000Y-92090413D01*
X194447992Y-92090411D01*
X194272483Y-92055500D01*
X194272479Y-92055500D01*
X194093521Y-92055500D01*
X194093516Y-92055500D01*
X193918007Y-92090411D01*
X193917999Y-92090413D01*
X193752667Y-92158896D01*
X193752657Y-92158901D01*
X193603865Y-92258321D01*
X193603861Y-92258324D01*
X193477324Y-92384861D01*
X193477321Y-92384865D01*
X193377901Y-92533657D01*
X193377896Y-92533667D01*
X193309413Y-92698999D01*
X193309411Y-92699007D01*
X193274500Y-92874516D01*
X136276182Y-92874516D01*
X136279452Y-92870531D01*
X136470970Y-92583905D01*
X136633471Y-92279886D01*
X136765391Y-91961403D01*
X136865459Y-91631524D01*
X136865461Y-91631514D01*
X136865464Y-91631503D01*
X136899423Y-91460774D01*
X136932711Y-91293425D01*
X136966500Y-90950362D01*
X136966500Y-90605638D01*
X136932711Y-90262575D01*
X136907632Y-90136496D01*
X136865464Y-89924496D01*
X136865461Y-89924485D01*
X136865460Y-89924482D01*
X136865459Y-89924476D01*
X136765391Y-89594597D01*
X136633471Y-89276114D01*
X136470970Y-88972095D01*
X136279452Y-88685469D01*
X136060762Y-88418994D01*
X136060761Y-88418993D01*
X136060757Y-88418988D01*
X135817011Y-88175242D01*
X135550536Y-87956552D01*
X135550535Y-87956551D01*
X135550531Y-87956548D01*
X135263905Y-87765030D01*
X135263900Y-87765027D01*
X135263893Y-87765023D01*
X134959893Y-87602533D01*
X134959886Y-87602529D01*
X134959879Y-87602526D01*
X134641404Y-87470609D01*
X134311514Y-87370538D01*
X134311503Y-87370535D01*
X133973431Y-87303290D01*
X133973414Y-87303287D01*
X133713988Y-87277736D01*
X133630362Y-87269500D01*
X133285638Y-87269500D01*
X133208295Y-87277117D01*
X132942585Y-87303287D01*
X132942568Y-87303290D01*
X132604496Y-87370535D01*
X132604485Y-87370538D01*
X132274595Y-87470609D01*
X131956120Y-87602526D01*
X131956106Y-87602533D01*
X131652106Y-87765023D01*
X131652088Y-87765034D01*
X131365477Y-87956542D01*
X131365463Y-87956552D01*
X131098988Y-88175242D01*
X130855242Y-88418988D01*
X130636552Y-88685463D01*
X130636542Y-88685477D01*
X130445034Y-88972088D01*
X130445023Y-88972106D01*
X130282533Y-89276106D01*
X130282526Y-89276120D01*
X130150609Y-89594595D01*
X130050538Y-89924485D01*
X130050535Y-89924496D01*
X129983290Y-90262568D01*
X129983287Y-90262585D01*
X129949500Y-90605641D01*
X123703500Y-90605641D01*
X123703500Y-79527999D01*
X130981865Y-79527999D01*
X130981865Y-79528000D01*
X132050184Y-79528000D01*
X132034124Y-79544060D01*
X131983964Y-79630939D01*
X131958000Y-79727840D01*
X131958000Y-79828160D01*
X131983964Y-79925061D01*
X132034124Y-80011940D01*
X132050184Y-80028000D01*
X130981865Y-80028000D01*
X130989074Y-80073517D01*
X131050456Y-80262435D01*
X131140641Y-80439432D01*
X131257403Y-80600139D01*
X131257403Y-80600140D01*
X131397859Y-80740596D01*
X131558567Y-80857358D01*
X131735562Y-80947542D01*
X131924477Y-81008924D01*
X132120679Y-81040000D01*
X133208000Y-81040000D01*
X133208000Y-80159000D01*
X133708000Y-80159000D01*
X133708000Y-81040000D01*
X134795321Y-81040000D01*
X134991520Y-81008924D01*
X134991523Y-81008924D01*
X135180437Y-80947542D01*
X135357432Y-80857358D01*
X135518139Y-80740596D01*
X135518140Y-80740596D01*
X135658596Y-80600140D01*
X135658596Y-80600139D01*
X135775358Y-80439432D01*
X135865543Y-80262435D01*
X135926925Y-80073517D01*
X135934134Y-80028000D01*
X134865816Y-80028000D01*
X134881876Y-80011940D01*
X134932036Y-79925061D01*
X134958000Y-79828160D01*
X134958000Y-79727840D01*
X134932036Y-79630939D01*
X134881876Y-79544060D01*
X134865816Y-79528000D01*
X135934135Y-79528000D01*
X135934134Y-79527999D01*
X135926925Y-79482482D01*
X135865543Y-79293564D01*
X135775358Y-79116567D01*
X135658596Y-78955860D01*
X135658596Y-78955859D01*
X135518140Y-78815403D01*
X135357432Y-78698641D01*
X135180437Y-78608457D01*
X134991522Y-78547075D01*
X134795321Y-78516000D01*
X133708000Y-78516000D01*
X133708000Y-79397000D01*
X133208000Y-79397000D01*
X133208000Y-78516000D01*
X132120679Y-78516000D01*
X131924479Y-78547075D01*
X131924476Y-78547075D01*
X131735562Y-78608457D01*
X131558567Y-78698641D01*
X131397860Y-78815403D01*
X131397859Y-78815403D01*
X131257403Y-78955859D01*
X131257403Y-78955860D01*
X131140641Y-79116567D01*
X131050456Y-79293564D01*
X130989074Y-79482482D01*
X130981865Y-79527999D01*
X123703500Y-79527999D01*
X123703500Y-74849682D01*
X127332000Y-74849682D01*
X127332000Y-75054317D01*
X127364009Y-75256417D01*
X127427244Y-75451031D01*
X127520141Y-75633350D01*
X127520147Y-75633359D01*
X127552523Y-75677921D01*
X127552524Y-75677922D01*
X128232000Y-74998446D01*
X128232000Y-75004661D01*
X128259259Y-75106394D01*
X128311920Y-75197606D01*
X128386394Y-75272080D01*
X128477606Y-75324741D01*
X128579339Y-75352000D01*
X128585553Y-75352000D01*
X127906076Y-76031474D01*
X127950650Y-76063859D01*
X128132968Y-76156755D01*
X128327582Y-76219990D01*
X128529683Y-76252000D01*
X128734317Y-76252000D01*
X128936417Y-76219990D01*
X129131031Y-76156755D01*
X129313349Y-76063859D01*
X129357921Y-76031474D01*
X128678447Y-75352000D01*
X128684661Y-75352000D01*
X128786394Y-75324741D01*
X128877606Y-75272080D01*
X128952080Y-75197606D01*
X129004741Y-75106394D01*
X129032000Y-75004661D01*
X129032000Y-74998448D01*
X129711474Y-75677922D01*
X129711474Y-75677921D01*
X129743859Y-75633349D01*
X129836755Y-75451031D01*
X129899990Y-75256417D01*
X129932000Y-75054317D01*
X129932000Y-74849691D01*
X129931998Y-74849674D01*
X129931894Y-74849019D01*
X137483500Y-74849019D01*
X137483500Y-75054980D01*
X137515719Y-75258408D01*
X137579367Y-75454294D01*
X137643671Y-75580496D01*
X137670602Y-75633350D01*
X137672873Y-75637806D01*
X137793926Y-75804423D01*
X137793930Y-75804428D01*
X137939571Y-75950069D01*
X137939576Y-75950073D01*
X138051616Y-76031474D01*
X138106197Y-76071129D01*
X138223128Y-76130709D01*
X138289705Y-76164632D01*
X138289707Y-76164632D01*
X138289710Y-76164634D01*
X138394707Y-76198749D01*
X138485591Y-76228280D01*
X138587305Y-76244390D01*
X138689019Y-76260500D01*
X138689020Y-76260500D01*
X138894980Y-76260500D01*
X138894981Y-76260500D01*
X139098408Y-76228280D01*
X139294290Y-76164634D01*
X139477803Y-76071129D01*
X139644430Y-75950068D01*
X139790068Y-75804430D01*
X139911129Y-75637803D01*
X140004634Y-75454290D01*
X140068280Y-75258408D01*
X140100500Y-75054981D01*
X140100500Y-74849019D01*
X140068280Y-74645592D01*
X140004634Y-74449710D01*
X140004632Y-74449707D01*
X140004632Y-74449705D01*
X139970709Y-74383128D01*
X139911129Y-74266197D01*
X139881980Y-74226076D01*
X139790073Y-74099576D01*
X139790069Y-74099571D01*
X139644428Y-73953930D01*
X139644423Y-73953926D01*
X139477806Y-73832873D01*
X139477805Y-73832872D01*
X139477803Y-73832871D01*
X139420496Y-73803671D01*
X139294294Y-73739367D01*
X139098408Y-73675719D01*
X138922794Y-73647905D01*
X138894981Y-73643500D01*
X138689019Y-73643500D01*
X138664550Y-73647375D01*
X138485591Y-73675719D01*
X138289705Y-73739367D01*
X138106193Y-73832873D01*
X137939576Y-73953926D01*
X137939571Y-73953930D01*
X137793930Y-74099571D01*
X137793926Y-74099576D01*
X137672873Y-74266193D01*
X137579367Y-74449705D01*
X137515719Y-74645591D01*
X137483500Y-74849019D01*
X129931894Y-74849019D01*
X129899990Y-74647582D01*
X129836755Y-74452968D01*
X129743859Y-74270650D01*
X129711474Y-74226077D01*
X129711474Y-74226076D01*
X129032000Y-74905551D01*
X129032000Y-74899339D01*
X129004741Y-74797606D01*
X128952080Y-74706394D01*
X128877606Y-74631920D01*
X128786394Y-74579259D01*
X128684661Y-74552000D01*
X128678446Y-74552000D01*
X129357922Y-73872524D01*
X129357921Y-73872523D01*
X129313359Y-73840147D01*
X129313350Y-73840141D01*
X129131031Y-73747244D01*
X128936417Y-73684009D01*
X128734317Y-73652000D01*
X128529683Y-73652000D01*
X128327582Y-73684009D01*
X128132968Y-73747244D01*
X127950644Y-73840143D01*
X127906077Y-73872523D01*
X127906077Y-73872524D01*
X128585554Y-74552000D01*
X128579339Y-74552000D01*
X128477606Y-74579259D01*
X128386394Y-74631920D01*
X128311920Y-74706394D01*
X128259259Y-74797606D01*
X128232000Y-74899339D01*
X128232000Y-74905553D01*
X127552524Y-74226077D01*
X127552523Y-74226077D01*
X127520143Y-74270644D01*
X127427244Y-74452968D01*
X127364009Y-74647582D01*
X127332000Y-74849682D01*
X123703500Y-74849682D01*
X123703500Y-68744516D01*
X154996700Y-68744516D01*
X154996700Y-68923483D01*
X155031611Y-69098992D01*
X155031613Y-69099000D01*
X155100096Y-69264332D01*
X155100101Y-69264342D01*
X155199521Y-69413134D01*
X155199524Y-69413138D01*
X155235380Y-69448993D01*
X155268866Y-69510315D01*
X155271700Y-69536675D01*
X155271700Y-72449324D01*
X155252015Y-72516363D01*
X155235381Y-72537005D01*
X155199524Y-72572861D01*
X155199521Y-72572865D01*
X155100101Y-72721657D01*
X155100096Y-72721667D01*
X155031613Y-72886999D01*
X155031611Y-72887007D01*
X154996700Y-73062516D01*
X154996700Y-73241483D01*
X155031611Y-73416992D01*
X155031613Y-73417000D01*
X155100096Y-73582332D01*
X155100101Y-73582342D01*
X155199521Y-73731134D01*
X155199524Y-73731138D01*
X155326061Y-73857675D01*
X155326065Y-73857678D01*
X155474857Y-73957098D01*
X155474861Y-73957100D01*
X155474864Y-73957102D01*
X155640200Y-74025587D01*
X155815716Y-74060499D01*
X155815720Y-74060500D01*
X155815721Y-74060500D01*
X155994680Y-74060500D01*
X155994681Y-74060499D01*
X156170200Y-74025587D01*
X156335536Y-73957102D01*
X156484335Y-73857678D01*
X156610878Y-73731135D01*
X156710302Y-73582336D01*
X156778787Y-73417000D01*
X156813700Y-73241479D01*
X156813700Y-73062521D01*
X156778787Y-72887000D01*
X156710302Y-72721664D01*
X156710300Y-72721661D01*
X156710298Y-72721657D01*
X156700448Y-72706916D01*
X177043900Y-72706916D01*
X177043900Y-72885883D01*
X177078811Y-73061392D01*
X177078813Y-73061400D01*
X177147296Y-73226732D01*
X177147301Y-73226742D01*
X177246721Y-73375534D01*
X177246724Y-73375538D01*
X177282580Y-73411393D01*
X177316066Y-73472715D01*
X177318900Y-73499075D01*
X177318900Y-77681724D01*
X177299215Y-77748763D01*
X177282581Y-77769405D01*
X177246724Y-77805261D01*
X177246721Y-77805265D01*
X177147301Y-77954057D01*
X177147296Y-77954067D01*
X177078813Y-78119399D01*
X177078811Y-78119407D01*
X177043900Y-78294916D01*
X177043900Y-78473883D01*
X177078811Y-78649392D01*
X177078813Y-78649400D01*
X177147296Y-78814732D01*
X177147301Y-78814742D01*
X177246721Y-78963534D01*
X177246724Y-78963538D01*
X177373261Y-79090075D01*
X177373265Y-79090078D01*
X177522057Y-79189498D01*
X177522061Y-79189500D01*
X177522064Y-79189502D01*
X177687400Y-79257987D01*
X177862916Y-79292899D01*
X177862920Y-79292900D01*
X177862921Y-79292900D01*
X178041880Y-79292900D01*
X178041881Y-79292899D01*
X178217400Y-79257987D01*
X178382736Y-79189502D01*
X178531535Y-79090078D01*
X178658078Y-78963535D01*
X178757502Y-78814736D01*
X178825987Y-78649400D01*
X178860900Y-78473879D01*
X178860900Y-78294921D01*
X178825987Y-78119400D01*
X178757502Y-77954064D01*
X178757500Y-77954061D01*
X178757498Y-77954057D01*
X178658078Y-77805265D01*
X178658075Y-77805261D01*
X178622219Y-77769405D01*
X178588734Y-77708082D01*
X178585900Y-77681724D01*
X178585900Y-73499075D01*
X178605585Y-73432036D01*
X178622220Y-73411393D01*
X178658075Y-73375538D01*
X178658078Y-73375535D01*
X178757502Y-73226736D01*
X178825987Y-73061400D01*
X178860900Y-72885879D01*
X178860900Y-72706921D01*
X178825987Y-72531400D01*
X178757502Y-72366064D01*
X178757500Y-72366061D01*
X178757498Y-72366057D01*
X178658078Y-72217265D01*
X178658075Y-72217261D01*
X178531538Y-72090724D01*
X178531534Y-72090721D01*
X178382742Y-71991301D01*
X178382732Y-71991296D01*
X178217400Y-71922813D01*
X178217392Y-71922811D01*
X178041883Y-71887900D01*
X178041879Y-71887900D01*
X177862921Y-71887900D01*
X177862916Y-71887900D01*
X177687407Y-71922811D01*
X177687399Y-71922813D01*
X177522067Y-71991296D01*
X177522057Y-71991301D01*
X177373265Y-72090721D01*
X177373261Y-72090724D01*
X177246724Y-72217261D01*
X177246721Y-72217265D01*
X177147301Y-72366057D01*
X177147296Y-72366067D01*
X177078813Y-72531399D01*
X177078811Y-72531407D01*
X177043900Y-72706916D01*
X156700448Y-72706916D01*
X156610878Y-72572865D01*
X156610875Y-72572861D01*
X156575019Y-72537005D01*
X156541534Y-72475682D01*
X156538700Y-72449324D01*
X156538700Y-69536675D01*
X156558385Y-69469636D01*
X156575020Y-69448993D01*
X156610875Y-69413138D01*
X156610878Y-69413135D01*
X156710302Y-69264336D01*
X156778787Y-69099000D01*
X156813700Y-68923479D01*
X156813700Y-68744521D01*
X156778787Y-68569000D01*
X156710302Y-68403664D01*
X156710300Y-68403661D01*
X156710298Y-68403657D01*
X156610878Y-68254865D01*
X156610875Y-68254861D01*
X156484338Y-68128324D01*
X156484334Y-68128321D01*
X156335542Y-68028901D01*
X156335532Y-68028896D01*
X156170200Y-67960413D01*
X156170192Y-67960411D01*
X155994683Y-67925500D01*
X155994679Y-67925500D01*
X155815721Y-67925500D01*
X155815716Y-67925500D01*
X155640207Y-67960411D01*
X155640199Y-67960413D01*
X155474867Y-68028896D01*
X155474857Y-68028901D01*
X155326065Y-68128321D01*
X155326061Y-68128324D01*
X155199524Y-68254861D01*
X155199521Y-68254865D01*
X155100101Y-68403657D01*
X155100096Y-68403667D01*
X155031613Y-68568999D01*
X155031611Y-68569007D01*
X154996700Y-68744516D01*
X123703500Y-68744516D01*
X123703500Y-68550776D01*
X123723185Y-68483737D01*
X123775989Y-68437982D01*
X123803309Y-68429159D01*
X124092158Y-68371704D01*
X124092169Y-68371701D01*
X124092169Y-68371700D01*
X124092179Y-68371699D01*
X124440863Y-68265927D01*
X124777500Y-68126487D01*
X125098849Y-67954722D01*
X125401815Y-67752287D01*
X125683480Y-67521131D01*
X125941131Y-67263480D01*
X126172287Y-66981815D01*
X126374722Y-66678849D01*
X126546487Y-66357500D01*
X126685927Y-66020863D01*
X126791699Y-65672179D01*
X126791701Y-65672169D01*
X126791704Y-65672158D01*
X126845526Y-65401575D01*
X126877911Y-65339664D01*
X126938626Y-65305090D01*
X126967110Y-65301766D01*
X203229369Y-65284360D01*
X203296410Y-65304029D01*
G37*
%TD.AperFunction*%
%TD*%
M02*
