%TF.GenerationSoftware,KiCad,Pcbnew,9.0.7*%
%TF.CreationDate,2026-02-16T22:08:23-05:00*%
%TF.ProjectId,Microphone_V3,4d696372-6f70-4686-9f6e-655f56332e6b,rev?*%
%TF.SameCoordinates,Original*%
%TF.FileFunction,Soldermask,Bot*%
%TF.FilePolarity,Negative*%
%FSLAX46Y46*%
G04 Gerber Fmt 4.6, Leading zero omitted, Abs format (unit mm)*
G04 Created by KiCad (PCBNEW 9.0.7) date 2026-02-16 22:08:23*
%MOMM*%
%LPD*%
G01*
G04 APERTURE LIST*
%ADD10C,6.000000*%
%ADD11O,4.000000X1.524000*%
%ADD12C,0.800000*%
%ADD13C,6.400000*%
%ADD14C,1.600000*%
G04 APERTURE END LIST*
D10*
%TO.C,MK1*%
X133458000Y-90778000D03*
D11*
X133458000Y-101778000D03*
X133458000Y-79778000D03*
%TD*%
D12*
%TO.C,H4*%
X120790000Y-64770000D03*
X121492944Y-63072944D03*
X121492944Y-66467056D03*
X123190000Y-62370000D03*
D13*
X123190000Y-64770000D03*
D12*
X123190000Y-67170000D03*
X124887056Y-63072944D03*
X124887056Y-66467056D03*
X125590000Y-64770000D03*
%TD*%
%TO.C,H1*%
X120790000Y-118110000D03*
X121492944Y-116412944D03*
X121492944Y-119807056D03*
X123190000Y-115710000D03*
D13*
X123190000Y-118110000D03*
D12*
X123190000Y-120510000D03*
X124887056Y-116412944D03*
X124887056Y-119807056D03*
X125590000Y-118110000D03*
%TD*%
%TO.C,H2*%
X204610000Y-118110000D03*
X205312944Y-116412944D03*
X205312944Y-119807056D03*
X207010000Y-115710000D03*
D13*
X207010000Y-118110000D03*
D12*
X207010000Y-120510000D03*
X208707056Y-116412944D03*
X208707056Y-119807056D03*
X209410000Y-118110000D03*
%TD*%
D14*
%TO.C,R3*%
X138792000Y-74952000D03*
X128632000Y-74952000D03*
%TD*%
D12*
%TO.C,H3*%
X204610000Y-64770000D03*
X205312944Y-63072944D03*
X205312944Y-66467056D03*
X207010000Y-62370000D03*
D13*
X207010000Y-64770000D03*
D12*
X207010000Y-67170000D03*
X208707056Y-63072944D03*
X208707056Y-66467056D03*
X209410000Y-64770000D03*
%TD*%
M02*
