%TF.GenerationSoftware,KiCad,Pcbnew,7.0.6*%
%TF.CreationDate,2023-08-13T13:31:46-04:00*%
%TF.ProjectId,Microphone_V1,4d696372-6f70-4686-9f6e-655f56312e6b,rev?*%
%TF.SameCoordinates,Original*%
%TF.FileFunction,Soldermask,Top*%
%TF.FilePolarity,Negative*%
%FSLAX46Y46*%
G04 Gerber Fmt 4.6, Leading zero omitted, Abs format (unit mm)*
G04 Created by KiCad (PCBNEW 7.0.6) date 2023-08-13 13:31:46*
%MOMM*%
%LPD*%
G01*
G04 APERTURE LIST*
G04 Aperture macros list*
%AMRoundRect*
0 Rectangle with rounded corners*
0 $1 Rounding radius*
0 $2 $3 $4 $5 $6 $7 $8 $9 X,Y pos of 4 corners*
0 Add a 4 corners polygon primitive as box body*
4,1,4,$2,$3,$4,$5,$6,$7,$8,$9,$2,$3,0*
0 Add four circle primitives for the rounded corners*
1,1,$1+$1,$2,$3*
1,1,$1+$1,$4,$5*
1,1,$1+$1,$6,$7*
1,1,$1+$1,$8,$9*
0 Add four rect primitives between the rounded corners*
20,1,$1+$1,$2,$3,$4,$5,0*
20,1,$1+$1,$4,$5,$6,$7,0*
20,1,$1+$1,$6,$7,$8,$9,0*
20,1,$1+$1,$8,$9,$2,$3,0*%
G04 Aperture macros list end*
%ADD10C,3.200000*%
%ADD11RoundRect,0.237500X-0.237500X0.250000X-0.237500X-0.250000X0.237500X-0.250000X0.237500X0.250000X0*%
%ADD12RoundRect,0.237500X0.250000X0.237500X-0.250000X0.237500X-0.250000X-0.237500X0.250000X-0.237500X0*%
%ADD13R,0.400000X1.350000*%
%ADD14O,1.200000X1.900000*%
%ADD15R,1.200000X1.900000*%
%ADD16C,1.450000*%
%ADD17R,1.500000X1.900000*%
%ADD18RoundRect,0.237500X-0.250000X-0.237500X0.250000X-0.237500X0.250000X0.237500X-0.250000X0.237500X0*%
%ADD19RoundRect,0.237500X0.300000X0.237500X-0.300000X0.237500X-0.300000X-0.237500X0.300000X-0.237500X0*%
%ADD20RoundRect,0.150000X0.825000X0.150000X-0.825000X0.150000X-0.825000X-0.150000X0.825000X-0.150000X0*%
%ADD21RoundRect,0.250000X1.075000X-0.400000X1.075000X0.400000X-1.075000X0.400000X-1.075000X-0.400000X0*%
%ADD22R,1.600000X1.300000*%
%ADD23R,1.600000X2.000000*%
%ADD24RoundRect,0.250000X-0.412500X-1.100000X0.412500X-1.100000X0.412500X1.100000X-0.412500X1.100000X0*%
%ADD25C,6.000000*%
%ADD26O,1.524000X4.000000*%
%ADD27RoundRect,0.250000X0.412500X1.100000X-0.412500X1.100000X-0.412500X-1.100000X0.412500X-1.100000X0*%
%ADD28R,1.700000X1.700000*%
%ADD29O,1.700000X1.700000*%
%ADD30C,1.400000*%
%ADD31R,2.500000X1.500000*%
%ADD32R,2.500000X1.300000*%
%ADD33RoundRect,0.237500X-0.300000X-0.237500X0.300000X-0.237500X0.300000X0.237500X-0.300000X0.237500X0*%
G04 APERTURE END LIST*
D10*
%TO.C,H4*%
X123952000Y-67818000D03*
%TD*%
%TO.C,H3*%
X206375000Y-67818000D03*
%TD*%
%TO.C,H2*%
X206375000Y-121412000D03*
%TD*%
%TO.C,H1*%
X123952000Y-121412000D03*
%TD*%
D11*
%TO.C,R9*%
X185420000Y-65739000D03*
X185420000Y-67564000D03*
%TD*%
D12*
%TO.C,R10*%
X152042500Y-88646000D03*
X150217500Y-88646000D03*
%TD*%
D13*
%TO.C,J1*%
X180730000Y-67978000D03*
X180080000Y-67978000D03*
X179430000Y-67978000D03*
X178780000Y-67978000D03*
X178130000Y-67978000D03*
D14*
X182930000Y-65278000D03*
D15*
X182330000Y-65278000D03*
D16*
X181930000Y-67978000D03*
D17*
X180430000Y-65278000D03*
X178430000Y-65278000D03*
D16*
X176930000Y-67978000D03*
D15*
X176530000Y-65278000D03*
D14*
X175930000Y-65278000D03*
%TD*%
D18*
%TO.C,R7*%
X156290000Y-95571000D03*
X158115000Y-95571000D03*
%TD*%
D19*
%TO.C,C4*%
X170026500Y-82169000D03*
X168301500Y-82169000D03*
%TD*%
D20*
%TO.C,U1*%
X165859000Y-90043000D03*
X165859000Y-88773000D03*
X165859000Y-87503000D03*
X165859000Y-86233000D03*
X165859000Y-84963000D03*
X165859000Y-83693000D03*
X165859000Y-82423000D03*
X160909000Y-82423000D03*
X160909000Y-83693000D03*
X160909000Y-84963000D03*
X160909000Y-86233000D03*
X160909000Y-87503000D03*
X160909000Y-88773000D03*
X160909000Y-90043000D03*
%TD*%
D21*
%TO.C,R2*%
X180721000Y-75337000D03*
X180721000Y-72237000D03*
%TD*%
D18*
%TO.C,R1*%
X176252500Y-83947000D03*
X178077500Y-83947000D03*
%TD*%
D22*
%TO.C,RV2*%
X152580000Y-79482000D03*
D23*
X149680000Y-78232000D03*
D22*
X152580000Y-76982000D03*
%TD*%
D24*
%TO.C,C6*%
X149567500Y-84836000D03*
X152692500Y-84836000D03*
%TD*%
D12*
%TO.C,R4*%
X175156500Y-93980000D03*
X173331500Y-93980000D03*
%TD*%
D25*
%TO.C,MK2*%
X138430000Y-108331000D03*
D26*
X127430000Y-108331000D03*
X149430000Y-108331000D03*
%TD*%
D27*
%TO.C,C2*%
X176187500Y-87884000D03*
X173062500Y-87884000D03*
%TD*%
D25*
%TO.C,MK1*%
X187706000Y-108331000D03*
D26*
X176706000Y-108331000D03*
X198706000Y-108331000D03*
%TD*%
D18*
%TO.C,R5*%
X152503500Y-92202000D03*
X154328500Y-92202000D03*
%TD*%
%TO.C,R8*%
X154535500Y-88646000D03*
X156360500Y-88646000D03*
%TD*%
D12*
%TO.C,R3*%
X147724500Y-82042000D03*
X145899500Y-82042000D03*
%TD*%
D24*
%TO.C,C8*%
X155536500Y-75438000D03*
X158661500Y-75438000D03*
%TD*%
D22*
%TO.C,RV1*%
X167587000Y-93111000D03*
D23*
X170487000Y-94361000D03*
D22*
X167587000Y-95611000D03*
%TD*%
D28*
%TO.C,J2*%
X191155000Y-67412000D03*
D29*
X193695000Y-67412000D03*
%TD*%
D30*
%TO.C,J3*%
X165152000Y-74440000D03*
D31*
X168402000Y-66040000D03*
X161902000Y-66040000D03*
X161902000Y-69440000D03*
X161902000Y-75440000D03*
X168402000Y-75440000D03*
D32*
X168402000Y-73340000D03*
%TD*%
D27*
%TO.C,C7*%
X175171500Y-76454000D03*
X172046500Y-76454000D03*
%TD*%
D33*
%TO.C,C1*%
X152553500Y-95504000D03*
X154278500Y-95504000D03*
%TD*%
D24*
%TO.C,C5*%
X155536500Y-70104000D03*
X158661500Y-70104000D03*
%TD*%
D19*
%TO.C,C3*%
X186663500Y-71501000D03*
X184938500Y-71501000D03*
%TD*%
D12*
%TO.C,R6*%
X171473500Y-85344000D03*
X169648500Y-85344000D03*
%TD*%
M02*
